<svg width="24" height="25" viewBox="0 0 24 25" fill="none" xmlns="http://www.w3.org/2000/svg">
<g id="Software/apps add">
<path id="Icon" d="M17.5 14.8901V18.3901M17.5 18.3901V21.8901M17.5 18.3901H21M17.5 18.3901H14M5 10.8901H8C9.10457 10.8901 10 9.99471 10 8.89014V5.89014C10 4.78557 9.10457 3.89014 8 3.89014H5C3.89543 3.89014 3 4.78557 3 5.89014V8.89014C3 9.99471 3.89543 10.8901 5 10.8901ZM5 21.8901H8C9.10457 21.8901 10 20.9947 10 19.8901V16.8901C10 15.7856 9.10457 14.8901 8 14.8901H5C3.89543 14.8901 3 15.7856 3 16.8901V19.8901C3 20.9947 3.89543 21.8901 5 21.8901ZM16 10.8901H19C20.1046 10.8901 21 9.99471 21 8.89014V5.89014C21 4.78557 20.1046 3.89014 19 3.89014H16C14.8954 3.89014 14 4.78557 14 5.89014V8.89014C14 9.99471 14.8954 10.8901 16 10.8901Z" stroke="#FFD0FE" stroke-width="2" stroke-linecap="round"/>
</g>
</svg>
