<svg width="20" height="20" viewBox="0 0 20 20" fill="none" xmlns="http://www.w3.org/2000/svg">
<path d="M15.3644 17.4492H4.63607C4.08353 17.4492 3.55363 17.2297 3.16293 16.839C2.77223 16.4483 2.55273 15.9184 2.55273 15.3658V4.63833C2.55273 4.08579 2.77223 3.55589 3.16293 3.16519C3.55363 2.77449 4.08353 2.55499 4.63607 2.55499H15.3644C15.9169 2.55499 16.4468 2.77449 16.8375 3.16519C17.2282 3.55589 17.4477 4.08579 17.4477 4.63833V15.3658C17.4477 15.9184 17.2282 16.4483 16.8375 16.839C16.4468 17.2297 15.9169 17.4492 15.3644 17.4492ZM4.63607 3.38833C4.30455 3.38833 3.9866 3.52002 3.75218 3.75444C3.51776 3.98886 3.38607 4.30681 3.38607 4.63833V15.3658C3.38607 15.6973 3.51776 16.0153 3.75218 16.2497C3.9866 16.4841 4.30455 16.6158 4.63607 16.6158H15.3644C15.6959 16.6158 16.0139 16.4841 16.2483 16.2497C16.4827 16.0153 16.6144 15.6973 16.6144 15.3658V4.63833C16.6144 4.30681 16.4827 3.98886 16.2483 3.75444C16.0139 3.52002 15.6959 3.38833 15.3644 3.38833H4.63607Z" fill="#006304"/>
<path d="M4.63607 3.38833C4.30455 3.38833 3.9866 3.52002 3.75218 3.75444C3.51776 3.98886 3.38607 4.30681 3.38607 4.63833V15.3658C3.38607 15.6973 3.51776 16.0153 3.75218 16.2497C3.9866 16.4841 4.30455 16.6158 4.63607 16.6158H15.3644C15.6959 16.6158 16.0139 16.4841 16.2483 16.2497C16.4827 16.0153 16.6144 15.6973 16.6144 15.3658V4.63833C16.6144 4.30681 16.4827 3.98886 16.2483 3.75444C16.0139 3.52002 15.6959 3.38833 15.3644 3.38833H4.63607Z" fill="#006304"/>
<path d="M13.1751 8.66664C13.5501 8.28331 12.9585 7.69164 12.5835 8.07498L9.61681 11.0416C9.13348 10.5583 8.65014 10.0833 8.17514 9.59998C8.09668 9.52152 7.99027 9.47744 7.87931 9.47744C7.76835 9.47744 7.66194 9.52152 7.58348 9.59998C7.50502 9.67844 7.46094 9.78485 7.46094 9.89581C7.46094 10.0068 7.50502 10.1132 7.58348 10.1916L9.31681 11.925C9.3964 12.0013 9.50239 12.0439 9.61264 12.0439C9.7229 12.0439 9.82889 12.0013 9.90848 11.925L13.1751 8.66664Z" fill="white"/>
</svg>
