<svg width="17" height="18" viewBox="0 0 17 18" fill="none" xmlns="http://www.w3.org/2000/svg">
<g id="Banking &#38; Finance/percent/circle" clip-path="url(#clip0_3296_22062)">
<path id="Icon" d="M4.95831 12.6317L12.0416 5.54834M5.40085 5.991H5.9321M5.40085 6.52225H5.9321M11.0675 11.6577H11.5988M11.0675 12.1889H11.5988M16.2916 9.09001C16.2916 13.3932 12.8032 16.8817 8.49998 16.8817C4.19676 16.8817 0.708313 13.3932 0.708313 9.09001C0.708313 4.78679 4.19676 1.29834 8.49998 1.29834C12.8032 1.29834 16.2916 4.78679 16.2916 9.09001ZM6.37498 6.25667C6.37498 6.64787 6.05785 6.96501 5.66665 6.96501C5.27544 6.96501 4.95831 6.64787 4.95831 6.25667C4.95831 5.86547 5.27544 5.54834 5.66665 5.54834C6.05785 5.54834 6.37498 5.86547 6.37498 6.25667ZM12.0416 11.9233C12.0416 12.3145 11.7245 12.6317 11.3333 12.6317C10.9421 12.6317 10.625 12.3145 10.625 11.9233C10.625 11.5321 10.9421 11.215 11.3333 11.215C11.7245 11.215 12.0416 11.5321 12.0416 11.9233Z" stroke="#B1B1B1" stroke-linecap="round"/>
</g>
<defs>
<clipPath id="clip0_3296_22062">
<rect width="17" height="17" fill="white" transform="translate(0 0.589844)"/>
</clipPath>
</defs>
</svg>
