<svg width="19" height="18" viewBox="0 0 19 18" fill="none" xmlns="http://www.w3.org/2000/svg">
<path d="M13.0941 13.5C13.9342 13.5 14.3543 13.5 14.6751 13.3365C14.9574 13.1927 15.1868 12.9632 15.3307 12.681C15.4941 12.3601 15.4941 11.9401 15.4941 11.1V3.9C15.4941 3.05992 15.4941 2.63988 15.3307 2.31901C15.1868 2.03677 14.9574 1.8073 14.6751 1.66349C14.3543 1.5 13.9342 1.5 13.0941 1.5H8.89414C8.05406 1.5 7.63402 1.5 7.31315 1.66349C7.03091 1.8073 6.80144 2.03677 6.65763 2.31901C6.49414 2.63988 6.49414 3.05992 6.49414 3.9M5.89414 16.5H10.0941C10.9342 16.5 11.3543 16.5 11.6751 16.3365C11.9574 16.1927 12.1868 15.9632 12.3307 15.681C12.4941 15.3601 12.4941 14.9401 12.4941 14.1V6.9C12.4941 6.05992 12.4941 5.63988 12.3307 5.31901C12.1868 5.03677 11.9574 4.8073 11.6751 4.66349C11.3543 4.5 10.9342 4.5 10.0941 4.5H5.89414C5.05406 4.5 4.63402 4.5 4.31315 4.66349C4.03091 4.8073 3.80144 5.03677 3.65763 5.31901C3.49414 5.63988 3.49414 6.05992 3.49414 6.9V14.1C3.49414 14.9401 3.49414 15.3601 3.65763 15.681C3.80144 15.9632 4.03091 16.1927 4.31315 16.3365C4.63402 16.5 5.05406 16.5 5.89414 16.5Z" stroke="black"/>
</svg>
