<svg width="366" height="36" viewBox="0 0 366 36" fill="none" xmlns="http://www.w3.org/2000/svg">
<g clip-path="url(#clip0_2866_44666)">
<g clip-path="url(#clip1_2866_44666)">
<path fill-rule="evenodd" clip-rule="evenodd" d="M6.31406 18.9673C8.0058 20.2309 9.41331 21.8355 10.5366 23.7811C11.6611 25.726 12.3469 27.7473 12.5942 29.8449C12.8415 31.9424 12.7058 34.0057 12.1871 36.0346L8.44762 33.9486C8.62873 32.9008 8.67262 31.8535 8.57929 30.8069C8.48597 29.7602 8.2407 28.7227 7.84347 27.6943L2.8324 33.1065L0.750007 31.9504L0.750007 29.5707L5.80113 24.1568C5.10912 23.2986 4.33323 22.5675 3.47346 21.9633C2.6137 21.3592 1.74804 20.8423 0.750007 20.4752L0.75 16.395C2.76761 16.9595 4.62232 17.7036 6.31406 18.9673Z" fill="#190B19"/>
<path fill-rule="evenodd" clip-rule="evenodd" d="M23.0678 18.9674C21.376 20.2311 19.9685 21.8357 18.8452 23.7813C17.7208 25.7262 17.0349 27.7474 16.7876 29.845C16.5403 31.9426 16.676 34.0058 17.1947 36.0347L20.9342 33.9488C20.7531 32.9009 20.7092 31.8537 20.8025 30.807C20.8959 29.7604 21.1411 28.7228 21.5384 27.6944L26.5494 33.1066L28.6318 31.9506L28.6318 29.5708L23.5807 24.157C24.2727 23.2988 25.0486 22.5676 25.9084 21.9635C26.7681 21.3593 27.6338 20.8425 28.6318 20.4754L28.6318 16.3952C26.6142 16.9597 24.7595 17.7038 23.0678 18.9674Z" fill="#190B19"/>
<path d="M25.8481 11.099L22.5961 9.17317C21.0528 10.5888 18.0926 11.5977 16.0508 11.8933L16.0508 -3.06747L12.6506 -3.06747L12.6506 11.8933C10.5613 11.4868 7.90791 10.5365 6.27532 9.17317L2.94629 11.099C5.96191 14.162 9.81811 15.7699 14.1807 15.8035C18.4598 15.8365 22.8457 14.1603 25.8481 11.099Z" fill="#190B19"/>
</g>
<g clip-path="url(#clip2_2866_44666)">
<path fill-rule="evenodd" clip-rule="evenodd" d="M36.9156 18.9675C38.6074 20.2312 40.0149 21.8358 41.1382 23.7814C42.2626 25.7263 42.9485 27.7475 43.1958 29.8451C43.4431 31.9427 43.3074 34.0059 42.7887 36.0348L39.0492 33.9489C39.2303 32.901 39.2742 31.8538 39.1809 30.8071C39.0875 29.7605 38.8423 28.7229 38.445 27.6945L33.434 33.1067L31.3516 31.9507L31.3516 29.5709L36.4027 24.1571C35.7107 23.2989 34.9348 22.5677 34.075 21.9636C33.2153 21.3594 32.3496 20.8426 31.3516 20.4755L31.3516 16.3952C33.3692 16.9598 35.2239 17.7039 36.9156 18.9675Z" fill="#190B19"/>
<path fill-rule="evenodd" clip-rule="evenodd" d="M53.6693 18.9675C51.9776 20.2311 50.5701 21.8357 49.4468 23.7813C48.3223 25.7262 47.6365 27.7474 47.3892 29.845C47.1419 31.9426 47.2776 34.0059 47.7963 36.0348L51.5358 33.9488C51.3547 32.901 51.3108 31.8537 51.4041 30.807C51.4974 29.7604 51.7427 28.7229 52.1399 27.6945L57.151 33.1066L59.2334 31.9506L59.2334 29.5709L54.1823 24.157C54.8743 23.2988 55.6502 22.5676 56.5099 21.9635C57.3697 21.3593 58.2354 20.8425 59.2334 20.4754L59.2334 16.3952C57.2158 16.9597 55.3611 17.7038 53.6693 18.9675Z" fill="#190B19"/>
<path d="M56.4496 11.099L53.1977 9.17317C51.6544 10.5888 48.6941 11.5977 46.6524 11.8933L46.6524 -3.06747L43.2522 -3.06747L43.2522 11.8933C41.1629 11.4868 38.5095 10.5365 36.8769 9.17317L33.5479 11.099C36.5635 14.162 40.4197 15.7699 44.7823 15.8035C49.0614 15.8365 53.4473 14.1603 56.4496 11.099Z" fill="#190B19"/>
</g>
<g clip-path="url(#clip3_2866_44666)">
<path fill-rule="evenodd" clip-rule="evenodd" d="M67.5172 18.9675C69.2089 20.2312 70.6164 21.8358 71.7397 23.7814C72.8642 25.7263 73.5501 27.7475 73.7974 29.8451C74.0446 31.9427 73.9089 34.0059 73.3902 36.0348L69.6507 33.9489C69.8319 32.901 69.8757 31.8538 69.7824 30.8071C69.6891 29.7605 69.4438 28.7229 69.0466 27.6945L64.0355 33.1067L61.9531 31.9507L61.9531 29.5709L67.0043 24.1571C66.3122 23.2989 65.5364 22.5677 64.6766 21.9636C63.8168 21.3594 62.9512 20.8426 61.9531 20.4755L61.9531 16.3952C63.9707 16.9598 65.8254 17.7039 67.5172 18.9675Z" fill="#190B19"/>
<path fill-rule="evenodd" clip-rule="evenodd" d="M84.2709 18.9675C82.5792 20.2311 81.1716 21.8357 80.0484 23.7813C78.9239 25.7262 78.238 27.7474 77.9907 29.845C77.7434 31.9426 77.8791 34.0059 78.3979 36.0348L82.1373 33.9488C81.9562 32.901 81.9123 31.8537 82.0057 30.807C82.099 29.7604 82.3443 28.7229 82.7415 27.6945L87.7526 33.1066L89.835 31.9506L89.835 29.5709L84.7838 24.157C85.4758 23.2988 86.2517 22.5676 87.1115 21.9635C87.9713 21.3593 88.8369 20.8425 89.835 20.4754L89.835 16.3952C87.8173 16.9597 85.9626 17.7038 84.2709 18.9675Z" fill="#190B19"/>
<path d="M87.0512 11.099L83.7993 9.17317C82.256 10.5888 79.2957 11.5977 77.2539 11.8933L77.2539 -3.06747L73.8538 -3.06747L73.8538 11.8933C71.7645 11.4868 69.111 10.5365 67.4784 9.17317L64.1494 11.099C67.165 14.162 71.0212 15.7699 75.3838 15.8035C79.6629 15.8365 84.0489 14.1603 87.0512 11.099Z" fill="#190B19"/>
</g>
<g clip-path="url(#clip4_2866_44666)">
<path fill-rule="evenodd" clip-rule="evenodd" d="M98.1187 18.9675C99.8105 20.2312 101.218 21.8358 102.341 23.7814C103.466 25.7263 104.152 27.7475 104.399 29.8451C104.646 31.9427 104.51 34.0059 103.992 36.0348L100.252 33.9489C100.433 32.901 100.477 31.8538 100.384 30.8071C100.291 29.7605 100.045 28.7229 99.6482 27.6945L94.6371 33.1067L92.5547 31.9507L92.5547 29.5709L97.6058 24.1571C96.9138 23.2989 96.1379 22.5677 95.2781 21.9636C94.4184 21.3594 93.5527 20.8426 92.5547 20.4755L92.5547 16.3952C94.5723 16.9598 96.427 17.7039 98.1187 18.9675Z" fill="#190B19"/>
<path fill-rule="evenodd" clip-rule="evenodd" d="M114.872 18.9675C113.181 20.2311 111.773 21.8357 110.65 23.7813C109.525 25.7262 108.84 27.7474 108.592 29.845C108.345 31.9426 108.481 34.0059 108.999 36.0348L112.739 33.9488C112.558 32.901 112.514 31.8537 112.607 30.807C112.701 29.7604 112.946 28.7229 113.343 27.6945L118.354 33.1066L120.437 31.9506L120.437 29.5709L115.385 24.157C116.077 23.2988 116.853 22.5676 117.713 21.9635C118.573 21.3593 119.438 20.8425 120.437 20.4754L120.437 16.3952C118.419 16.9597 116.564 17.7038 114.872 18.9675Z" fill="#190B19"/>
<path d="M117.653 11.099L114.401 9.17317C112.858 10.5888 109.897 11.5977 107.856 11.8933L107.856 -3.06747L104.455 -3.06747L104.455 11.8933C102.366 11.4868 99.7126 10.5365 98.08 9.17317L94.751 11.099C97.7666 14.162 101.623 15.7699 105.985 15.8035C110.264 15.8365 114.65 14.1603 117.653 11.099Z" fill="#190B19"/>
</g>
<g clip-path="url(#clip5_2866_44666)">
<path fill-rule="evenodd" clip-rule="evenodd" d="M128.72 18.9675C130.412 20.2312 131.82 21.8358 132.943 23.7814C134.067 25.7263 134.753 27.7475 135 29.8451C135.248 31.9427 135.112 34.0059 134.593 36.0348L130.854 33.9489C131.035 32.901 131.079 31.8538 130.986 30.8071C130.892 29.7605 130.647 28.7229 130.25 27.6945L125.239 33.1067L123.156 31.9507L123.156 29.5709L128.207 24.1571C127.515 23.2989 126.739 22.5677 125.88 21.9636C125.02 21.3594 124.154 20.8426 123.156 20.4755L123.156 16.3952C125.174 16.9598 127.029 17.7039 128.72 18.9675Z" fill="#190B19"/>
<path fill-rule="evenodd" clip-rule="evenodd" d="M145.474 18.9675C143.782 20.2311 142.375 21.8357 141.251 23.7813C140.127 25.7262 139.441 27.7474 139.194 29.845C138.947 31.9426 139.082 34.0059 139.601 36.0348L143.34 33.9488C143.159 32.901 143.115 31.8537 143.209 30.807C143.302 29.7604 143.547 28.7229 143.945 27.6945L148.956 33.1066L151.038 31.9506L151.038 29.5709L145.987 24.157C146.679 23.2988 147.455 22.5676 148.315 21.9635C149.174 21.3593 150.04 20.8425 151.038 20.4754L151.038 16.3952C149.02 16.9597 147.166 17.7038 145.474 18.9675Z" fill="#190B19"/>
<path d="M148.254 11.099L145.002 9.17317C143.459 10.5888 140.499 11.5977 138.457 11.8933L138.457 -3.06747L135.057 -3.06747L135.057 11.8933C132.968 11.4868 130.314 10.5365 128.682 9.17317L125.353 11.099C128.368 14.162 132.224 15.7699 136.587 15.8035C140.866 15.8365 145.252 14.1603 148.254 11.099Z" fill="#190B19"/>
</g>
<g clip-path="url(#clip6_2866_44666)">
<path fill-rule="evenodd" clip-rule="evenodd" d="M159.323 18.9675C161.015 20.2312 162.422 21.8358 163.545 23.7814C164.67 25.7263 165.356 27.7475 165.603 29.8451C165.85 31.9427 165.715 34.0059 165.196 36.0348L161.456 33.9489C161.638 32.901 161.681 31.8538 161.588 30.8071C161.495 29.7605 161.249 28.7229 160.852 27.6945L155.841 33.1067L153.759 31.9507L153.759 29.5709L158.81 24.1571C158.118 23.2989 157.342 22.5677 156.482 21.9636C155.622 21.3594 154.757 20.8426 153.759 20.4755L153.759 16.3952C155.776 16.9598 157.631 17.7039 159.323 18.9675Z" fill="#190B19"/>
<path fill-rule="evenodd" clip-rule="evenodd" d="M176.077 18.9675C174.385 20.2311 172.977 21.8357 171.854 23.7813C170.73 25.7262 170.044 27.7474 169.796 29.845C169.549 31.9426 169.685 34.0059 170.204 36.0348L173.943 33.9488C173.762 32.901 173.718 31.8537 173.811 30.807C173.905 29.7604 174.15 28.7229 174.547 27.6945L179.558 33.1066L181.641 31.9506L181.641 29.5709L176.589 24.157C177.282 23.2988 178.057 22.5676 178.917 21.9635C179.777 21.3593 180.643 20.8425 181.641 20.4754L181.641 16.3952C179.623 16.9597 177.768 17.7038 176.077 18.9675Z" fill="#190B19"/>
<path d="M178.857 11.099L175.605 9.17317C174.062 10.5888 171.101 11.5977 169.06 11.8933L169.06 -3.06747L165.659 -3.06747L165.659 11.8933C163.57 11.4868 160.917 10.5365 159.284 9.17317L155.955 11.099C158.971 14.162 162.827 15.7699 167.19 15.8035C171.469 15.8365 175.855 14.1603 178.857 11.099Z" fill="#190B19"/>
</g>
<g clip-path="url(#clip7_2866_44666)">
<path fill-rule="evenodd" clip-rule="evenodd" d="M189.924 18.9675C191.616 20.2312 193.024 21.8358 194.147 23.7814C195.271 25.7263 195.957 27.7475 196.205 29.8451C196.452 31.9427 196.316 34.0059 195.797 36.0348L192.058 33.9489C192.239 32.901 192.283 31.8538 192.19 30.8071C192.096 29.7605 191.851 28.7229 191.454 27.6945L186.443 33.1067L184.36 31.9507L184.36 29.5709L189.411 24.1571C188.719 23.2989 187.944 22.5677 187.084 21.9636C186.224 21.3594 185.358 20.8426 184.36 20.4755L184.36 16.3952C186.378 16.9598 188.233 17.7039 189.924 18.9675Z" fill="#190B19"/>
<path fill-rule="evenodd" clip-rule="evenodd" d="M206.678 18.9675C204.986 20.2311 203.579 21.8357 202.456 23.7813C201.331 25.7262 200.645 27.7474 200.398 29.845C200.151 31.9426 200.286 34.0059 200.805 36.0348L204.545 33.9488C204.363 32.901 204.32 31.8537 204.413 30.807C204.506 29.7604 204.751 28.7229 205.149 27.6945L210.16 33.1066L212.242 31.9506L212.242 29.5709L207.191 24.157C207.883 23.2988 208.659 22.5676 209.519 21.9635C210.378 21.3593 211.244 20.8425 212.242 20.4754L212.242 16.3952C210.225 16.9597 208.37 17.7038 206.678 18.9675Z" fill="#190B19"/>
<path d="M209.458 11.099L206.206 9.17317C204.663 10.5888 201.703 11.5977 199.661 11.8933L199.661 -3.06747L196.261 -3.06747L196.261 11.8933C194.172 11.4868 191.518 10.5365 189.886 9.17317L186.557 11.099C189.572 14.162 193.428 15.7699 197.791 15.8035C202.07 15.8365 206.456 14.1603 209.458 11.099Z" fill="#190B19"/>
</g>
<g clip-path="url(#clip8_2866_44666)">
<path fill-rule="evenodd" clip-rule="evenodd" d="M220.526 18.9676C222.218 20.2312 223.625 21.8358 224.749 23.7814C225.873 25.7263 226.559 27.7476 226.806 29.8452C227.053 31.9427 226.918 34.006 226.399 36.0349L222.66 33.949C222.841 32.9011 222.885 31.8538 222.791 30.8072C222.698 29.7605 222.453 28.723 222.055 27.6946L217.044 33.1068L214.962 31.9507L214.962 29.571L220.013 24.1572C219.321 23.2989 218.545 22.5678 217.685 21.9636C216.826 21.3595 215.96 20.8426 214.962 20.4755L214.962 16.3953C216.98 16.9598 218.834 17.7039 220.526 18.9676Z" fill="#190B19"/>
<path fill-rule="evenodd" clip-rule="evenodd" d="M237.28 18.9676C235.588 20.2312 234.18 21.8358 233.057 23.7814C231.933 25.7263 231.247 27.7476 231 29.8452C230.752 31.9427 230.888 34.006 231.407 36.0349L235.146 33.949C234.965 32.9011 234.921 31.8538 235.014 30.8072C235.108 29.7605 235.353 28.723 235.75 27.6946L240.761 33.1068L242.844 31.9507L242.844 29.571L237.793 24.1572C238.485 23.2989 239.261 22.5678 240.12 21.9636C240.98 21.3595 241.846 20.8426 242.844 20.4755L242.844 16.3953C240.826 16.9598 238.971 17.7039 237.28 18.9676Z" fill="#190B19"/>
<path d="M240.06 11.099L236.808 9.17317C235.265 10.5888 232.304 11.5977 230.263 11.8933L230.263 -3.06747L226.863 -3.06747L226.863 11.8933C224.773 11.4868 222.12 10.5365 220.487 9.17317L217.158 11.099C220.174 14.162 224.03 15.7699 228.393 15.8035C232.672 15.8365 237.058 14.1603 240.06 11.099Z" fill="#190B19"/>
</g>
<g clip-path="url(#clip9_2866_44666)">
<path fill-rule="evenodd" clip-rule="evenodd" d="M251.128 18.9675C252.819 20.2312 254.227 21.8358 255.35 23.7814C256.475 25.7263 257.16 27.7475 257.408 29.8451C257.655 31.9427 257.519 34.0059 257.001 36.0348L253.261 33.9489C253.442 32.901 253.486 31.8538 253.393 30.8071C253.299 29.7605 253.054 28.7229 252.657 27.6945L247.646 33.1067L245.563 31.9507L245.563 29.5709L250.615 24.1571C249.923 23.2989 249.147 22.5677 248.287 21.9636C247.427 21.3594 246.562 20.8426 245.563 20.4755L245.563 16.3952C247.581 16.9598 249.436 17.7039 251.128 18.9675Z" fill="#190B19"/>
<path fill-rule="evenodd" clip-rule="evenodd" d="M267.881 18.9675C266.19 20.2311 264.782 21.8357 263.659 23.7813C262.534 25.7262 261.848 27.7474 261.601 29.845C261.354 31.9426 261.49 34.0059 262.008 36.0348L265.748 33.9488C265.567 32.901 265.523 31.8537 265.616 30.807C265.709 29.7604 265.955 28.7229 266.352 27.6945L271.363 33.1066L273.445 31.9506L273.445 29.5709L268.394 24.157C269.086 23.2988 269.862 22.5676 270.722 21.9635C271.582 21.3593 272.447 20.8425 273.445 20.4754L273.445 16.3952C271.428 16.9597 269.573 17.7038 267.881 18.9675Z" fill="#190B19"/>
<path d="M270.662 11.099L267.41 9.17317C265.866 10.5888 262.906 11.5977 260.864 11.8933L260.864 -3.06747L257.464 -3.06747L257.464 11.8933C255.375 11.4868 252.721 10.5365 251.089 9.17317L247.76 11.099C250.775 14.162 254.632 15.7699 258.994 15.8035C263.273 15.8365 267.659 14.1603 270.662 11.099Z" fill="#190B19"/>
</g>
<g clip-path="url(#clip10_2866_44666)">
<path fill-rule="evenodd" clip-rule="evenodd" d="M281.729 18.9674C283.421 20.231 284.828 21.8357 285.952 23.7812C287.076 25.7261 287.762 27.7474 288.009 29.845C288.257 31.9426 288.121 34.0058 287.602 36.0347L283.863 33.9488C284.044 32.9009 284.088 31.8536 283.994 30.807C283.901 29.7603 283.656 28.7228 283.259 27.6944L278.247 33.1066L276.165 31.9506L276.165 29.5708L281.216 24.157C280.524 23.2988 279.748 22.5676 278.889 21.9634C278.029 21.3593 277.163 20.8424 276.165 20.4753L276.165 16.3951C278.183 16.9597 280.037 17.7038 281.729 18.9674Z" fill="#190B19"/>
<path fill-rule="evenodd" clip-rule="evenodd" d="M298.483 18.9675C296.791 20.2311 295.384 21.8357 294.26 23.7813C293.136 25.7262 292.45 27.7474 292.203 29.845C291.955 31.9426 292.091 34.0059 292.61 36.0348L296.349 33.9488C296.168 32.901 296.124 31.8537 296.218 30.807C296.311 29.7604 296.556 28.7229 296.953 27.6945L301.964 33.1066L304.047 31.9506L304.047 29.5709L298.996 24.157C299.688 23.2988 300.464 22.5676 301.323 21.9635C302.183 21.3593 303.049 20.8425 304.047 20.4754L304.047 16.3952C302.029 16.9597 300.175 17.7038 298.483 18.9675Z" fill="#190B19"/>
<path d="M301.263 11.099L298.011 9.17317C296.468 10.5888 293.508 11.5977 291.466 11.8933L291.466 -3.06747L288.066 -3.06747L288.066 11.8933C285.976 11.4868 283.323 10.5365 281.69 9.17317L278.361 11.099C281.377 14.162 285.233 15.7699 289.596 15.8035C293.875 15.8365 298.261 14.1603 301.263 11.099Z" fill="#190B19"/>
</g>
<g clip-path="url(#clip11_2866_44666)">
<path fill-rule="evenodd" clip-rule="evenodd" d="M312.331 18.9676C314.022 20.2312 315.43 21.8358 316.553 23.7814C317.678 25.7263 318.364 27.7476 318.611 29.8452C318.858 31.9427 318.722 34.006 318.204 36.0349L314.464 33.949C314.645 32.9011 314.689 31.8538 314.596 30.8072C314.503 29.7605 314.257 28.723 313.86 27.6946L308.849 33.1068L306.767 31.9507L306.767 29.571L311.818 24.1572C311.126 23.2989 310.35 22.5678 309.49 21.9636C308.63 21.3595 307.765 20.8426 306.767 20.4755L306.767 16.3953C308.784 16.9598 310.639 17.7039 312.331 18.9676Z" fill="#190B19"/>
<path fill-rule="evenodd" clip-rule="evenodd" d="M329.084 18.9675C327.393 20.2311 325.985 21.8357 324.862 23.7813C323.737 25.7262 323.052 27.7474 322.804 29.845C322.557 31.9426 322.693 34.0059 323.211 36.0348L326.951 33.9488C326.77 32.901 326.726 31.8537 326.819 30.807C326.912 29.7604 327.158 28.7229 327.555 27.6945L332.566 33.1066L334.648 31.9506L334.648 29.5709L329.597 24.157C330.289 23.2988 331.065 22.5676 331.925 21.9635C332.785 21.3593 333.65 20.8425 334.648 20.4754L334.648 16.3952C332.631 16.9597 330.776 17.7038 329.084 18.9675Z" fill="#190B19"/>
<path d="M331.865 11.099L328.613 9.17317C327.069 10.5888 324.109 11.5977 322.067 11.8933L322.067 -3.06747L318.667 -3.06747L318.667 11.8933C316.578 11.4868 313.925 10.5365 312.292 9.17317L308.963 11.099C311.979 14.162 315.835 15.7699 320.197 15.8035C324.476 15.8365 328.862 14.1603 331.865 11.099Z" fill="#190B19"/>
</g>
<g clip-path="url(#clip12_2866_44666)">
<path fill-rule="evenodd" clip-rule="evenodd" d="M342.932 18.9675C344.624 20.2312 346.031 21.8358 347.155 23.7814C348.279 25.7263 348.965 27.7475 349.212 29.8451C349.46 31.9427 349.324 34.0059 348.805 36.0348L345.066 33.9489C345.247 32.901 345.291 31.8538 345.197 30.8071C345.104 29.7605 344.859 28.7229 344.462 27.6945L339.451 33.1067L337.368 31.9507L337.368 29.5709L342.419 24.1571C341.727 23.2989 340.951 22.5677 340.092 21.9636C339.232 21.3594 338.366 20.8426 337.368 20.4755L337.368 16.3952C339.386 16.9598 341.24 17.7039 342.932 18.9675Z" fill="#190B19"/>
<path fill-rule="evenodd" clip-rule="evenodd" d="M359.686 18.9675C357.994 20.2311 356.587 21.8357 355.463 23.7813C354.339 25.7262 353.653 27.7474 353.406 29.845C353.158 31.9426 353.294 34.0059 353.813 36.0348L357.552 33.9488C357.371 32.901 357.327 31.8537 357.421 30.807C357.514 29.7604 357.759 28.7229 358.157 27.6945L363.168 33.1066L365.25 31.9506L365.25 29.5709L360.199 24.157C360.891 23.2988 361.667 22.5676 362.527 21.9635C363.386 21.3593 364.252 20.8425 365.25 20.4754L365.25 16.3952C363.232 16.9597 361.378 17.7038 359.686 18.9675Z" fill="#190B19"/>
<path d="M362.466 11.099L359.214 9.17317C357.671 10.5888 354.711 11.5977 352.669 11.8933L352.669 -3.06747L349.269 -3.06747L349.269 11.8933C347.18 11.4868 344.526 10.5365 342.893 9.17317L339.564 11.099C342.58 14.162 346.436 15.7699 350.799 15.8035C355.078 15.8365 359.464 14.1603 362.466 11.099Z" fill="#190B19"/>
</g>
</g>
<defs>
<clipPath id="clip0_2866_44666">
<rect width="364.5" height="35.8902" fill="white" transform="translate(0.75)"/>
</clipPath>
<clipPath id="clip1_2866_44666">
<rect width="27.8815" height="36.2118" fill="white" transform="matrix(1 0 0 -1 0.75 36.0345)"/>
</clipPath>
<clipPath id="clip2_2866_44666">
<rect width="27.8815" height="36.2118" fill="white" transform="matrix(1 0 0 -1 31.3516 36.0347)"/>
</clipPath>
<clipPath id="clip3_2866_44666">
<rect width="27.8815" height="36.2118" fill="white" transform="matrix(1 0 0 -1 61.9531 36.0347)"/>
</clipPath>
<clipPath id="clip4_2866_44666">
<rect width="27.8815" height="36.2118" fill="white" transform="matrix(1 0 0 -1 92.5547 36.0347)"/>
</clipPath>
<clipPath id="clip5_2866_44666">
<rect width="27.8815" height="36.2118" fill="white" transform="matrix(1 0 0 -1 123.156 36.0347)"/>
</clipPath>
<clipPath id="clip6_2866_44666">
<rect width="27.8815" height="36.2118" fill="white" transform="matrix(1 0 0 -1 153.759 36.0347)"/>
</clipPath>
<clipPath id="clip7_2866_44666">
<rect width="27.8815" height="36.2118" fill="white" transform="matrix(1 0 0 -1 184.36 36.0347)"/>
</clipPath>
<clipPath id="clip8_2866_44666">
<rect width="27.8815" height="36.2118" fill="white" transform="matrix(1 0 0 -1 214.962 36.0347)"/>
</clipPath>
<clipPath id="clip9_2866_44666">
<rect width="27.8815" height="36.2118" fill="white" transform="matrix(1 0 0 -1 245.563 36.0347)"/>
</clipPath>
<clipPath id="clip10_2866_44666">
<rect width="27.8815" height="36.2118" fill="white" transform="matrix(1 0 0 -1 276.165 36.0347)"/>
</clipPath>
<clipPath id="clip11_2866_44666">
<rect width="27.8815" height="36.2118" fill="white" transform="matrix(1 0 0 -1 306.767 36.0347)"/>
</clipPath>
<clipPath id="clip12_2866_44666">
<rect width="27.8815" height="36.2118" fill="white" transform="matrix(1 0 0 -1 337.368 36.0347)"/>
</clipPath>
</defs>
</svg>
