<svg width="244" height="149" viewBox="0 0 244 149" fill="none" xmlns="http://www.w3.org/2000/svg">
<g clip-path="url(#clip0_2868_85603)">
<path fill-rule="evenodd" clip-rule="evenodd" d="M71.4758 84.0495C72.0904 81.6576 72.6704 79.2133 73.5832 76.914C74.1542 75.475 74.7594 74.0497 75.3652 72.6257C75.4496 72.4276 75.485 72.237 75.6483 72.139C75.8668 72.0076 76.3188 72.0103 76.5652 71.9647C80.0666 71.3222 83.6048 70.8321 87.1546 70.5564C91.2053 70.2413 95.1539 70.3856 99.1618 71.0458C102.59 71.6108 105.984 72.3888 109.341 73.2798C109.834 73.4112 110.327 73.5446 110.818 73.6821C111.048 73.7467 111.428 73.7794 111.628 73.9128C112.055 74.1987 112.2 75.3702 112.359 75.8664C112.574 76.5314 112.699 77.4449 113.112 78.0112C113.728 78.8532 114.664 79.5843 115.427 80.284C118.089 82.7283 121.008 84.9576 124.446 86.1658C129.764 88.0349 135.373 89.2064 140.883 90.3642C141.011 90.3914 141.139 90.418 141.268 90.4445C139.841 92.0251 138.415 93.6049 136.989 95.1848C136.185 96.0758 135.381 96.9661 134.576 97.8571C134.163 98.3152 134.208 98.3969 133.623 98.2696C130.694 97.6298 127.769 96.9328 124.892 96.0826C123.482 95.6667 122.048 95.2338 120.735 94.5592C118.929 93.6308 117.234 92.4825 115.585 91.3035C114.109 90.2498 112.669 89.1471 111.255 88.0131C110.976 87.7899 109.97 86.7124 109.644 86.7825C109.362 86.843 108.876 87.4836 108.669 87.6701C108.124 88.1636 107.577 88.655 107.026 89.1424C106.15 89.917 105.255 90.8665 104.232 91.4499C103.153 92.0652 101.917 92.4838 100.779 92.9732C100.144 93.2462 99.5082 93.5185 98.8725 93.7901C98.7064 93.8608 98.4743 94.0147 98.2952 94.0188C97.7657 94.0297 96.9958 93.5988 96.5044 93.4313C95.2417 92.9998 93.9886 92.5417 92.7484 92.0496C90.0999 91 87.1893 89.8591 85.009 87.9702C84.6292 87.6408 84.2576 87.2719 84.0057 86.8315C83.9186 86.679 83.7886 86.4666 83.7797 86.2862C83.7655 85.999 83.9268 85.9425 84.167 85.7628C85.4072 84.8357 86.7441 84.0277 88.0585 83.2136C88.3675 83.0224 88.6772 82.8318 88.9876 82.6426L73.626 83.8766C72.9093 83.9345 72.1925 83.9924 71.4758 84.0495Z" fill="#1E1E1E"/>
<path fill-rule="evenodd" clip-rule="evenodd" d="M94.3541 54.7893C95.9768 54.8634 97.6404 54.9388 99.2495 55.1673C100.853 55.395 102.35 55.9775 103.799 56.6826C106.413 57.9541 109.084 59.4996 110.765 61.9454C111.551 63.0889 112.192 64.2862 113.277 65.1863C113.53 65.3969 113.807 65.6499 114.144 65.7143C114.412 65.7654 114.648 65.657 114.91 65.6441C115.411 65.6192 115.6 65.8832 115.6 66.3806C115.976 66.2306 116.385 66.0948 116.795 66.15C117.137 66.1961 117.41 66.4027 117.739 66.4896C118.332 66.6464 118.913 66.4119 119.477 66.2372C120.903 65.7959 122.469 65.4618 123.967 65.6192C124.953 65.723 126.149 66.1509 125.638 67.4221C125.215 68.4767 123.63 69.0103 122.63 69.2724C121.779 69.4956 120.634 69.2969 120.706 70.4717C120.756 71.2913 120.88 72.1714 121.751 72.4375C122.229 72.5832 123.921 72.8003 122.933 73.5402C122.203 74.0868 121.949 75.0486 121.393 75.7708C120.686 76.6911 119.726 77.4358 118.605 77.7713C117.351 78.1478 116.023 78.0756 114.734 78.2213C115.642 79.4744 116.953 80.3361 118.145 81.2891C119.4 82.2911 120.61 83.3863 122.062 84.1003C123.363 84.7408 124.769 85.1853 126.113 85.7285C127.524 86.2982 128.946 86.8618 130.403 87.3063C133.341 88.2021 136.433 88.8276 139.455 89.3776C140.945 89.6485 142.407 89.6091 143.914 89.6329C145.458 89.6581 147.003 89.929 148.519 90.2074C149.254 90.3421 149.996 90.4272 150.731 90.562C151.085 90.626 152.481 90.7682 152.531 91.2856C152.612 92.1269 151.702 92.5993 151.036 92.8334C150.751 92.9342 150.293 92.9192 150.046 93.0574C149.78 93.2064 149.884 93.4263 149.853 93.7149C149.809 94.1342 149.584 94.4364 149.24 94.6692C148.957 94.8612 148.616 94.853 148.811 95.2158C148.901 95.3833 149.126 95.4888 149.23 95.6651C149.348 95.8666 149.403 96.0871 149.379 96.3185C149.337 96.7242 149.069 97.0332 148.695 97.1769C148.099 97.4062 147.398 97.2442 146.786 97.1694C145.763 97.0448 144.725 97.0326 143.716 96.8086C142.663 96.5751 141.638 96.2157 140.584 95.9761C140.044 95.8536 139.503 95.7508 138.975 95.5813C138.631 95.4704 138.135 95.1831 137.769 95.273C137.425 95.3574 137.158 95.7713 136.934 96.0115C136.624 96.343 136.325 96.684 136.01 97.0108C135.802 97.2272 135.589 97.4396 135.362 97.6356C135.287 97.6996 134.831 97.9787 134.825 98.0536C134.807 98.2653 135.305 98.2619 135.412 98.3463C136.032 98.8364 135.1 99.1467 134.698 99.1222C133.771 99.0657 132.839 98.9521 131.921 98.8159C129.734 98.4912 127.554 98.1414 125.464 97.4083C123.396 96.684 121.378 95.9128 119.466 94.8333C117.63 93.7966 115.855 92.6245 114.12 91.4265C113.279 90.8452 112.432 90.2428 111.722 89.5022C111.027 88.7779 110.46 87.9468 109.884 87.1287C108.504 88.4614 107.176 89.8629 105.694 91.0855C104.284 92.2474 102.589 92.8688 100.949 93.6237C101.002 93.9668 102.605 94.1723 102.898 94.2615C104.235 94.6686 105.518 95.3213 106.819 95.8332C108.982 96.6854 111.035 97.7942 111.756 100.16C112.464 102.487 111.642 104.829 110.64 106.93C109.457 109.411 108.053 111.709 106.354 113.873C105.632 114.793 104.854 115.64 104.061 116.497C103.385 117.228 102.805 118.093 103.088 119.133C103.632 118.963 103.732 119.387 103.376 119.747C103.06 120.067 102.513 120.129 102.091 120.182C100.81 120.342 99.4877 120.285 98.206 120.166C95.872 119.948 93.5325 119.36 91.4196 118.345C90.368 117.841 89.9882 118.654 89.2646 119.285C88.6962 119.78 87.9128 120.101 87.4805 120.743C87.1245 121.27 87.3567 122.103 88.0959 121.906C88.6704 121.752 89.1319 121.11 89.7411 121.086C90.8213 121.042 88.7827 122.584 88.522 122.772C89.0386 123.234 89.624 122.601 90.1447 122.495C90.6443 122.393 90.7839 122.652 90.5177 123.069C90.3101 123.393 89.658 123.623 90.0916 124.018C90.451 124.346 91.2474 124.518 91.6885 124.661C93.0642 125.109 94.433 125.427 95.8658 125.631C96.328 125.697 97.07 125.655 97.445 125.983C97.9392 126.415 97.701 127.133 97.4505 127.628C96.5023 129.506 94.5303 130.429 92.5053 130.564C91.2576 130.647 89.9991 130.566 88.748 130.634C87.3764 130.707 86.0021 130.817 84.6285 130.772C82.419 130.699 81.0134 129.102 79.9121 127.345C79.2123 126.23 78.567 125.081 77.9619 123.912C77.725 123.455 77.2295 122.981 77.1451 122.468C77.0689 122.007 77.3636 121.636 77.6502 121.309C78.4037 120.449 79.3103 119.792 80.1966 119.081C80.7023 118.675 80.897 118.339 81.1216 117.748C81.3115 117.251 81.6764 117.038 81.997 116.642C82.3503 116.205 82.2393 116.128 81.9636 115.771C81.6757 115.397 81.7887 114.847 81.9099 114.425C82.0834 113.818 82.4558 113.685 83.0119 113.489C83.519 113.311 83.9485 112.999 84.3977 112.709C86.6188 111.276 88.7105 109.656 90.9581 108.264C93.1758 106.89 95.4935 105.677 97.6104 104.144C95.8917 103.913 94.3765 102.984 92.7551 102.435C91.9233 102.153 91.099 101.852 90.2938 101.498C89.9861 101.364 89.6281 101.244 89.3538 101.046C89.0781 100.846 88.8664 100.584 88.5778 100.396C87.8924 99.9486 87.0776 99.694 86.3404 99.3448C85.544 98.9684 84.7585 98.5566 84.0186 98.0774C83.3284 97.6302 82.6654 97.119 82.0909 96.5275C81.6335 96.0571 81.1883 95.4432 80.541 95.2267C80.6091 96.1293 81.7261 96.876 82.3387 97.4192C83.3325 98.3 84.3651 99.0487 85.4759 99.7764C84.2303 100.844 82.7117 101.539 81.253 102.26C79.6126 103.071 78.0184 103.969 76.3841 104.793C75.0003 105.49 73.5443 106.028 72.138 106.676C70.6201 107.375 69.0579 107.961 67.4747 108.493C66.0416 108.974 64.6926 109.488 63.3404 110.164C62.026 110.82 60.6195 111.323 59.2133 111.744C57.6334 112.218 56.1261 112.668 54.6066 113.318C53.2364 113.903 51.8606 114.278 50.4105 114.596C49.9316 114.701 49.3165 114.894 48.981 114.43C48.7268 114.079 48.6885 113.536 48.6155 113.123C48.336 111.541 48.3139 109.933 48.0624 108.35C47.1079 108.637 46.2038 108.992 45.1968 109.038C44.5638 109.066 44.1791 109.132 44.0214 109.823C44.3876 109.864 45.696 109.882 45.7314 110.401C45.7634 110.869 44.9717 110.874 44.6909 110.886C44.1885 110.91 43.7332 110.827 43.465 111.319C43.8601 111.465 44.736 111.199 44.9109 111.73C45.1363 112.416 44.1127 112.415 43.7444 112.47C43.1018 112.566 43.1679 113.071 43.2119 113.61C43.2698 114.32 43.3137 115.031 43.4095 115.737C43.6143 117.246 43.9651 118.733 44.1312 120.247C44.2748 121.557 44.3553 122.815 43.4194 123.859C43.0431 124.278 42.52 124.761 41.9285 124.811C41.3284 124.862 41.3393 124.441 40.9657 124.132C40.7367 123.943 40.4335 123.904 40.1638 123.802C39.8358 123.677 39.5175 123.495 39.2228 123.306C38.6795 122.958 38.2047 122.527 37.8206 122.008C36.3184 119.978 35.7815 116.945 35.6327 114.483C35.538 112.918 35.6324 111.351 35.776 109.792C35.8533 108.952 35.9311 108.112 36.0328 107.275C36.0642 107.015 36.1168 106.755 36.1364 106.495C36.1475 106.346 36.0757 106.045 36.1517 105.903C36.0547 106.085 35.8827 105.95 35.7119 105.807C35.3593 105.51 35.4679 104.941 35.6564 104.552C36.2246 103.379 37.9274 103.333 39.0352 103.242C42.0129 102.997 44.8419 102.198 47.6927 101.345C47.2903 100.742 47.9232 100.345 48.4137 100.137C49.1701 99.8179 49.9512 99.5375 50.7147 99.2325C52.4388 98.5437 54.127 97.9018 55.9324 97.4621C57.5679 97.0639 59.1502 96.4036 60.7637 95.919C62.4308 95.4187 64.0677 94.8469 65.7074 94.2635C68.9552 93.1091 72.2054 91.9302 75.357 90.5293C76.1534 90.1754 76.9143 89.7649 77.6835 89.3558C78.3077 89.023 79.0408 88.7793 79.5704 88.2987C80.0761 87.84 80.379 87.2022 80.9283 86.7856C81.4232 86.4099 82.1004 86.4051 82.5102 85.9388C83.065 85.3085 83.7266 85.0315 84.4794 84.6626C84.7211 84.5434 86.3132 83.9438 86.2805 83.6034C85.1431 83.6034 83.975 83.9417 82.8506 84.0996C81.6607 84.2664 80.4716 84.4515 79.2729 84.5441C77.3309 84.6932 75.3896 84.653 73.4558 84.442C73.1672 84.4107 72.0073 84.1731 71.8079 84.4829C71.6554 84.719 72.0339 85.0002 72.038 85.2541C72.0434 85.6264 71.7432 85.8265 71.4036 85.6972C70.7419 85.4453 70.8386 84.3787 70.9005 83.8376C71.019 82.8023 71.2817 81.7758 71.5118 80.7616C70.1463 81.4565 68.8503 82.3489 67.6745 83.3298C66.7637 84.0894 65.9414 85.1193 64.8727 85.6611C63.8466 86.1811 63.2365 85.7373 63.2785 84.5924C63.2978 84.0676 63.4041 83.5701 63.5857 83.0813C63.6716 82.8506 64.0241 82.1971 63.859 81.9514C62.9211 82.6988 61.9895 83.4489 61.0051 84.1357C60.3092 84.621 59.3003 85.3779 58.3917 85.1853C57.5893 85.0151 57.6678 84.1323 57.9221 83.5374C58.1428 83.0208 58.5392 82.5627 58.9321 82.1685C59.257 81.8425 59.7189 81.5505 59.8816 81.0992C58.8038 81.5832 57.6942 81.95 56.5651 82.2904C55.7621 82.5327 55.2009 83.5381 54.2672 83.3897C53.3326 83.2406 53.7048 82.0855 54.0778 81.5832C54.3389 81.2319 54.7 80.9222 55.0504 80.6622C55.3919 80.409 55.9116 80.1884 56.0797 79.7664C54.9879 79.972 53.8901 80.328 52.7665 80.2626C52.0993 80.2232 50.9855 79.9318 51.1172 79.0347C51.2506 78.1267 52.46 78.0565 53.14 77.8877C54.0673 77.6563 54.9545 77.2227 55.8493 76.8919C57.6542 76.2242 59.4942 75.6885 61.3409 75.1569L61.9242 74.9887C64.0087 74.3877 66.1049 73.8758 68.2152 73.3769C69.2581 73.1298 70.2975 72.8609 71.3491 72.6506C72.366 72.4464 73.3993 72.3286 74.4088 72.0849C73.5579 70.8012 74.5878 69.7454 75.7 69.1349C74.9948 68.9919 74.2774 68.9062 73.5783 68.7333C72.9807 68.5856 72.4055 68.3589 71.8038 68.2282C70.7698 68.0035 69.7373 67.8854 68.8544 67.245C67.1863 66.0347 67.0445 64.1087 68.45 62.6514C69.8686 61.1805 71.9501 60.4917 73.9541 60.4234C76.1962 60.3468 78.7481 60.7816 80.846 61.5758C81.8772 61.966 82.9506 62.462 83.8341 63.1264C84.4352 63.5784 85.3854 64.4444 86.192 64.4444C85.2261 63.2756 84.0404 62.0669 83.8655 60.4839C83.7007 58.9852 84.38 57.3922 85.5209 56.4228C87.7998 54.4864 91.5599 54.6617 94.3541 54.7893ZM81.3619 119.024C80.767 119.949 79.9447 120.7 79.1681 121.468C78.8999 121.733 78.3622 122.07 78.3363 122.485C78.3152 122.824 78.7311 123.205 78.9121 123.471C79.8719 124.879 80.6622 126.433 81.8336 127.684C83.1589 129.097 84.6707 129.371 86.546 129.375C88.6289 129.38 90.7396 129.641 92.8184 129.53C94.58 129.438 96.3158 128.653 97.1918 127.059C96.6214 126.765 95.8093 126.905 95.1913 126.911C94.3479 126.92 93.525 126.905 92.6918 126.759C91.937 126.625 91.1909 126.426 90.481 126.134C90.1134 125.984 89.7499 125.812 89.4116 125.602C89.1639 125.449 88.9774 125.214 88.7344 125.064C87.8365 124.51 86.7999 126.273 85.8408 126.238C85.2527 126.218 85.4657 125.639 85.7101 125.316C86.1519 124.732 86.9217 124.372 87.503 123.946C86.9619 123.448 86.3499 123.97 85.8347 124.23C85.1907 124.557 84.5209 124.956 83.8015 125.078C83.8552 124.15 85.1172 123.653 85.8136 123.275C86.1233 123.107 86.5113 122.951 86.5875 122.582C86.6454 122.304 86.5467 121.909 86.5181 121.629C86.4806 121.272 86.4534 121.158 86.0743 121.058C85.6134 120.935 85.1499 120.971 84.6884 120.818C83.4257 120.402 82.4442 119.783 81.3619 119.024ZM40.3337 104.4C40.0254 104.486 39.714 104.56 39.4008 104.626C38.7811 104.757 38.1606 104.892 37.5386 105.011C37.2267 105.071 36.8804 105.033 36.7885 105.331C36.7412 105.483 36.8601 105.758 36.8805 105.916C36.9172 106.202 36.9195 106.492 36.9229 106.78C36.9554 109.433 36.4009 112.072 36.645 114.724C36.8513 116.966 37.334 119.802 38.9807 121.472C39.6914 122.193 40.5658 122.975 41.4607 123.467C42.1622 123.853 43.1423 122.885 43.2856 122.214C43.3882 121.734 43.2169 121.226 43.1054 120.763C42.9625 120.169 42.8177 119.576 42.6761 118.982C42.3739 117.714 42.0991 116.434 42.0122 115.13C41.9837 114.702 41.9898 114.29 42.014 113.864C42.027 113.632 42.1361 113.074 41.9741 112.875C41.7648 112.619 41.2863 112.787 41.003 112.809C40.6924 112.833 40.3891 112.814 40.0857 112.735C39.3633 112.546 39.2367 111.971 40.0254 111.706C40.5762 111.52 41.5828 111.789 42.0454 111.432C42.5891 111.012 41.4904 110.954 41.2338 110.943C40.8922 110.929 39.7591 111.018 39.817 110.381C39.8598 109.909 40.8352 109.878 41.1765 109.857C41.9055 109.814 42.8281 110.088 43.1431 109.209C43.2695 108.857 42.509 108.678 42.3182 108.503C41.8546 108.078 41.7025 107.35 41.6627 106.754C41.6235 106.167 42.2005 104.135 41.3213 104.081C41.0513 104.065 40.6025 104.326 40.3337 104.4ZM83.5782 116.132C83.0609 116.748 82.6137 117.424 82.1311 118.068C83.2617 118.692 84.4182 119.193 85.5869 119.73C86.1185 119.974 86.4908 120.167 87.0054 119.797C87.3744 119.532 87.6514 119.155 88.0115 118.879C88.5288 118.482 89.0699 118.119 89.6002 117.741C88.0346 117.17 86.4452 116.668 84.8797 116.096C84.2943 115.882 84.0009 115.629 83.5782 116.132ZM70.6861 114.175C71.021 114.514 70.3764 115.455 70.2498 115.777C71.2878 115.695 72.317 115.531 73.3367 115.32C73.6838 115.248 73.5559 115.671 73.4259 115.81C73.2652 115.983 72.9439 116.035 72.7288 116.097C71.9393 116.324 71.1286 116.433 70.3179 116.553C70.6888 117.01 71.5819 117.725 71.294 118.411C70.7753 117.964 70.4023 117.369 69.8291 116.983C69.6631 117.23 69.3193 118.103 68.9429 118.049C68.351 117.966 68.9504 116.946 69.0743 116.7C68.6754 116.7 67.1789 117.05 66.97 116.56C66.7563 116.058 68.2008 116.074 68.4679 115.955L68.418 115.895L68.3681 115.834C68.1684 115.594 67.9766 115.356 67.9496 115.026C68.3962 115.179 68.6945 115.88 69.1852 115.89C69.6508 115.9 69.8584 115.2 70.0245 114.869C70.1184 114.681 70.439 113.924 70.6861 114.175ZM121.056 107.576C122.056 108.42 121.376 110.123 120.619 110.889C119.771 111.747 117.882 112.535 116.806 111.66C116.217 111.182 116.43 110.452 116.575 109.816C116.736 109.108 116.836 108.512 117.422 108.026C118.333 107.271 120.04 106.72 121.056 107.576ZM119.024 108.067C118.048 108.275 117.058 109.25 116.826 110.256C116.522 111.575 117.891 111.671 118.792 111.473C119.927 111.223 121.131 110.392 121.189 109.087C121.239 107.961 119.783 107.906 119.024 108.067ZM47.9699 102.366C46.5077 102.91 45.1333 103.654 43.5991 103.978C43.131 104.076 42.9387 104.184 42.8229 104.62C42.6608 105.231 42.5071 105.849 42.6228 106.487C42.8632 107.812 44.7059 107.65 45.7293 107.597C46.2546 107.571 47.265 107.667 47.7208 107.339C48.0538 107.1 47.914 106.651 47.8622 106.301C47.6681 104.994 47.8798 103.671 47.9699 102.366ZM127.692 89.7445C127.153 89.8459 126.223 90.285 126.995 90.835C127.509 91.2018 128.276 91.2461 128.881 91.3373C130.063 91.5143 131.324 91.6667 132.35 92.3338C134.249 93.5693 134.017 95.9006 133.448 97.8085C133.858 98.0495 135.06 96.473 135.287 96.2164C136.206 95.1763 137.128 94.1397 138.054 93.1064C138.451 92.6646 135.201 91.1379 134.909 91.0004C133.365 90.2741 131.924 89.7956 130.192 89.671C129.371 89.6118 128.504 89.5914 127.692 89.7445ZM120.989 85.8776C120.841 86.2492 121.1 86.418 121.338 86.6753C122.665 88.1116 123.599 90.1448 124.339 91.9275C124.708 92.8171 124.966 93.7136 125.194 94.6454C125.418 95.5596 126.129 95.8039 126.981 96.0633C128.945 96.6609 131.011 96.861 132.981 97.4512C133.509 97.6091 133.612 96.4485 133.646 96.1545C133.74 95.3166 133.652 94.4426 133.212 93.7047C132.38 92.3086 130.713 92.0125 129.225 91.7743C128.375 91.6388 127.254 91.4986 126.581 90.9166C126.243 90.6246 126.196 90.2897 126.459 89.9269C126.94 89.2653 127.785 89.1809 128.541 89.1264C128.909 89.1006 131.188 89.3307 131.263 89.0611C130.128 88.6908 128.963 88.4471 127.845 88.0244C126.973 87.6943 126.093 87.3825 125.213 87.0735L124.333 86.7652C123.437 86.4507 122.618 86.0688 121.759 85.6911C121.436 85.5488 121.14 85.4964 120.989 85.8776ZM140.24 91.9295C139.956 92.312 139.674 92.6333 139.461 93.0628C139.212 93.5638 138.8 93.883 138.455 94.3139C140.246 94.6298 141.954 95.0307 143.679 95.6099C144.565 95.9074 145.48 96.0537 146.386 96.2668C147.146 96.4458 147.956 96.7222 148.743 96.5588C147.847 95.3234 145.456 95.6651 144.826 94.1683C144.398 93.1506 145.451 92.3386 146.312 92.1616C147.815 91.8533 149.417 91.8294 150.944 91.7198C150.96 91.1351 145.417 90.8329 144.869 90.7853C143.897 90.7015 142.881 90.5184 141.91 90.4851C141.008 90.4538 140.713 91.2931 140.24 91.9295ZM119.09 87.6562C118.556 88.1721 118.033 88.6997 117.5 89.2163C117.149 89.5566 116.674 89.9181 116.398 90.3231C116.045 90.8397 116.663 91.0882 117.074 91.3332C118.115 91.9506 119.189 92.5271 120.247 93.1146C121.197 93.6428 122.186 94.3146 123.235 94.6229C123.796 94.7883 124.323 95.0443 124.864 95.2614C124.603 92.9178 123.258 90.7893 122.017 88.8358C121.732 88.3866 121.438 87.9448 121.153 87.4962C121.009 87.2702 120.743 86.7373 120.442 86.6917C119.997 86.6229 119.36 87.3955 119.09 87.6562ZM146.291 93.6203C146.942 93.9933 147.593 94.1825 148.327 93.9007C148.508 93.8272 148.686 93.7496 148.863 93.6673C148.374 93.0009 146.928 93.4072 146.291 93.6203ZM92.4298 85.4651C91.2767 85.9851 90.044 86.5024 89.0414 87.2873C88.6711 87.5765 87.844 88.1851 88.0373 88.7364C88.2034 89.2088 89.1189 89.6111 89.5532 89.7547C91.8403 90.5123 94.4425 89.961 96.5486 91.3509C97.1183 91.7267 97.3041 92.2181 97.7275 92.713C98.1101 93.1602 98.5947 93.1044 99.1093 92.9185C99.7845 92.6748 100.407 92.3018 101.085 92.0629C101.432 91.9404 102.021 91.8594 102.057 91.3911C102.227 89.185 101.756 86.3738 99.8124 85.024C97.6295 83.5088 94.6182 84.4781 92.4298 85.4651ZM91.193 90.6069C91.1372 90.8867 93.301 91.3931 93.5359 91.4578C94.8428 91.8179 96.0632 92.6735 97.4164 92.8117C97.6519 92.2868 95.7774 91.451 95.4806 91.3428C94.1281 90.8513 92.6142 90.7628 91.193 90.6069ZM133.68 89.6268C135.32 90.2993 136.91 91.1222 138.285 92.2671C138.759 92.6619 139.911 90.7887 140.169 90.5014C137.984 90.4102 135.831 89.9936 133.68 89.6268ZM103.023 76.4481C101.502 77.4528 100.177 78.7665 98.5082 79.537C99.0303 79.6194 99.6007 79.2811 100.1 79.162C100.586 79.0469 101.076 78.9707 101.55 78.8067C101.84 78.7066 103.04 78.0579 103.265 78.4976C103.617 79.1844 101.139 79.6596 100.786 79.7766C99.5973 80.1721 98.415 80.5866 97.2374 81.0168C96.0966 81.4334 94.9571 81.882 93.7782 82.1815C92.5816 82.4857 91.3121 82.564 90.1611 83.0364C89.1434 83.4537 88.2688 84.1446 87.2872 84.6326C86.303 85.122 85.1839 85.4242 84.3351 86.1519C85.2581 87.1368 86.3493 87.9618 87.5432 88.5901C87.7344 87.0878 89.4947 86.2322 90.6988 85.655C93.3235 84.3964 97.2667 82.4987 99.9418 84.6312C101.897 86.1907 102.163 89.1482 102.163 91.4639C102.692 91.2951 103.176 91.0269 103.668 90.7737C104.009 90.5981 104.013 90.1094 104.055 89.7833C104.126 89.2483 104.27 88.731 104.436 88.2177C104.803 87.0837 105.263 85.9769 105.701 84.8681C106.41 83.0759 107.284 81.3075 107.719 79.4213C108.003 78.1906 108.341 76.0751 106.858 75.4638C105.574 74.9356 104.065 75.7593 103.023 76.4481ZM96.3818 71.4383C96.134 71.6044 96.2266 72.1026 96.2429 72.3531C96.3049 73.2625 96.2661 74.176 96.2967 75.0874C96.3335 76.1983 96.3416 78.2342 97.4865 78.857C98.2693 79.2831 99.2434 78.6447 99.8682 78.2104C100.925 77.4752 101.895 76.6217 102.967 75.9042C104.238 75.0534 106.646 73.8772 107.861 75.4775C108.52 76.3433 108.427 77.6339 108.263 78.6413C108.047 79.9706 107.54 81.2312 107.037 82.4735C105.998 85.039 104.914 87.646 104.337 90.3619C105.654 89.5784 106.678 88.4505 107.827 87.4588C108.68 86.7243 109.945 85.8803 110.142 84.683C110.186 84.4127 110.448 84.2194 110.628 84.039C110.862 83.8035 111.027 83.5646 111.176 83.2644C111.503 82.6008 111.716 81.884 111.85 81.1584C112.132 79.635 111.998 78.1185 111.738 76.6047C111.621 75.9192 111.793 75.1848 111.634 74.517C111.523 74.0535 111.195 74.0814 110.76 73.9759C109.194 73.5961 107.625 73.2278 106.057 72.8521C105.42 72.6989 104.728 72.4123 104.067 72.4219C103.524 72.4294 103.068 72.7534 102.6 72.9875C101.831 73.3728 100.609 74.046 99.726 73.6628C98.6968 73.2169 99.8961 72.2102 99.3802 71.7337C99.0262 71.407 97.9692 71.603 97.4893 71.522C97.2265 71.4778 96.6228 71.2763 96.3818 71.4383ZM112.571 84.5931C111.823 84.7109 111.39 85.0356 110.978 85.6727C110.559 86.32 110.509 86.6406 111.106 87.147C111.75 87.6936 112.424 88.2327 113.107 88.7248C113.974 89.3484 114.936 89.8207 115.792 90.4599C116.167 90.7397 117.87 88.5458 118.165 88.245C118.573 87.8304 118.991 87.4139 119.428 87.032C119.588 86.8925 120.089 86.5691 120.089 86.3316C120.089 85.7312 118.759 85.1948 118.331 85.0294C117.372 84.6592 116.367 84.5101 115.345 84.4944C114.439 84.4808 113.469 84.4515 112.571 84.5931ZM115.906 81.9534C115.203 82.3265 114.47 82.6409 113.762 83.0065C113.512 83.1358 111.931 83.8001 112.01 84.1976C113.79 84.0847 115.561 83.7831 117.335 84.1275C118.132 84.2827 118.891 84.5421 119.557 85.0206C120.061 85.3834 120.445 86.0797 120.946 85.4596C119.924 84.8804 119.004 84.1126 118.097 83.3672C117.701 83.0405 117.292 82.7335 116.89 82.4163C116.65 82.2278 116.255 81.7676 115.906 81.9534ZM73.8152 73.2795C73.2584 73.3578 72.7159 73.5055 72.1693 73.6321C69.9544 74.1454 67.7312 74.6055 65.5223 75.1487C61.1165 76.2316 56.5789 77.2758 52.3779 79.0109C52.7311 79.4016 53.6671 79.1184 54.1054 79.0422C54.9636 78.8924 55.7963 78.6304 56.6441 78.4323C57.4733 78.239 58.3056 78.0082 59.1416 77.8469C59.5266 77.7727 60.2059 77.6754 60.2214 78.2526C60.2434 79.0714 58.6533 79.6834 58.0697 79.9829C57.4457 80.3028 56.8414 80.6561 56.2473 81.0284C55.7777 81.3225 54.9116 81.7145 54.7592 82.2992C56.2833 81.6533 57.8084 81.01 59.3231 80.3423C59.8937 80.0911 60.4717 79.8542 61.0149 79.5472C61.377 79.3424 61.8431 78.9836 62.272 78.951C62.8527 78.9074 62.9489 79.4349 62.7043 79.8604C62.3981 80.3933 61.7662 80.6935 61.3015 81.0665C60.7091 81.5416 60.1847 82.1025 59.6513 82.6403C59.2085 83.0875 58.6383 83.5272 58.4072 84.1309C59.2032 84.3971 60.1077 83.5435 60.6926 83.1215C61.6118 82.4585 62.4679 81.737 63.3449 81.0209C63.7935 80.654 64.3283 80.0605 64.9187 79.9509C65.6671 79.812 65.605 80.6683 65.4236 81.14C65.018 82.1937 64.0685 83.0732 64.0006 84.2616C63.9589 84.9934 64.5784 84.715 64.9919 84.4216C65.6881 83.9267 66.1593 83.1739 66.7911 82.6069C68.3126 81.2414 70.0545 80.0768 71.9365 79.2682C72.2735 79.1232 72.3946 78.6031 72.4967 78.2907C72.6499 77.8251 72.8255 77.3725 73.0093 76.9171C73.4116 75.9192 73.7417 74.8403 74.306 73.918C74.4632 73.6614 74.8689 73.3993 74.5333 73.2482C74.3509 73.1659 74.0038 73.253 73.8152 73.2795ZM89.882 71.5915C89.3116 71.6582 88.735 71.652 88.164 71.7119C87.2314 71.8106 87.6378 72.9446 87.488 73.628C87.0456 75.6401 84.9137 76.02 83.2978 75.0711C82.3891 74.5368 81.8432 73.771 81.3544 72.8759C81.076 72.3654 80.8684 72.283 80.2919 72.411C79.8964 72.4988 79.5363 72.4797 79.134 72.509C78.6276 72.5458 78.5834 72.6533 78.5732 73.1352C78.5636 73.5634 78.5024 73.8602 78.2172 74.2073C77.674 74.8676 76.7632 75.3025 75.9873 75.6347C75.2106 75.9675 74.3298 76.2146 73.903 77.0008C73.6879 77.397 73.4572 77.87 73.3952 78.3207C73.3272 78.8135 73.4939 79.1184 73.2067 79.5724C72.6104 80.5165 72.3368 81.5484 72.0352 82.6212C71.9372 82.9711 71.8977 83.1147 72.2796 83.2107C72.8269 83.3488 73.6042 83.1392 74.1658 83.1174C74.566 83.1017 74.8002 82.3952 74.9302 82.1086C75.1834 81.5518 75.4944 81.025 75.8048 80.4981C76.5093 79.3042 77.2629 78.1185 78.1831 77.0757C78.8781 76.2888 79.9032 75.3086 80.7929 76.4147C81.66 77.4929 82.2849 78.7549 83.327 79.695C84.2439 80.5213 85.1887 80.5342 86.1403 79.7514C87.0762 78.9802 87.7875 77.9279 88.3695 76.8783C88.9991 75.7429 89.4736 74.5313 90.0869 73.3891C90.2788 73.0318 91.1671 72.0632 90.8962 71.6486C90.7138 71.3682 90.1386 71.5615 89.882 71.5915ZM94.6563 71.3437C94.1546 71.3675 93.6496 71.311 93.1479 71.3008C92.2399 71.2831 91.4802 71.3151 91.0242 72.1857C90.6212 72.9535 90.2781 73.771 89.9113 74.5579C89.1128 76.267 88.3294 78.0157 87.1041 79.4703C86.0184 80.7582 84.6156 81.4075 83.2032 80.1769C82.5769 79.631 82.1011 78.9271 81.6519 78.2349C81.2918 77.6801 80.8807 76.7034 80.2769 76.38C79.6044 76.0193 78.8339 76.847 78.4227 77.2956C77.7305 78.0504 77.1526 78.9374 76.5972 79.7943C76.1949 80.4158 75.8096 81.0509 75.4182 81.6798C75.2596 81.9344 74.613 82.7682 74.8281 83.0861C75.0438 83.4047 76.0969 83.1868 76.4011 83.1576C77.1281 83.0881 77.8544 83.0636 78.582 83.001C80.8453 82.8063 83.0745 82.3088 85.3439 82.176C86.838 82.0882 88.311 81.7996 89.7819 81.5369C91.2127 81.2816 92.6524 81.1074 94.0675 80.7697C94.9 80.5717 95.7331 80.3729 96.5635 80.1673C96.8515 80.0959 98.2094 79.9019 98.2938 79.5282C97.3586 79.3648 96.8678 79.002 96.5356 78.0899C96.1204 76.9464 96.0721 75.6728 96.0367 74.468C96.0231 74.0051 96.021 73.5409 96.021 73.0781V72.5213C96.0204 72.1891 96.164 71.586 95.8645 71.3553C95.5874 71.1422 94.9776 71.3287 94.6563 71.3437ZM113.223 78.7257C113.263 80.232 112.993 81.7499 112.375 83.1256C113.022 83.2297 113.792 82.4177 114.334 82.1454C114.543 82.0406 115.928 81.5375 115.464 81.153C114.611 80.4457 114.052 79.4567 113.223 78.7257ZM131.777 79.9502C131.967 80.3246 131.733 80.8004 131.606 81.1557C132.593 81.3926 133.576 81.626 134.571 81.8275C135.321 81.9793 135.059 82.4292 134.409 82.3979C133.503 82.355 132.661 81.9711 131.761 81.9215C130.903 81.8738 130.802 82.6232 130.071 82.7675C130.095 82.355 130.429 82.0692 130.668 81.7601C130.274 81.5573 129.87 81.3687 129.487 81.1455C129.289 81.0304 128.741 80.5451 128.952 80.2878C129.165 80.0278 129.724 80.5152 129.922 80.622C130.205 80.7752 130.768 81.1114 131.101 81.0148C131.556 80.8827 131.461 80.2286 131.777 79.9502ZM117.552 70.1362C117.151 70.1641 116.715 70.0293 116.336 70.2056C115.957 70.3812 115.506 70.7665 115.19 71.0333C114.883 71.292 114.732 71.6057 114.35 71.7582C113.971 71.9107 113.581 71.8971 113.434 72.3627C113.779 72.4573 114.457 72.3313 114.727 72.5852C115.12 72.9542 114.434 73.3605 114.15 73.4769C113.741 73.6437 113.408 73.5892 112.99 73.5579C112.809 73.545 112.811 73.4892 112.662 73.579C112.11 73.9126 112.491 75.099 112.67 75.5312C113.546 77.6495 116.537 76.9361 118.262 76.7197C117.713 76.1663 116.814 75.5564 116.769 74.6872C116.755 74.4285 116.819 73.9663 117.151 73.9446C117.417 73.9275 117.735 74.3291 117.901 74.4871C118.391 74.9554 119.025 75.7327 119.734 75.8001C120.681 75.8899 121.41 74.355 121.803 73.6852C121.32 73.5947 120.791 73.6001 120.51 73.1264C120.176 72.5628 120.171 71.6997 120.176 71.0653C120.181 70.5255 120.353 69.9347 119.632 69.9081C118.967 69.8843 118.223 70.0899 117.552 70.1362ZM53.9338 71.5213C53.7957 71.8222 53.1959 71.9406 52.9326 72.021C51.9309 72.3273 50.9527 72.7159 49.9762 73.0971C48.0046 73.867 46.0545 74.7171 44.2542 75.8484C43.9178 76.0601 44.0826 75.6524 44.17 75.5047C44.3659 75.1752 44.7775 74.9418 45.0849 74.7396C45.9169 74.193 46.7981 73.8084 47.7181 73.4429C49.5589 72.7105 51.4277 71.9345 53.3156 71.3416C53.5346 71.2729 54.1193 71.1163 53.9338 71.5213ZM76.8 73.0127C76.4338 73.0508 76.005 72.9671 75.653 73.0869C75.1943 73.2428 75.2705 73.5573 75.1344 73.9446C74.9043 74.6021 74.6579 75.2542 74.4176 75.9083C75.3066 75.8668 76.1588 75.1623 76.9123 74.7573C77.3391 74.5279 78.8223 73.7662 78.3751 73.0692C78.0919 72.6274 77.2064 72.9705 76.8 73.0127ZM86.921 71.8664C86.3704 71.8569 85.7652 72.0237 85.2078 72.0509C84.4604 72.0883 83.7246 72.2306 82.9778 72.2646C82.4871 72.2878 82.0052 72.3885 81.5192 72.4546C82.0024 73.5743 82.9459 74.5545 84.1309 74.9601C85.0662 75.2801 86.3751 75.3345 87.0136 74.4489C87.3812 73.9391 87.9822 71.8855 86.921 71.8664ZM115.596 67.2402C114.996 67.6392 114.514 68.2112 114.013 68.721C112.756 69.9987 111.456 71.3668 110.912 73.1182C110.837 73.3578 111.404 73.5702 111.558 73.5797C111.882 73.5988 111.947 73.4354 112.074 73.1618C112.389 72.4838 112.51 71.7262 113.014 71.1476C113.628 70.4431 114.366 69.7557 115.079 69.1499C115.563 68.7387 116.749 68.1595 116.889 67.4788C117.053 66.6746 115.96 66.9986 115.596 67.2402ZM100.106 71.8944C99.7668 71.993 99.7403 72.3075 99.6627 72.6458C99.3502 74.0065 102.507 72.5219 102.947 72.3C102.801 71.863 101.362 71.9427 101.029 71.9257C100.769 71.9121 100.358 71.8215 100.106 71.8944ZM118.754 72.6009C118.287 72.6193 118.502 70.7079 119.034 70.8999C119.49 71.0646 119.054 72.5893 118.754 72.6009ZM52.9901 70.403C52.2738 71.0217 51.1492 71.1048 50.2586 71.3035C48.9462 71.5955 47.6454 71.9685 46.3436 72.3048C45.5217 72.5172 45.9844 72.0107 46.396 71.8208C47.1036 71.4934 47.9048 71.3185 48.6611 71.1388C49.4799 70.9434 50.3166 70.8134 51.1308 70.6011C51.6945 70.4534 52.4216 70.0769 52.9901 70.403ZM75.2746 57.1107C76.0703 57.2569 76.8653 57.5116 77.563 57.9288C78.1409 58.2741 78.1178 58.8114 77.3854 58.4997C73.969 57.0451 69.7304 57.9262 66.3943 59.2142C66.0262 59.3562 66.0535 59.0463 66.1648 58.8075C66.318 58.4784 66.6453 58.2874 66.9596 58.1345C67.9037 57.6753 68.9919 57.4156 70.0184 57.2248C71.7296 56.9068 73.5552 56.7951 75.2746 57.1107ZM75.7735 55.0215C76.2078 55.1393 76.7067 55.4314 76.9722 55.802C77.2826 56.2356 77.0355 56.4573 76.6046 56.2023C76.1234 55.9176 75.683 55.6338 75.131 55.4835C74.8396 55.4042 74.8512 55.2213 75.0609 55.0607C75.2569 54.9104 75.5612 54.9637 75.7735 55.0215Z" fill="#B1B1B1"/>
<path fill-rule="evenodd" clip-rule="evenodd" d="M173.646 91.0103C178.222 90.6461 182.586 92.3519 186.243 95.0099C190.956 98.4358 194.95 103.336 197.654 108.499C197.942 108.72 198.225 108.948 198.506 109.177C200.011 110.404 201.481 111.699 202.785 113.141C203.512 113.945 205.421 115.902 204.592 117.136C204.417 117.398 204.127 117.549 203.838 117.652C203.027 117.943 202.183 118.09 201.383 118.429C200.396 118.849 199.372 119.436 198.74 120.331C198.559 120.586 198.512 120.887 198.271 120.999C198.015 121.118 197.531 121.071 197.251 121.099C196.687 121.154 196.124 121.209 195.56 121.264C194.237 121.394 192.853 121.409 191.558 121.729L185.6 123.2C184.382 123.501 182.982 123.667 181.827 124.161C180.102 124.899 178.457 125.98 176.807 126.871C176.01 127.302 175.212 127.732 174.414 128.163C174.024 128.373 173.757 128.376 173.301 128.412L170.006 128.665C169.475 128.706 169.219 128.92 169.15 128.388L168.384 122.539L167.979 119.445C167.955 119.261 167.962 118.35 167.812 118.24C167.717 118.171 167.162 118.319 167.059 118.332L165.564 118.515C164.487 118.647 163.41 118.779 162.333 118.911C162.246 118.922 161.761 118.916 161.707 118.988C161.643 119.071 161.764 119.553 161.775 119.656C161.889 120.742 162.003 121.828 162.118 122.914C162.131 123.04 162.284 123.624 162.203 123.728C162.148 123.8 161.742 123.808 161.66 123.822C160.62 123.991 159.581 124.161 158.542 124.331C157.798 124.453 156.826 124.447 156.122 124.726C155.719 124.887 155.319 125.298 154.97 125.555L149.902 129.285C149.134 129.851 148.098 129.706 147.162 129.778L136.366 130.601C136.374 130.264 136.383 129.928 136.392 129.592C136.44 127.81 136.487 126.029 136.535 124.247L136.597 121.917C136.601 121.769 136.542 121.338 136.638 121.228C136.766 121.084 137.339 121.021 137.517 120.968C138.112 120.792 138.708 120.616 139.304 120.439C141.052 119.921 142.8 119.404 144.548 118.887C146.276 118.375 148.003 117.863 149.731 117.352C150.322 117.177 150.913 117.002 151.504 116.827C151.641 116.786 152.117 116.732 152.212 116.617C152.332 116.472 152.278 115.851 152.298 115.667C152.391 114.766 152.525 113.87 152.688 112.98C153.862 106.559 156.607 100.037 161.697 95.7546C165.062 92.923 169.282 91.3574 173.646 91.0103ZM174.454 103.886C174 103.354 173.24 102.486 172.44 102.63C171.79 102.747 171.435 103.554 171.208 104.09C170.297 106.245 170.014 108.714 169.731 111.017C169.553 112.463 169.411 113.914 169.319 115.366C172.565 115.117 175.81 114.867 179.055 114.618C178.902 113.583 178.779 112.539 178.595 111.51C178.502 110.993 178.247 110.529 178.029 110.052C177.05 107.92 175.984 105.683 174.454 103.886Z" fill="#1E1E1E"/>
<path fill-rule="evenodd" clip-rule="evenodd" d="M219.508 61.8789L219.587 61.8803C221.741 61.9376 223.641 63.3241 225.114 64.7913C225.842 65.5168 226.506 66.3702 226.819 67.3632C227.18 68.5104 227.061 69.7723 226.787 70.9234C226.18 73.4678 225.438 76.0251 224.605 78.5041C224.194 79.7239 223.599 80.9198 223.289 82.1682C223.034 83.1967 224.109 83.9461 224.151 85.0032C224.192 86.0692 223.475 87.0711 222.49 87.4516C222.07 87.6143 221.562 87.4789 221.175 87.645C220.821 87.7968 220.697 88.2453 220.629 88.5897C220.537 89.0601 220.553 89.5291 220.58 90.0028C220.596 90.2928 220.524 90.7659 220.665 91.0245C220.762 91.2022 220.939 91.2607 221.092 91.3819C221.299 91.548 221.438 91.7542 221.62 91.9448C221.921 92.2593 222.211 92.4295 222.292 92.8882C222.336 92.7841 222.379 92.68 222.422 92.5758C222.647 92.9863 222.813 93.183 222.6 93.5723C223.261 93.507 223.653 94.7077 223.827 95.1624C224.144 95.9955 224.362 96.8607 224.68 97.6945C225.116 98.8374 225.689 99.9646 225.967 101.161C226.201 102.165 226.386 103.197 226.594 104.209C226.711 104.779 226.813 105.358 227.027 105.901C227.11 106.112 227.265 106.253 227.361 106.442C227.491 106.699 227.44 106.835 227.446 107.116C227.458 107.62 227.774 107.946 227.875 108.434C227.981 108.955 228.068 109.483 228.175 110.005C228.391 111.058 228.792 112.109 228.889 113.175C229 114.413 229.241 115.635 229.362 116.873C229.467 117.956 229.288 119.118 229.514 120.164C229.714 121.093 229.466 121.943 229.377 122.865C229.355 123.1 229.716 124.494 229.136 124.226C229.245 124.555 229.397 124.711 229.405 125.072C229.414 125.409 229.326 125.756 229.255 126.083C229.118 126.715 229.027 127.404 228.758 127.996C228.454 128.666 227.992 128.746 227.362 128.976C226.936 129.132 226.169 129.686 225.833 129.093C225.633 129.702 225.242 129.281 224.804 129.247C224.807 129.247 224.553 129.341 224.506 129.348C224.351 129.368 224.17 129.296 224.016 129.283C223.634 129.251 223.259 129.302 222.885 129.38C222.024 129.558 221.191 129.805 220.316 129.929C218.609 130.173 216.936 130.057 215.226 130.164C211.879 130.372 208.478 130.198 205.129 130.107C204.77 130.098 204.382 130.148 204.027 130.093C203.645 130.033 203.561 129.852 203.264 129.671C202.768 129.37 202.219 129.663 201.705 129.773C200.197 130.096 198.621 130.119 197.1 130.432C194.011 131.067 191.165 132.319 188.206 133.376C186.923 133.833 185.418 134.575 184.034 134.607C182.357 134.644 182.754 132.992 183.062 131.93C182.093 132.187 180.572 133.362 179.587 132.68C178.414 131.867 179.907 130.516 179.977 129.561C177.88 129.996 175.502 130.951 173.373 130.175C172.963 130.025 172.607 129.71 172.167 129.659C171.71 129.605 171.227 129.767 170.765 129.764C169.712 129.757 168.69 129.617 167.637 129.747C165.291 130.036 162.978 130.194 160.612 130.256C158.231 130.319 155.85 130.46 153.467 130.454C152.258 130.452 151.026 130.308 149.82 130.372C149.346 130.397 148.326 130.742 147.993 130.26C147.659 130.661 147.375 130.393 146.946 130.437C147.026 130.429 146.723 130.605 146.678 130.621C146.452 130.705 146.241 130.68 146.006 130.677C145.379 130.671 144.793 130.964 144.17 130.936C144.012 130.929 143.893 130.883 143.759 130.829C143.727 130.816 143.735 130.68 143.684 130.668C143.379 130.6 143.458 130.786 143.264 130.881C143.049 130.985 142.732 130.816 142.853 131.138C142.271 131.112 141.719 131.309 141.189 130.963C141.439 131.517 140.564 131.057 140.335 131.047C139.954 131.032 139.622 131.222 139.242 131.266C138.787 131.319 138.33 131.108 137.885 131.236C137.537 131.337 137.417 131.58 137.054 131.456C136.746 131.351 136.553 131.121 136.403 130.872C136.197 130.526 136.171 130.372 135.673 130.366C135.303 130.361 134.932 130.441 134.56 130.44C134.133 130.439 133.664 130.394 133.274 130.597C132.854 130.816 132.607 131.149 132.141 131.32C130.046 132.091 127.747 131.886 125.562 131.874C124.64 131.868 123.963 131.952 123.705 130.901C123.486 130.012 123.398 129.082 123.189 128.186C122.934 127.088 122.653 126.069 122.086 125.087C121.535 124.136 121.072 123.152 120.593 122.163C119.597 120.106 118.21 118.356 116.664 116.685C116.076 116.05 115.402 115.342 115.375 114.428C115.355 113.638 115.703 112.82 116.159 112.19C116.566 111.629 117.237 110.996 117.996 111.126C118.453 111.205 118.753 111.574 119.094 111.851C119.467 112.154 119.873 112.359 120.322 112.524C121.371 112.909 122.249 113.33 123.157 113.993C124.075 114.665 124.933 115.417 125.727 116.231C127.252 117.795 128.813 119.419 129.689 121.443C130.034 122.241 130.255 123.01 130.49 123.837C130.721 124.649 131.351 124.426 132.059 124.309C132.921 124.167 133.787 124.091 134.656 124C134.983 123.966 135.444 123.957 135.64 123.647C135.857 123.306 135.608 122.865 135.589 122.512C135.578 122.324 135.641 122.184 135.657 122C135.674 121.791 135.612 121.599 135.612 121.391C135.612 120.942 135.822 120.544 136.171 120.272C136.823 119.764 137.774 119.461 138.546 119.181C139.601 118.799 140.73 118.611 141.816 118.339C143.039 118.032 144.269 117.756 145.498 117.476C146.706 117.203 147.912 116.921 149.133 116.71C149.849 116.586 150.625 116.632 151.32 116.405C152.057 116.165 151.935 115.423 151.932 114.765C151.929 113.678 152.064 112.56 152.222 111.486C152.561 109.202 153.367 106.967 154.1 104.785C154.806 102.684 155.681 100.666 157.125 98.9613C158.53 97.3011 160.255 95.7981 162.045 94.5648C163.909 93.279 165.984 92.3498 167.93 91.2022C167.505 90.8768 166.998 90.5991 166.754 90.0981C166.477 89.5325 166.594 88.8559 166.606 88.2508C166.619 87.5687 166.64 86.9697 166.884 86.319C167.017 85.963 167.532 85.2878 167.453 84.9005C167.321 84.2504 165.899 83.7753 165.376 83.5078C164.555 83.0885 163.732 82.6624 162.975 82.1321C162.249 81.6243 161.566 81.0124 161.126 80.2324C161.001 80.0111 160.898 79.7783 160.819 79.5374C160.73 79.2678 160.792 79.1766 160.523 79.1569C160.094 79.1249 159.45 79.5564 159.088 79.7464C157.223 80.7286 155.174 82.0504 152.972 81.9626C152.174 81.9307 151.276 81.6795 150.994 80.8463C150.622 79.7498 151.399 78.6164 152.079 77.8241C150.751 78.0331 148.302 78.6859 147.253 77.5001C146.555 76.7098 147.082 75.456 147.667 74.7713C148.441 73.866 149.545 73.3153 150.564 72.7394C149.313 72.2623 147.929 71.9573 146.829 71.1596C145.777 70.3958 145.907 69.2237 146.738 68.3232C147.626 67.3609 149.179 66.8679 150.401 66.5107C151.899 66.0724 153.388 66.1076 154.931 66.137C157.702 66.1897 160.082 67.2114 162.355 68.7561C163.556 69.5729 164.741 70.4544 165.807 71.4441C166.807 72.3719 167.873 73.2343 168.858 74.1723C169.812 75.081 170.563 76.2068 171.57 77.0563C172.426 77.7778 173.366 78.8009 174.453 79.1215C175.607 79.4611 176.646 80.0234 177.809 80.3576C179.129 80.7367 180.263 81.3711 181.486 81.9769C186.62 84.5166 192.131 86.1692 197.542 87.9928C200.31 88.9253 203.097 89.5829 205.923 90.2955C207.342 90.6529 208.66 90.8435 210.125 90.7788C210.463 90.7645 210.785 90.7557 211.118 90.8026C211.363 90.8367 211.548 90.9292 211.766 90.7829C212.08 90.5732 212.198 90.0273 212.385 89.717C211.343 89.3936 210.322 89.0438 209.847 87.9751C209.547 87.3019 209.391 86.5164 209.26 85.7942C209.19 85.4055 209.188 85.0134 209.128 84.6241C209.095 84.409 208.992 84.1851 209.001 83.9652C208.977 84.0877 208.2 83.6861 208.088 83.6112C207.653 83.3233 207.574 82.7427 207.578 82.2526C207.582 81.6992 207.749 81.0914 208.125 80.6714C208.302 80.4726 208.514 80.3242 208.773 80.2494C208.956 80.1956 209.198 80.2657 209.359 80.2119C210.077 79.9744 210.157 78.1985 210.259 77.5518C210.483 76.1272 210.707 74.7672 211.191 73.401C212.074 70.9111 213.21 68.4913 214.562 66.2244C215.722 64.2818 216.88 61.9066 219.429 61.8789H219.508ZM197.471 121.692C196.439 121.87 195.451 122.236 194.454 122.545C193.523 122.834 192.58 123.019 191.625 123.206C189.724 123.58 187.782 123.922 185.91 124.41C185.382 124.547 185.105 124.857 184.645 125.073C184.303 125.233 183.984 125.071 183.628 125.057C182.856 125.028 181.999 125.28 181.256 125.468C179.502 125.911 177.946 126.681 176.359 127.532C176.216 127.608 175.256 128.047 175.302 128.23C175.339 128.378 176.559 127.979 176.753 127.95C177.736 127.8 178.697 127.49 179.672 127.297C180.473 127.139 181.283 127.033 182.081 126.857C182.968 126.662 184.859 125.982 184.934 127.448C185.015 129.034 183.266 129.521 182.214 130.26C182.332 130.462 184.018 129.795 184.227 129.728C184.945 129.497 185.61 129.079 186.341 128.902C187.612 128.593 187.458 129.997 186.756 130.622C185.977 131.315 184.687 131.525 184.256 132.593C184.823 132.797 185.564 132.413 186.084 132.222C186.768 131.972 187.454 131.724 188.143 131.486C189.686 130.948 191.153 130.209 192.705 129.698C195.89 128.649 199.257 128.348 202.587 128.162C202.29 127.01 201.965 125.866 201.699 124.707C201.585 124.211 201.48 123.713 201.394 123.211C201.333 122.862 201.384 122.027 201.144 121.752C200.852 121.418 200.09 121.888 199.675 121.879C199.27 121.87 198.973 121.661 198.598 121.595C198.242 121.532 197.82 121.631 197.471 121.692ZM137.627 128.356C137.627 128.906 137.531 129.573 138.255 129.638C138.84 129.69 139.985 129.757 140.452 129.341C140.005 129.122 139.496 129.084 139.021 128.959C138.526 128.827 138.069 128.612 137.627 128.356ZM149.57 118.328C149.351 118.33 148.979 118.575 148.778 118.643C148.411 118.768 148.038 118.873 147.662 118.973C146.535 119.271 145.083 119.318 144.566 120.529C144.307 121.132 144.128 122.686 143.231 122.68C142.433 122.675 141.955 121.523 141.386 121.113C140.797 120.69 139.865 120.978 139.23 121.162C138.586 121.349 137.585 121.588 137.657 122.406C137.709 122.993 137.815 123.528 137.81 124.129C137.804 124.893 137.74 125.655 137.74 126.42C138.192 125.799 138.587 124.552 139.389 124.302C140.2 124.05 140.658 125.466 140.868 126.009C141.129 126.682 141.457 127.444 141.478 128.173C141.484 128.402 141.345 129.03 141.504 129.219C141.645 129.386 142.188 129.264 142.363 129.246C143.45 129.133 144.53 128.993 145.619 128.898C146.179 128.85 146.331 128.727 146.276 128.125C146.233 127.652 146.22 127.201 146.279 126.727C146.543 124.608 147.848 122.669 150.054 122.301C151.383 122.08 152.935 122.242 154.262 122.455C154.774 122.537 155.329 122.784 155.848 122.763C156.232 122.747 156.108 122.725 156.187 122.364C156.242 122.111 156.36 121.895 156.552 121.72C156.704 121.582 156.897 121.66 157.04 121.48C157.143 121.348 157.128 121.17 157.176 121.019C157.272 120.725 157.445 120.329 157.788 120.255C158.34 120.136 158.927 120.876 159.206 121.257C159.494 121.652 159.581 122.829 160.044 122.984C160.578 123.161 161.214 122.46 161.326 122.019C161.476 121.425 161.287 120.783 161.196 120.195C161.19 120.153 161.164 119.762 161.135 119.736C161.057 119.668 160.469 119.687 160.365 119.682C159.853 119.657 159.34 119.656 158.828 119.655C156.819 119.65 154.851 119.452 152.855 119.241C153.145 119.715 153.642 120.49 153.132 120.989C152.755 121.359 152.074 121.174 151.6 121.25C150.93 121.358 149.801 121.993 149.163 121.529C148.263 120.873 149.28 119.747 149.615 119.128C149.686 118.995 149.951 118.528 149.839 118.372C149.741 118.237 149.713 118.327 149.57 118.328ZM134.59 125.611C134.131 125.751 133.668 125.886 133.199 125.99C132.649 126.112 131.795 125.994 131.528 126.599C131.323 127.06 131.425 127.803 131.59 128.262C131.78 128.787 132.225 128.922 132.749 128.962C133.363 129.009 133.984 128.91 134.589 128.826C134.828 128.793 135.081 128.734 135.324 128.733C135.468 128.733 135.759 128.864 135.887 128.757C136.052 128.617 135.943 127.825 135.93 127.635C135.898 127.165 135.808 126.7 135.784 126.229C135.767 125.89 135.894 125.43 135.498 125.358C135.251 125.313 134.805 125.546 134.59 125.611ZM171.678 116.298C171.335 116.357 170.993 116.4 170.645 116.394C170.431 116.391 170.173 116.318 169.975 116.436C169.608 116.654 169.663 117.227 169.675 117.585C169.691 118.019 169.729 118.459 169.775 118.892C169.819 119.304 170.045 119.985 169.725 120.338C169.5 120.091 169.388 119.284 168.953 119.313C168.474 119.346 168.695 120.111 168.738 120.385C168.973 121.9 169.24 123.417 169.45 124.936C169.55 125.658 169.678 126.376 169.745 127.102C169.79 127.589 169.805 128.028 170.35 128.128C170.854 128.222 171.421 128.062 171.931 128.05C172.456 128.038 172.756 128.002 173.059 127.527C172.335 127.369 171.19 127.465 170.782 126.7C170.307 125.807 171.309 125.004 171.802 124.394C172.181 123.925 172.955 122.367 173.657 123.293C173.91 123.626 173.956 124.134 174.084 124.522C174.291 125.152 174.545 125.773 174.794 126.387C177.073 125.21 179.411 124.149 181.896 123.489C181.262 122.418 180.478 121.453 180.004 120.292C179.472 118.99 179.032 117.654 178.489 116.357C177.627 116.86 176.706 115.641 175.849 115.592C174.494 115.514 173.006 116.067 171.678 116.298ZM158.181 125.07C157.709 125.351 157.014 125.899 156.901 126.465C156.705 127.443 157.821 126.789 158.165 126.574C158.886 126.127 159.593 125.984 160.422 126.259C161.484 126.614 162.463 127.212 163.603 126.758C164.17 126.532 165.429 126.048 165.089 125.181C164.855 124.584 164.17 125.097 163.808 125.31C162.86 125.871 162.075 125.516 161.128 125.111C160.18 124.707 159.114 124.514 158.181 125.07ZM124.539 120.049C124.16 120.587 124.931 120.471 125.269 120.523C125.977 120.633 126.706 121.197 126.511 121.996C126.321 122.775 125.576 123.262 125.434 124.08C125.312 124.782 125.429 125.67 126.107 126.056C126.488 126.272 127.32 126.361 127.703 126.113C128.288 125.733 127.561 125.167 127.175 124.98C126.661 124.73 126.248 124.596 126.501 123.941C126.811 123.142 127.412 122.53 127.358 121.616C127.314 120.859 126.915 120 126.187 119.685C125.666 119.46 124.894 119.546 124.539 120.049ZM176.316 117.73C176.972 117.702 176.998 118.494 176.965 118.884C176.919 119.416 177.016 119.985 177.028 120.519C177.043 121.228 177.19 123.546 175.939 123.202C175.134 122.98 174.472 122.209 173.824 121.713C173.229 121.256 171.716 120.709 171.618 119.844C171.507 118.866 172.701 118.684 173.384 118.529C174.36 118.307 175.308 117.773 176.316 117.73ZM173.123 91.972C172.083 92.0721 171.049 92.2266 170.06 92.5717C169.39 92.8059 168.363 92.9733 167.888 93.5465C167.478 94.0427 167.655 94.7499 167.523 95.336C167.342 96.1283 166.795 96.0201 166.264 95.5252C165.63 94.9323 165.446 94.5035 164.562 95.0596C162.732 96.2106 161.281 97.9103 159.83 99.4847C160.952 99.8244 163.154 99.9067 163.526 101.31C163.731 102.077 163.116 102.635 162.564 103.054C161.851 103.594 161.107 104.094 160.41 104.656C159.76 105.181 158.301 107.269 157.888 105.432C157.633 104.296 158.112 103.121 157.909 101.998C157.026 103.422 156.129 104.842 155.321 106.309C154.632 107.558 154.231 108.894 153.901 110.275C154.416 110.309 154.952 110.047 155.461 110.201C155.951 110.35 156.181 110.814 156.215 111.295C156.274 112.11 155.897 112.939 155.708 113.722C155.578 114.26 155.429 115.479 154.775 115.654C154.029 115.853 153.561 114.705 153.228 114.239C152.911 114.726 152.917 115.438 152.87 115.997C152.839 116.38 152.625 117.097 153.056 117.31C153.46 117.508 154.311 117.259 154.744 117.241C155.545 117.207 156.362 117.142 157.163 117.166C157.92 117.189 159.035 117.594 159.33 116.662C159.532 116.029 159.709 113.75 160.783 114.987C161.261 115.535 161.634 116.161 162.095 116.72C162.56 117.284 162.983 117.321 163.678 117.293C165.052 117.236 166.395 117.5 167.74 117.713C168.92 117.901 168.765 116.899 168.748 116.006C168.721 114.623 168.995 113.177 169.145 111.802C169.5 108.531 170.23 105.3 171.352 102.207C170.414 101.887 168.73 103.177 168.035 102.197C167.465 101.391 168.198 100.281 168.497 99.5283C168.869 98.5883 169.057 97.606 169.664 96.7736C169.856 96.5101 170.129 96.1582 170.5 96.2467C170.818 96.3229 170.945 96.7286 171.124 96.958C171.693 97.6857 172.419 98.2309 172.925 99.0239C173.234 99.5092 173.474 100.028 173.575 100.598C173.602 100.754 173.567 101.075 173.677 101.207C174.019 101.614 175.096 101.608 175.574 101.858C177.208 102.71 177.782 105.193 178.416 106.758C178.595 107.2 178.772 107.641 178.868 108.109C178.931 108.421 178.927 108.818 179.097 109.098C179.467 109.71 180.615 109.163 181.178 109.069C182.123 108.91 183.063 108.759 184.012 108.626C184.591 108.545 185.433 108.334 185.874 108.847C186.331 109.379 186.068 110.216 185.838 110.787C185.464 111.718 184.986 112.608 184.59 113.53C184.275 114.266 184.118 115.214 183.512 115.781C182.987 116.272 182.119 116.413 181.501 116.013C181.149 115.785 180.243 113.578 180.004 113.676C180.435 115.381 181.068 117.12 181.736 118.747C181.941 119.247 182.293 120.266 182.811 120.537C183.241 120.762 184.216 120.337 184.655 120.255C185.072 120.177 185.895 119.838 186.294 120.086C186.776 120.387 186.836 121.19 186.889 121.688C186.93 122.057 186.857 122.332 187.306 122.314C187.622 122.301 187.942 122.147 188.245 122.069C188.951 121.889 189.682 121.77 190.4 121.654C192.059 121.386 193.719 121.119 195.377 120.844C196.804 120.608 198.211 120.609 199.5 119.932C200.153 119.589 200.902 119.484 201.598 119.255C202.287 119.028 202.975 118.88 203.697 118.795C205.275 118.608 206.811 118.425 208.37 118.105C209.224 117.93 210.076 117.747 210.925 117.551C211.681 117.376 212.412 117.099 213.164 116.928C213.789 116.786 214.303 116.892 214.571 116.182C214.763 115.673 214.718 115.102 214.768 114.569C214.993 112.132 214.141 109.683 213.966 107.259C213.91 106.475 213.893 105.688 213.833 104.904C213.806 104.544 213.823 103.499 213.404 103.305C213.366 103.592 213.395 104.075 213.069 104.218C213.228 104.148 213.019 104.997 213.008 105.083C212.964 105.421 213.074 105.784 213.016 106.116C213.062 106.233 213.042 106.321 212.955 106.381C212.896 106.428 212.853 106.489 212.826 106.562C212.822 106.799 212.891 106.66 212.894 106.741C212.927 107.557 212.789 108.402 212.849 109.237C212.91 110.12 213.108 110.986 213.258 111.857C213.392 112.638 213.536 113.421 213.648 114.206C213.727 114.757 213.785 115.389 213.489 115.891C212.926 116.843 211.297 116.74 210.349 116.895C208.772 117.154 207.193 117.388 205.61 117.608C205.003 117.692 204.388 117.885 203.773 117.894C203.117 117.905 202.765 117.64 202.351 117.155C201.517 116.178 200.979 115.069 200.285 114.007C199.894 113.41 199.57 113.253 198.913 113.07C198.302 112.902 197.813 112.456 197.317 112.085C196.274 111.307 194.928 110.461 194.243 109.316C193.523 108.11 194.538 107.709 195.51 107.381C195.273 106.752 194.809 106.247 194.427 105.706C193.993 105.091 193.599 104.453 193.131 103.861C192.178 102.655 191.227 101.455 190.302 100.227C189.511 99.1764 188.712 98.1819 187.703 97.331C186.689 96.4768 185.561 95.7764 184.448 95.061C183.867 94.6873 182.846 93.7323 182.112 93.8303C181.398 93.9249 181.117 95.2529 180.939 95.8111C180.735 96.4516 180.663 97.3447 180.186 97.849C179.486 98.5896 178.76 97.4229 178.427 96.8845C177.815 95.8996 177.189 94.9228 176.578 93.9365C176.301 93.4866 175.898 93.0591 175.734 92.5493C175.732 92.5431 175.654 92.1048 175.732 92.166L175.738 92.1708L175.732 92.1647C175.557 91.9918 174.913 91.9557 174.672 91.9353L174.649 91.9332C174.142 91.8849 173.628 91.923 173.123 91.972ZM166.308 119.603C165.724 119.599 165.141 119.668 164.56 119.715C164.049 119.757 163.58 119.678 163.07 119.648C162.439 119.61 162.127 119.676 162.272 120.328C162.378 120.802 162.505 121.435 162.992 121.635C163.65 121.906 164.535 121.87 165.236 121.972C165.751 122.047 166.264 122.115 166.777 122.201C167.116 122.258 167.291 122.318 167.451 121.932C167.584 121.609 167.498 121.177 167.453 120.843C167.418 120.587 167.438 120.137 167.318 119.909C167.137 119.568 166.664 119.605 166.308 119.603ZM193.553 113.102C194.412 113.887 194.99 114.891 195.638 115.842C196.034 116.423 196.808 117.351 196.246 118.055C195.767 118.655 194.653 118.518 193.983 118.547C192.93 118.593 192.069 119.069 191.067 119.314C188.543 119.933 190.639 115.688 190.988 114.802C191.234 114.181 191.487 113.562 191.784 112.963C191.918 112.693 192.185 111.905 192.518 111.802C193 111.653 193.248 112.823 193.553 113.102ZM171.864 104.177C171.462 104.944 171.398 106.006 171.207 106.844C170.626 109.406 170.286 112.015 170.019 114.627C171.348 114.1 172.752 114.063 174.155 113.934C175.173 113.84 176.107 113.733 177.124 113.776C177.297 113.784 177.796 113.872 177.939 113.725C178.131 113.526 177.898 112.974 177.842 112.766C177.533 111.635 177.398 110.467 177.047 109.342C176.69 108.196 176.256 107.052 175.794 105.944C175.456 105.133 174.992 104.343 174.173 103.945C173.456 103.597 172.309 103.326 171.864 104.177ZM166.388 109.163C166.936 109.99 167.63 110.713 168.165 111.546C168.544 112.138 168.988 113.232 168.077 113.607C167.758 113.74 167.38 113.682 167.045 113.688C166.526 113.697 166.013 113.742 165.494 113.729C165.003 113.718 164.517 113.659 164.027 113.633C163.718 113.617 163.33 113.64 163.059 113.463C162.33 112.987 162.857 112.016 163.091 111.395C163.341 110.735 163.678 110.111 164.002 109.485C164.228 109.051 164.564 108.167 165.076 107.99C165.683 107.781 166.135 108.782 166.388 109.163ZM192.952 99.8026C194.156 101.203 195.201 102.731 196.186 104.291C196.666 105.053 197.133 105.823 197.599 106.593C197.903 107.097 198.132 107.742 198.503 108.199C199.351 109.24 199.586 106.968 199.711 106.474C200.172 104.652 200.741 102.846 201.249 101.035H200.729C198.656 101.035 196.669 101.004 194.652 100.393C194.081 100.22 193.56 99.8448 192.952 99.8026ZM188.575 100.156C189.23 100.64 193.427 103.484 191.662 104.581C191.296 104.808 190.699 104.705 190.287 104.738C189.758 104.779 189.22 104.831 188.698 104.924C188.021 105.046 187.364 105.258 186.685 105.365C186.144 105.45 185.428 105.55 184.945 105.213C184.149 104.658 184.632 103.567 184.895 102.861C185.269 101.858 185.623 100.515 186.55 99.9176C186.766 99.7788 187.03 99.2819 187.262 99.2369C187.626 99.1655 188.309 99.9591 188.575 100.156ZM211.726 76.5683C211.41 76.8106 211.395 77.3136 211.313 77.6689C211.037 78.8628 210.652 80.0247 210.423 81.2316C210.2 82.4085 210.131 83.5677 210.239 84.7602C210.312 85.556 210.321 86.5348 210.804 87.212C211.383 88.0227 212.529 87.9812 213.395 88.2215C214.228 88.4523 215.055 89.1676 214.146 89.9116C213.823 90.1757 213.398 90.2186 213.079 90.4732C212.685 90.7877 212.458 91.3506 212.291 91.8107C212.154 92.1899 212.158 92.262 212.569 92.3961C212.757 92.4567 212.947 92.4955 213.145 92.4792C213.596 92.4417 213.997 92.1443 214.375 91.9203C215.337 91.3499 216.449 90.5889 217.597 90.5025C217.964 90.4752 218.382 90.6257 218.739 90.5059C219.071 90.3949 218.969 90.3268 219.027 90.0171C219.256 88.7905 219.349 87.5864 219.975 86.4762C220.283 85.929 221.099 84.8086 221.646 85.6608C221.874 86.0168 221.957 86.191 222.464 86.0814C222.876 85.993 223.329 85.6669 223.247 85.1904C223.17 84.7412 222.579 84.4349 222.221 84.2382C221.744 83.9761 221.41 84.006 220.891 83.9441C219.463 83.7733 220.464 81.6863 220.67 80.9028C220.799 80.4107 220.95 79.7743 220.611 79.3298C220.094 78.6532 218.969 78.8758 218.26 78.9717C217.28 79.1045 216.209 79.1753 215.291 78.7301C214.321 78.2591 213.907 77.1972 212.997 76.6806C212.661 76.49 212.071 76.3035 211.726 76.5683ZM215.986 85.1925C216.66 85.1836 216.333 86.1454 216.148 86.4688C215.759 87.1515 214.925 87.4149 214.194 87.1637C213.614 86.9643 212.989 86.0855 213.895 85.9399C214.33 85.8698 214.761 85.8983 215.172 85.6914C215.407 85.5737 215.711 85.1959 215.986 85.1925ZM214.294 80.0765C214.713 80.3311 213.997 81.9565 213.877 82.2853C213.681 82.8223 213.506 83.1688 214.005 83.5827C214.352 83.8706 215.037 84.119 214.71 84.6929C214.407 85.2238 213.37 85.0012 212.948 84.7412C212.335 84.3634 212.515 83.6405 212.65 83.047C212.739 82.6576 213.548 79.6231 214.294 80.0765ZM148.298 69.4027C149.589 69.9548 150.911 70.4537 152.279 70.7866C153.474 71.0772 154.65 71.391 155.881 71.3229C157.02 71.2596 157.157 72.3793 156.506 73.1553C156.152 73.5767 155.741 73.5658 155.226 73.5821C154.623 73.6012 154.075 73.7686 153.493 73.9184C152.607 74.1471 151.71 74.3411 150.851 74.663C150.408 74.8298 149.971 75.0252 149.576 75.2879C149.327 75.4533 148.773 75.7514 149.066 75.9822C149.49 76.3157 150.748 75.859 151.253 75.8284C152.427 75.7582 153.599 75.6527 154.767 75.5057C155.34 75.4336 155.954 75.3621 156.496 75.1538C156.85 75.0183 157.242 74.6807 157.644 74.7665C158.491 74.9476 158.071 76.217 157.687 76.6302C157.116 77.2442 156.249 77.5151 155.511 77.8636C154.996 78.1073 154.484 78.3652 153.983 78.6382C153.746 78.7669 152.645 79.2495 152.68 79.6163C152.717 80.0016 153.586 79.8069 153.802 79.7722C155.237 79.5381 156.532 78.9833 157.859 78.4149C158.44 78.1658 159.028 77.9269 159.597 77.6512C159.994 77.4586 160.384 77.1645 160.823 77.0774C161.857 76.8705 161.812 78.0263 162.22 78.6505C163.43 80.506 165.769 81.2976 167.589 82.3697C168.277 82.7754 168.934 83.2423 169.565 83.731C170.017 84.0796 170.197 84.5601 170.701 84.1C171.121 83.7168 171.323 83.1538 171.592 82.6665C171.906 82.0981 172.324 81.5971 172.645 81.0335C173.12 80.2017 173.262 79.408 172.219 79.1017C171.126 78.7805 170.26 78.3013 169.33 77.6172C167.048 75.9393 165.154 73.7958 162.878 72.105C160.77 70.5381 158.534 69.0678 155.891 68.6472C153.386 68.2476 150.638 68.3463 148.298 69.4027ZM216.671 81.4542C216.617 81.9164 216.504 82.902 215.862 82.9387C215.082 82.9837 215.606 80.6156 216.048 80.3488C216.754 79.922 216.716 81.0628 216.671 81.4542ZM209.42 81.2656C208.447 81.3466 208.17 82.4119 209.142 82.7897L209.42 81.2656ZM213.027 80.3304C212.902 80.8143 212.947 81.5903 212.559 81.9613C212.011 82.4847 211.773 81.7169 211.777 81.2792C211.781 80.8463 211.996 79.7634 212.575 79.7062C213.07 79.6572 212.658 80.231 213.027 80.3304ZM223.524 69.5688C223.168 70.3087 223.551 71.0398 223.763 71.7674C223.327 71.9076 222.739 71.8014 222.472 72.263C222.305 72.5536 222.334 72.992 222.383 73.3071C222.425 73.5651 222.637 73.9136 222.46 74.1532C222.23 74.467 221.657 74.322 221.403 74.6712C221.015 75.2021 221.232 76.4151 221.776 76.8153C222.539 77.3769 222.083 75.9985 222.036 75.7474C221.919 75.1191 222.571 75.2042 223.015 74.9503C223.254 74.8141 223.296 74.7876 223.351 74.4969C223.402 74.2294 223.375 74.0164 223.311 73.7278C223.095 72.7483 223.473 72.9082 224.251 72.6925C224.922 72.5066 224.868 71.9703 224.698 71.406C224.564 70.9642 224.165 70.2393 224.597 69.8622C224.769 69.7131 225.029 69.8077 225.066 69.4953C225.091 69.285 224.808 68.9392 224.66 68.818C224.148 68.4001 223.732 69.1359 223.524 69.5688Z" fill="#B1B1B1"/>
</g>
<defs>
<clipPath id="clip0_2868_85603">
<rect width="263.491" height="161.117" fill="white" transform="translate(0.497803)"/>
</clipPath>
</defs>
</svg>
