<svg width="81" height="16" viewBox="0 0 81 16" fill="none" xmlns="http://www.w3.org/2000/svg">
<path d="M13.5 5.33333C13.5 5.60948 13.7239 5.83333 14 5.83333C14.2761 5.83333 14.5 5.60948 14.5 5.33333H13.5ZM10.6667 1.5C10.3905 1.5 10.1667 1.72386 10.1667 2C10.1667 2.27614 10.3905 2.5 10.6667 2.5V1.5ZM7.64645 7.64645C7.45118 7.84171 7.45118 8.15829 7.64645 8.35355C7.84171 8.54882 8.15829 8.54882 8.35355 8.35355L7.64645 7.64645ZM13.9637 2.182L13.5182 2.40899L13.5182 2.409L13.9637 2.182ZM13.818 2.03633L13.591 2.48183V2.48184L13.818 2.03633ZM8 3.83333C8.27614 3.83333 8.5 3.60948 8.5 3.33333C8.5 3.05719 8.27614 2.83333 8 2.83333V3.83333ZM13.1667 8C13.1667 7.72386 12.9428 7.5 12.6667 7.5C12.3905 7.5 12.1667 7.72386 12.1667 8H13.1667ZM3.45603 13.7094L3.68302 13.2638L3.45603 13.7094ZM2.29065 12.544L1.84515 12.771L2.29065 12.544ZM11.2106 13.7094L10.9836 13.2638L11.2106 13.7094ZM12.376 12.544L11.9305 12.317L12.376 12.544ZM2.29065 4.78936L1.84515 4.56236H1.84515L2.29065 4.78936ZM3.45603 3.62398L3.22903 3.17848L3.22903 3.17848L3.45603 3.62398ZM14.5 5.33333V2.53333H13.5V5.33333H14.5ZM13.4667 1.5H10.6667V2.5H13.4667V1.5ZM13.5488 1.74408L7.64645 7.64645L8.35355 8.35355L14.2559 2.45118L13.5488 1.74408ZM14.5 2.53333C14.5 2.44824 14.5004 2.35435 14.4938 2.27368C14.4867 2.18718 14.4692 2.07289 14.4092 1.95501L13.5182 2.409C13.4944 2.36242 13.4951 2.33045 13.4971 2.35512C13.4981 2.36715 13.499 2.38617 13.4995 2.41757C13.5 2.44895 13.5 2.48552 13.5 2.53333H14.5ZM13.4667 2.5C13.5145 2.5 13.5511 2.50001 13.5824 2.50051C13.6138 2.501 13.6329 2.5019 13.6449 2.50288C13.6695 2.5049 13.6376 2.50557 13.591 2.48183L14.045 1.59083C13.9271 1.53076 13.8128 1.51327 13.7263 1.5062C13.6456 1.49961 13.5518 1.5 13.4667 1.5V2.5ZM14.4092 1.95501C14.3692 1.87661 14.3174 1.80553 14.2559 1.74408L13.5488 2.45118C13.5365 2.4389 13.5262 2.42468 13.5182 2.40899L14.4092 1.95501ZM14.2559 1.74408C14.1945 1.68263 14.1234 1.63077 14.045 1.59083L13.591 2.48184C13.5753 2.47385 13.5611 2.46347 13.5488 2.45118L14.2559 1.74408ZM8.4 13.5H6.26667V14.5H8.4V13.5ZM2.5 9.73333V7.6H1.5V9.73333H2.5ZM6.26667 3.83333H8V2.83333H6.26667V3.83333ZM12.1667 8V9.73333H13.1667V8H12.1667ZM6.26667 13.5C5.51168 13.5 4.97551 13.4996 4.55592 13.4653C4.14217 13.4315 3.886 13.3673 3.68302 13.2638L3.22903 14.1549C3.59648 14.3421 3.9989 14.4232 4.47449 14.462C4.94425 14.5004 5.52818 14.5 6.26667 14.5V13.5ZM1.5 9.73333C1.5 10.4718 1.49961 11.0558 1.53799 11.5255C1.57685 12.0011 1.65792 12.4035 1.84515 12.771L2.73615 12.317C2.63273 12.114 2.56848 11.8578 2.53467 11.4441C2.50039 11.0245 2.5 10.4883 2.5 9.73333H1.5ZM3.68302 13.2638C3.27534 13.0561 2.94388 12.7247 2.73615 12.317L1.84515 12.771C2.14875 13.3668 2.63318 13.8513 3.22903 14.1549L3.68302 13.2638ZM8.4 14.5C9.13849 14.5 9.72242 14.5004 10.1922 14.462C10.6678 14.4232 11.0702 14.3421 11.4376 14.1549L10.9836 13.2638C10.7807 13.3673 10.5245 13.4315 10.1107 13.4653C9.69116 13.4996 9.15499 13.5 8.4 13.5V14.5ZM12.1667 9.73333C12.1667 10.4883 12.1663 11.0245 12.132 11.4441C12.0982 11.8578 12.0339 12.114 11.9305 12.317L12.8215 12.771C13.0087 12.4035 13.0898 12.0011 13.1287 11.5255C13.1671 11.0558 13.1667 10.4718 13.1667 9.73333H12.1667ZM11.4376 14.1549C12.0335 13.8513 12.5179 13.3668 12.8215 12.771L11.9305 12.317C11.7228 12.7247 11.3913 13.0561 10.9836 13.2638L11.4376 14.1549ZM2.5 7.6C2.5 6.84501 2.50039 6.30884 2.53467 5.88925C2.56848 5.4755 2.63273 5.21934 2.73615 5.01635L1.84515 4.56236C1.65792 4.92981 1.57685 5.33223 1.53799 5.80782C1.49961 6.27758 1.5 6.86151 1.5 7.6H2.5ZM6.26667 2.83333C5.52818 2.83333 4.94425 2.83294 4.47449 2.87133C3.9989 2.91018 3.59648 2.99125 3.22903 3.17848L3.68302 4.06949C3.886 3.96606 4.14217 3.90181 4.55592 3.868C4.97551 3.83372 5.51168 3.83333 6.26667 3.83333V2.83333ZM2.73615 5.01635C2.94388 4.60867 3.27534 4.27721 3.68302 4.06949L3.22903 3.17848C2.63318 3.48208 2.14875 3.96652 1.84515 4.56236L2.73615 5.01635Z" fill="#FF6DFB"/>
<path d="M32.736 3.48H34.374L30.048 13.056H28.662L24.322 3.48H25.974L29.348 11.012L32.736 3.48ZM35.7834 4.894C35.2654 4.894 34.8594 4.516 34.8594 3.998C34.8594 3.48 35.2654 3.102 35.7834 3.102C36.2874 3.102 36.7074 3.48 36.7074 3.998C36.7074 4.516 36.2874 4.894 35.7834 4.894ZM35.0694 6.42H36.5114V13H35.0694V6.42ZM38.7299 10.83C38.8839 11.642 39.4859 11.978 40.4799 11.978C41.3339 11.978 41.9219 11.698 41.9219 11.18C41.9219 10.788 41.5999 10.508 41.0399 10.41L39.5839 10.158C38.5759 9.99 37.6379 9.486 37.6379 8.296C37.6379 7.022 38.7439 6.238 40.3819 6.238C41.6559 6.238 43.1259 6.672 43.2659 8.394H41.9219C41.8519 7.68 41.2219 7.4 40.3819 7.4C39.5419 7.4 39.0799 7.708 39.0799 8.17C39.0799 8.52 39.3319 8.856 40.1019 8.982L41.3339 9.178C42.3279 9.36 43.3079 9.794 43.3079 11.068C43.3079 12.454 42.0899 13.168 40.4379 13.168C38.8839 13.168 37.5539 12.552 37.3859 10.816L38.7299 10.83ZM45.0546 4.894C44.5366 4.894 44.1306 4.516 44.1306 3.998C44.1306 3.48 44.5366 3.102 45.0546 3.102C45.5586 3.102 45.9786 3.48 45.9786 3.998C45.9786 4.516 45.5586 4.894 45.0546 4.894ZM44.3406 6.42H45.7826V13H44.3406V6.42ZM51.6397 11.572L51.8497 12.902C51.2757 13.112 50.7997 13.168 50.3517 13.168C48.6717 13.168 47.7757 12.16 47.7757 10.466V7.638H46.2217V6.42H47.7757V3.998H49.2317V6.42H51.6677V7.638H49.2317V10.466C49.2317 11.418 49.7077 11.824 50.5197 11.824C50.9117 11.824 51.3037 11.712 51.6397 11.572ZM57.0162 11.6H62.0982V13H55.5042V3.48H57.0162V11.6ZM63.5696 4.894C63.0516 4.894 62.6456 4.516 62.6456 3.998C62.6456 3.48 63.0516 3.102 63.5696 3.102C64.0736 3.102 64.4936 3.48 64.4936 3.998C64.4936 4.516 64.0736 4.894 63.5696 4.894ZM62.8556 6.42H64.2976V13H62.8556V6.42ZM69.2587 6.252C70.9667 6.252 72.1287 7.428 72.1287 9.332V13H70.6727V9.416C70.6727 8.212 70.0287 7.568 68.9647 7.568C68.3347 7.568 67.6487 7.918 67.1307 8.562V13H65.6747V6.42H67.1307V7.008C67.7047 6.518 68.4187 6.252 69.2587 6.252ZM78.0479 13L75.8219 10.186L74.5759 11.446V13H73.1199V3.06H74.5759V9.528L77.6699 6.42H79.5179L76.8159 9.164L79.9379 13H78.0479Z" fill="#FF6DFB"/>
</svg>
