<svg width="19" height="18" viewBox="0 0 19 18" fill="none" xmlns="http://www.w3.org/2000/svg">
<path d="M15.75 6C15.75 6.27614 15.9739 6.5 16.25 6.5C16.5261 6.5 16.75 6.27614 16.75 6H15.75ZM12.5 1.75C12.2239 1.75 12 1.97386 12 2.25C12 2.52614 12.2239 2.75 12.5 2.75V1.75ZM9.14645 8.64645C8.95118 8.84171 8.95118 9.15829 9.14645 9.35355C9.34171 9.54882 9.65829 9.54882 9.85355 9.35355L9.14645 8.64645ZM16.2091 2.45475L15.7636 2.68174L15.7636 2.68175L16.2091 2.45475ZM16.0452 2.29087L15.8183 2.73638L15.8183 2.73638L16.0452 2.29087ZM9.5 4.25C9.77614 4.25 10 4.02614 10 3.75C10 3.47386 9.77614 3.25 9.5 3.25V4.25ZM15.25 9C15.25 8.72386 15.0261 8.5 14.75 8.5C14.4739 8.5 14.25 8.72386 14.25 9H15.25ZM4.38803 15.423L4.61502 14.9775L4.61502 14.9775L4.38803 15.423ZM3.07698 14.112L2.63148 14.339L3.07698 14.112ZM13.112 15.423L12.885 14.9775L12.885 14.9775L13.112 15.423ZM14.423 14.112L13.9775 13.885L13.9775 13.885L14.423 14.112ZM3.07698 5.38803L2.63148 5.16103L2.63148 5.16103L3.07698 5.38803ZM4.38803 4.07698L4.16103 3.63148L4.16103 3.63148L4.38803 4.07698ZM16.75 6V2.85H15.75V6H16.75ZM15.65 1.75H12.5V2.75H15.65V1.75ZM15.7866 2.00628L9.14645 8.64645L9.85355 9.35355L16.4937 2.71339L15.7866 2.00628ZM16.75 2.85C16.75 2.75324 16.7504 2.6506 16.7432 2.56298C16.7356 2.46953 16.717 2.3501 16.6546 2.22776L15.7636 2.68175C15.7422 2.63962 15.744 2.61281 15.7466 2.64442C15.7478 2.65992 15.7489 2.68287 15.7494 2.71878C15.75 2.75468 15.75 2.79635 15.75 2.85H16.75ZM15.65 2.75C15.7036 2.75 15.7453 2.75001 15.7812 2.75058C15.8171 2.75114 15.8401 2.75218 15.8556 2.75345C15.8872 2.75603 15.8604 2.75784 15.8183 2.73638L16.2722 1.84537C16.1499 1.78303 16.0305 1.76441 15.937 1.75677C15.8494 1.74961 15.7468 1.75 15.65 1.75V2.75ZM16.6546 2.22776C16.6127 2.14544 16.5582 2.07081 16.4937 2.00628L15.7866 2.71339C15.7774 2.70418 15.7696 2.69351 15.7636 2.68174L16.6546 2.22776ZM16.4937 2.00628C16.4292 1.94176 16.3546 1.88731 16.2722 1.84537L15.8183 2.73638C15.8065 2.73038 15.7958 2.7226 15.7866 2.71339L16.4937 2.00628ZM9.95 15.25H7.55V16.25H9.95V15.25ZM3.25 10.95V8.55H2.25V10.95H3.25ZM7.55 4.25H9.5V3.25H7.55V4.25ZM14.25 9V10.95H15.25V9H14.25ZM7.55 15.25C6.70167 15.25 6.09549 15.2496 5.62032 15.2108C5.15099 15.1724 4.85366 15.0991 4.61502 14.9775L4.16103 15.8685C4.56413 16.0739 5.00771 16.1641 5.53889 16.2075C6.06423 16.2504 6.71817 16.25 7.55 16.25V15.25ZM2.25 10.95C2.25 11.7818 2.24961 12.4358 2.29253 12.9611C2.33593 13.4923 2.42609 13.9359 2.63148 14.339L3.52248 13.885C3.40089 13.6463 3.32756 13.349 3.28921 12.8797C3.25039 12.4045 3.25 11.7983 3.25 10.95H2.25ZM4.61502 14.9775C4.14462 14.7378 3.76217 14.3554 3.52248 13.885L2.63148 14.339C2.96703 14.9975 3.50247 15.533 4.16103 15.8685L4.61502 14.9775ZM9.95 16.25C10.7818 16.25 11.4358 16.2504 11.9611 16.2075C12.4923 16.1641 12.9359 16.0739 13.339 15.8685L12.885 14.9775C12.6463 15.0991 12.349 15.1724 11.8797 15.2108C11.4045 15.2496 10.7983 15.25 9.95 15.25V16.25ZM14.25 10.95C14.25 11.7983 14.2496 12.4045 14.2108 12.8797C14.1724 13.349 14.0991 13.6463 13.9775 13.885L14.8685 14.339C15.0739 13.9359 15.1641 13.4923 15.2075 12.9611C15.2504 12.4358 15.25 11.7818 15.25 10.95H14.25ZM13.339 15.8685C13.9975 15.533 14.533 14.9975 14.8685 14.339L13.9775 13.885C13.7378 14.3554 13.3554 14.7378 12.885 14.9775L13.339 15.8685ZM3.25 8.55C3.25 7.70167 3.25039 7.09549 3.28921 6.62032C3.32756 6.15099 3.40089 5.85366 3.52248 5.61502L2.63148 5.16103C2.42609 5.56413 2.33593 6.00771 2.29253 6.53889C2.24961 7.06423 2.25 7.71817 2.25 8.55H3.25ZM7.55 3.25C6.71817 3.25 6.06423 3.24961 5.53889 3.29253C5.00771 3.33593 4.56413 3.42609 4.16103 3.63148L4.61502 4.52248C4.85366 4.40089 5.15099 4.32756 5.62032 4.28921C6.09549 4.25039 6.70167 4.25 7.55 4.25V3.25ZM3.52248 5.61502C3.76217 5.14462 4.14462 4.76217 4.61502 4.52248L4.16103 3.63148C3.50247 3.96703 2.96703 4.50247 2.63148 5.16103L3.52248 5.61502Z" fill="black"/>
</svg>
