<svg width="24" height="25" viewBox="0 0 24 25" fill="none" xmlns="http://www.w3.org/2000/svg">
<path d="M19.5858 3.5H4.41421C3.63316 3.5 3 4.13317 3 4.91421C3 5.28929 3.149 5.649 3.41421 5.91421L8.41421 10.9142C8.78929 11.2893 9 11.798 9 12.3284V17.2639C9 18.0215 9.428 18.714 10.1056 19.0528L14.2764 21.1382C14.6088 21.3044 15 21.0627 15 20.691V12.3284C15 11.798 15.2107 11.2893 15.5858 10.9142L20.5858 5.91421C20.851 5.649 21 5.28929 21 4.91421C21 4.13317 20.3668 3.5 19.5858 3.5Z" stroke="#B1B1B1" stroke-width="2" stroke-linecap="round"/>
</svg>
