<svg width="134" height="52" viewBox="0 0 134 52" fill="none" xmlns="http://www.w3.org/2000/svg">
<g clip-path="url(#clip0_1_35444)">
<path d="M30.4502 29.3951L26.6167 31.6654C24.7974 29.9966 21.3077 28.8072 18.9008 28.4587L18.9008 51.7109L14.8925 51.7109L14.8925 28.4587C12.4295 28.9379 9.30155 30.0582 7.37698 31.6654L3.45258 29.3951C7.00753 25.7843 11.5534 23.8889 16.6962 23.8492C21.7406 23.8103 26.9109 25.7863 30.4502 29.3951Z" fill="black"/>
<path fill-rule="evenodd" clip-rule="evenodd" d="M7.42268 20.1197C9.41698 18.63 11.0762 16.7385 12.4004 14.4449C13.726 12.1522 14.5345 9.76945 14.826 7.29672C15.1175 4.82399 14.9576 2.39174 14.3461 -5.38325e-08L9.93782 2.45898C10.1513 3.69426 10.2031 4.92882 10.093 6.16266C9.98303 7.3965 9.69389 8.61958 9.22561 9.83192L3.31835 3.4518L0.863534 4.81456L0.863534 7.61993L6.81802 14.002C6.00225 15.0137 5.08759 15.8756 4.07406 16.5878C3.06053 17.3 2.04006 17.9093 0.863534 18.3421L0.863525 23.152C3.24197 22.4865 5.42838 21.6093 7.42268 20.1197Z" fill="#FF6DFB"/>
<path fill-rule="evenodd" clip-rule="evenodd" d="M27.1724 20.1197C25.1781 18.63 23.5188 16.7385 22.1946 14.4449C20.8691 12.1522 20.0605 9.76945 19.769 7.29672C19.4775 4.82399 19.6375 2.39174 20.249 -5.38325e-08L24.6572 2.45898C24.4437 3.69426 24.392 4.92882 24.502 6.16266C24.612 7.3965 24.9011 8.61958 25.3694 9.83192L31.2767 3.4518L33.7315 4.81456L33.7315 7.61993L27.777 14.002C28.5928 15.0137 29.5074 15.8756 30.521 16.5878C31.5345 17.3 32.555 17.9093 33.7315 18.3421L33.7315 23.152C31.3531 22.4865 29.1667 21.6093 27.1724 20.1197Z" fill="#FF6DFB"/>
<path d="M33.3241 35.5828C34.9787 33.7743 37.249 32.7353 40.0195 32.7353V36.5063C37.1336 36.6217 34.9403 38.367 33.3241 40.4833V51.8067H29.3223L29.3223 32.066H33.3241V35.5828Z" fill="black"/>
<path d="M49.0686 32.7979C55.0714 32.7979 58.8039 37.3769 58.0343 43.4952H43.1508C43.5356 46.2272 45.9133 48.3997 49.2995 48.3997C51.0695 48.3997 53.1418 47.3495 53.8729 46.1951H57.781C56.6266 49.4659 53.2244 51.8067 49.2995 51.8067C43.6045 51.8067 39.7566 47.6894 39.7566 42.3023C39.7566 36.9536 43.5661 32.7979 49.0686 32.7979ZM49.1071 36.1841C46.1057 36.1841 43.9525 37.9782 43.1508 40.7246H55.0754C54.5744 37.878 51.9161 36.1841 49.1071 36.1841Z" fill="black"/>
<path d="M70.0343 32.6608C74.7288 32.6608 77.9226 35.893 77.9226 41.1262V51.8091H73.9207V41.3571C73.9207 38.0479 72.1507 36.2778 69.2262 36.2778C67.4946 36.2778 65.6092 37.2398 64.1854 39.0099V51.8091H60.1836V32.0684H64.1854V34.7387C65.7631 33.3919 67.7255 32.6608 70.0343 32.6608Z" fill="black"/>
<path d="M94.8374 23.9492H98.8008V51.8067H94.8374V49.8827C93.2982 51.1141 91.3357 51.8067 89.027 51.8067C83.9477 51.8067 79.8689 47.574 79.8689 42.2638C79.8689 37.0306 83.9477 32.7979 89.027 32.7979C91.3357 32.7979 93.2982 33.4905 94.8374 34.6834V23.9492ZM89.3461 48.4999C92.9595 48.3609 95.6592 45.8473 95.6592 42.2638C95.6592 38.7467 92.922 36.0742 89.3461 36.0742C86.0369 36.0742 83.2335 39.07 83.2335 42.2638C83.2335 45.4961 86.0369 48.4999 89.3461 48.4999Z" fill="black"/>
<path d="M103.403 28.8746C101.979 28.8746 100.863 27.8356 100.863 26.4119C100.863 24.9882 101.979 23.9492 103.403 23.9492C104.788 23.9492 105.942 24.9882 105.942 26.4119C105.942 27.8356 104.788 28.8746 103.403 28.8746ZM101.475 32.066H105.438V51.8067H101.475V32.066Z" fill="black"/>
<path d="M121.537 47.4297L122.114 51.0852C120.536 51.6624 119.228 51.8163 117.996 51.8163C113.379 51.8163 110.916 49.0458 110.916 44.3898V35.4137H105.438V32.066H110.916V23.9492H114.918V32.066H120.201V35.4137H114.918V44.3898C114.918 47.0064 116.226 48.1223 118.458 48.1223C119.536 48.1223 120.613 47.8145 121.537 47.4297Z" fill="black"/>
<path d="M123.854 14.6304C125.327 14.8072 126.591 14.8957 127.647 14.8957C129.849 14.8957 131.679 14.8294 133.137 14.6967C133.062 14.8736 132.951 15.1168 132.802 15.4263C132.653 15.7359 132.281 16.3254 131.686 17.1951C131.091 18.05 130.422 18.8533 129.678 19.6051C130.213 19.6051 130.712 19.7598 131.173 20.0694C131.381 20.202 131.567 20.4157 131.731 20.7105C131.894 20.9906 131.976 21.3665 131.976 21.8381C131.976 22.2951 131.865 22.7741 131.642 23.2753C131.433 23.7617 131.084 24.2555 130.593 24.7566C129.581 25.8179 127.766 26.5843 125.148 27.056C124.598 26.6286 124.07 26.0463 123.564 25.3094C123.058 24.5871 122.694 23.968 122.471 23.4521L122.114 22.6562C123.527 23.0099 124.754 23.1868 125.795 23.1868C127.03 23.1868 127.856 22.9952 128.272 22.612C128.466 22.4351 128.562 22.2435 128.562 22.0371C128.562 21.6686 128.272 21.418 127.692 21.2854C127.32 21.2117 126.963 21.1748 126.621 21.1748L125.595 21.2412C125.357 21.2412 125.193 21.2043 125.104 21.1306L128.161 18.2785C127.209 18.2785 126.286 18.3595 125.394 18.5217C124.501 18.6838 123.847 18.846 123.43 19.0081L122.805 19.2513C123.505 17.5562 123.854 16.0159 123.854 14.6304Z" fill="black"/>
</g>
<defs>
<clipPath id="clip0_1_35444">
<rect width="132.273" height="51.9071" fill="white" transform="translate(0.863525)"/>
</clipPath>
</defs>
</svg>
