<svg width="47" height="48" viewBox="0 0 47 48" fill="none" xmlns="http://www.w3.org/2000/svg">
<path d="M1.00869 23.8086C1.00759 27.7575 2.0472 31.6133 4.02401 35.0119L0.819641 46.6238L12.7928 43.508C16.1044 45.2973 19.8148 46.2348 23.5854 46.2351H23.5953C36.0425 46.2351 46.1749 36.1823 46.1802 23.8263C46.1826 17.8389 43.8354 12.2087 39.5709 7.97286C35.3071 3.7374 29.6364 1.40361 23.5944 1.40088C11.1456 1.40088 1.01402 11.453 1.00888 23.8086" fill="url(#paint0_linear_3189_16665)"/>
<path d="M0.202377 23.8013C0.201092 27.8923 1.27796 31.886 3.32525 35.4063L0.00598145 47.4345L12.4084 44.2069C15.8257 46.0561 19.6732 47.0311 23.5883 47.0326H23.5984C36.4922 47.0326 46.9885 36.6183 46.994 23.8199C46.9963 17.6173 44.5646 11.7848 40.1477 7.39719C35.7303 3.01016 29.8568 0.592394 23.5984 0.589844C10.7024 0.589844 0.207516 11.0027 0.202377 23.8013ZM7.5885 34.8L7.12541 34.0704C5.17871 30.9983 4.15121 27.4482 4.15268 23.8027C4.15672 13.1649 12.8796 4.51015 23.6057 4.51015C28.8001 4.51234 33.6817 6.52205 37.3534 10.1684C41.0249 13.8151 43.0452 18.6626 43.0439 23.8184C43.0392 34.4563 34.3161 43.1121 23.5984 43.1121H23.5907C20.1009 43.1103 16.6783 42.1801 13.6935 40.4223L12.9831 40.0043L5.62326 41.9194L7.5885 34.8Z" fill="url(#paint1_linear_3189_16665)"/>
<path d="M17.7509 14.0975C17.313 13.1315 16.8521 13.112 16.4356 13.095C16.0946 13.0805 15.7047 13.0816 15.3153 13.0816C14.9254 13.0816 14.292 13.2271 13.7566 13.8073C13.2206 14.3881 11.7104 15.7915 11.7104 18.646C11.7104 21.5006 13.8052 24.2592 14.0972 24.6467C14.3896 25.0334 18.1413 31.0786 24.0831 33.4041C29.0213 35.3368 30.0262 34.9524 31.0979 34.8555C32.1698 34.7589 34.5567 33.4524 35.0436 32.0976C35.531 30.743 35.531 29.5818 35.3849 29.3392C35.2387 29.0974 34.8489 28.9523 34.2643 28.6622C33.6795 28.372 30.8055 26.9684 30.2698 26.7748C29.7338 26.5813 29.3441 26.4848 28.9543 27.0657C28.5644 27.6457 27.445 28.9523 27.1038 29.3392C26.7629 29.727 26.4217 29.7753 25.8373 29.4851C25.2523 29.194 23.3697 28.5821 21.1361 26.6057C19.3983 25.0678 18.225 23.1687 17.884 22.5878C17.543 22.0077 17.8475 21.6933 18.1406 21.4042C18.4033 21.1442 18.7254 20.7267 19.018 20.3881C19.3094 20.0492 19.4067 19.8075 19.6016 19.4205C19.7967 19.0333 19.6991 18.6944 19.5532 18.4042C19.4067 18.114 18.2707 15.2447 17.7509 14.0975Z" fill="white"/>
<defs>
<linearGradient id="paint0_linear_3189_16665" x1="2268.85" y1="4523.69" x2="2268.85" y2="1.40088" gradientUnits="userSpaceOnUse">
<stop stop-color="#1FAF38"/>
<stop offset="1" stop-color="#60D669"/>
</linearGradient>
<linearGradient id="paint1_linear_3189_16665" x1="2349.41" y1="4685.05" x2="2349.41" y2="0.589844" gradientUnits="userSpaceOnUse">
<stop stop-color="#F9F9F9"/>
<stop offset="1" stop-color="white"/>
</linearGradient>
</defs>
</svg>
