<svg width="47" height="47" viewBox="0 0 47 47" fill="none" xmlns="http://www.w3.org/2000/svg">
<path d="M21.9499 22.4067L0.205078 43.0245C0.44927 43.8076 0.888091 44.5299 1.488 45.1361C2.0879 45.7422 2.83301 46.2162 3.66636 46.5219C4.49971 46.8275 5.39924 46.9566 6.29618 46.8994C7.19313 46.8422 8.06375 46.6001 8.84149 46.1917L33.3085 33.5808L21.9499 22.4067Z" fill="#EA4335"/>
<path d="M43.9377 18.902L33.3573 13.4175L21.4478 22.8756L33.4058 33.5511L43.9056 28.1253C44.8357 27.6845 45.6148 27.0218 46.1584 26.2088C46.702 25.3959 46.9894 24.4638 46.9894 23.5136C46.9894 22.5634 46.702 21.6313 46.1584 20.8184C45.6148 20.0054 44.8357 19.3426 43.9056 18.9019L43.9377 18.902Z" fill="#FBBC04"/>
<path d="M0.205081 3.90088C0.0736456 4.34063 0.00821741 4.79438 0.0105587 5.24993V41.6753C0.0119214 42.1306 0.0772867 42.584 0.205081 43.0245L22.6953 22.9347L0.205081 3.90088Z" fill="#4285F4"/>
<path d="M22.1119 23.4625L33.3571 13.4176L8.9226 0.747858C8.00327 0.260598 6.95766 0.00255471 5.89228 1.01856e-05C3.24843 -0.00463999 0.924075 1.5834 0.205078 3.88606L22.1119 23.4625Z" fill="#34A853"/>
</svg>
