<svg width="47" height="48" viewBox="0 0 47 48" fill="none" xmlns="http://www.w3.org/2000/svg">
<path d="M34.8307 17.5134C38.2597 19.6762 42.4604 20.9488 46.9973 20.9488V13.2457C46.1386 13.2458 45.2822 13.1667 44.4422 13.0097V19.0732C39.9057 19.0732 35.7055 17.8008 32.2758 15.6381V31.3582C32.2758 39.2222 25.0507 45.5967 16.1389 45.5967C12.8137 45.5967 9.72286 44.7097 7.15546 43.1884C10.0858 45.8322 14.1723 47.4722 18.6933 47.4722C27.6058 47.4722 34.8311 41.0977 34.8311 33.2333V17.5134H34.8307ZM37.9828 9.7419C36.2303 8.05266 35.0796 5.86959 34.8307 3.45606V2.46533H32.4094C33.0189 5.53281 35.098 8.15347 37.9828 9.7419ZM12.7922 37.1539C11.8131 36.0213 11.2839 34.6355 11.2862 33.2108C11.2862 29.6142 14.5909 26.6979 18.6681 26.6979C19.4278 26.6975 20.183 26.8005 20.9073 27.0031V19.1276C20.0609 19.0254 19.2069 18.9818 18.3533 18.9978V25.1276C17.6287 24.9249 16.8731 24.822 16.113 24.8226C12.036 24.8226 8.73151 27.7385 8.73151 31.3356C8.73151 33.8792 10.3832 36.0812 12.7922 37.1539Z" fill="#FF004F"/>
<path d="M32.2758 15.638C35.7057 17.8006 39.9055 19.073 44.4422 19.073V13.0095C41.9098 12.5335 39.6681 11.366 37.9826 9.7419C35.0976 8.1533 33.0189 5.53265 32.4094 2.46533H26.0496V33.233C26.0351 36.8199 22.7361 39.7242 18.6677 39.7242C16.2705 39.7242 14.1406 38.7159 12.7918 37.1538C10.3832 36.0812 8.73132 33.879 8.73132 31.3358C8.73132 27.739 12.0358 24.8227 16.1128 24.8227C16.894 24.8227 17.6468 24.93 18.3531 25.1278V18.998C9.59764 19.1576 2.55634 25.4699 2.55634 33.2331C2.55634 37.1085 4.30973 40.6217 7.15563 43.1887C9.72303 44.7097 12.8136 45.5971 16.1391 45.5971C25.0511 45.5971 32.276 39.2221 32.276 31.3582L32.2758 15.638Z" fill="black"/>
<path d="M44.4423 13.0092V11.37C42.1587 11.3731 39.9203 10.8088 37.9828 9.74172C39.6978 11.3984 41.9561 12.5409 44.4423 13.0095M32.4094 2.46498C32.3513 2.1719 32.3067 1.87685 32.2758 1.58057V0.589844H23.4943V31.3578C23.4803 34.9444 20.1813 37.8487 16.1128 37.8487C14.9594 37.8502 13.8218 37.6122 12.7918 37.1539C14.1406 38.7158 16.2705 39.7238 18.6677 39.7238C22.7359 39.7238 26.0352 36.8199 26.0496 33.233V2.46514L32.4094 2.46498ZM18.3536 18.9976V17.2523C17.6198 17.1638 16.88 17.1195 16.1394 17.1197C7.22648 17.1197 0.00158691 23.4946 0.00158691 31.3578C0.00158691 36.2878 2.84106 40.6325 7.15598 43.1882C4.31009 40.6214 2.55669 37.108 2.55669 33.2328C2.55669 25.4697 9.59781 19.1573 18.3536 18.9976Z" fill="#00F2EA"/>
</svg>
