<svg width="17" height="17" viewBox="0 0 17 17" fill="none" xmlns="http://www.w3.org/2000/svg">
<path d="M11.1666 6.58984V5.25651C11.1666 3.78375 9.97274 2.58984 8.49998 2.58984C7.82368 2.58984 7.20618 2.8416 6.73609 3.25651M5.96668 14.5898H11.0333C11.7801 14.5898 12.1534 14.5898 12.4387 14.4445C12.6895 14.3167 12.8935 14.1127 13.0214 13.8618C13.1667 13.5766 13.1667 13.2032 13.1667 12.4565V8.72318C13.1667 7.97644 13.1667 7.60307 13.0214 7.31786C12.8935 7.06697 12.6895 6.863 12.4387 6.73517C12.1534 6.58984 11.7801 6.58984 11.0333 6.58984H5.96668C5.21994 6.58984 4.84657 6.58984 4.56136 6.73517C4.31047 6.863 4.1065 7.06697 3.97867 7.31786C3.83334 7.60307 3.83334 7.97644 3.83334 8.72318V12.4565C3.83334 13.2032 3.83334 13.5766 3.97867 13.8618C4.1065 14.1127 4.31047 14.3167 4.56136 14.4445C4.84657 14.5898 5.21994 14.5898 5.96668 14.5898Z" stroke="#1877F2" stroke-linecap="round"/>
</svg>
