<svg width="17" height="18" viewBox="0 0 17 18" fill="none" xmlns="http://www.w3.org/2000/svg">
<path d="M3.60683 14.6021L3.83382 14.1566L3.60683 14.6021ZM2.98772 13.983L3.43322 13.756H3.43322L2.98772 13.983ZM13.3931 14.6021L13.1661 14.1566L13.1661 14.1566L13.3931 14.6021ZM14.0122 13.983L13.5667 13.756V13.756L14.0122 13.983ZM13.3931 4.99429L13.1661 5.43979L13.1661 5.43979L13.3931 4.99429ZM14.0122 5.6134L13.5667 5.84039L14.0122 5.6134ZM3.60683 4.99429L3.37983 4.54879L3.60683 4.99429ZM2.98772 5.6134L2.54222 5.3864L2.98772 5.6134ZM11.0117 11.1377L11.2387 10.6922L11.0117 11.1377ZM10.7022 10.8281L11.1477 10.6011L10.7022 10.8281ZM15.5061 10.8281L15.0606 10.6011L15.5061 10.8281ZM15.1966 11.1377L14.9696 10.6922L15.1966 11.1377ZM15.1966 8.45875L14.9696 8.90426L15.1966 8.45875ZM15.5061 8.76831L15.0606 8.9953L15.5061 8.76831ZM11.0117 8.45875L11.2387 8.90426L11.0117 8.45875ZM10.7022 8.76831L11.1477 8.9953L10.7022 8.76831ZM4.06428 4.37565C3.80789 4.4782 3.68318 4.76919 3.78574 5.02558C3.8883 5.28197 4.17928 5.40668 4.43567 5.30412L4.06428 4.37565ZM10.3619 2.39511L10.1762 1.93087L10.1762 1.93087L10.3619 2.39511ZM10.8333 4.83988C10.8333 5.11603 11.0572 5.33988 11.3333 5.33988C11.6095 5.33988 11.8333 5.11603 11.8333 4.83988H10.8333ZM5.09998 5.33988H11.9V4.33988H5.09998V5.33988ZM11.9 14.2565H5.09998V15.2565H11.9V14.2565ZM3.33331 12.4899V7.10655H2.33331V12.4899H3.33331ZM13.6666 7.10655V8.55863H14.6666V7.10655H13.6666ZM13.6666 11.3477V12.4899H14.6666V11.3477H13.6666ZM5.09998 14.2565C4.69503 14.2565 4.42138 14.2562 4.21023 14.2389C4.00492 14.2221 3.90311 14.1919 3.83382 14.1566L3.37983 15.0476C3.61359 15.1667 3.86165 15.2138 4.1288 15.2356C4.39012 15.2569 4.71153 15.2565 5.09998 15.2565V14.2565ZM2.33331 12.4899C2.33331 12.8783 2.33292 13.1997 2.35427 13.4611C2.3761 13.7282 2.42311 13.9763 2.54222 14.21L3.43322 13.756C3.39792 13.6868 3.36773 13.5849 3.35095 13.3796C3.3337 13.1685 3.33331 12.8948 3.33331 12.4899H2.33331ZM3.83382 14.1566C3.66134 14.0688 3.52111 13.9285 3.43322 13.756L2.54222 14.21C2.72597 14.5707 3.01919 14.8639 3.37983 15.0476L3.83382 14.1566ZM11.9 15.2565C12.2884 15.2565 12.6098 15.2569 12.8712 15.2356C13.1383 15.2138 13.3864 15.1667 13.6201 15.0476L13.1661 14.1566C13.0969 14.1919 12.995 14.2221 12.7897 14.2389C12.5786 14.2562 12.3049 14.2565 11.9 14.2565V15.2565ZM13.6666 12.4899C13.6666 12.8948 13.6663 13.1685 13.649 13.3796C13.6322 13.5849 13.602 13.6868 13.5667 13.756L14.4577 14.21C14.5768 13.9763 14.6239 13.7282 14.6457 13.4611C14.667 13.1997 14.6666 12.8783 14.6666 12.4899H13.6666ZM13.6201 15.0476C13.9808 14.8639 14.274 14.5707 14.4577 14.21L13.5667 13.756C13.4789 13.9285 13.3386 14.0688 13.1661 14.1566L13.6201 15.0476ZM11.9 5.33988C12.3049 5.33988 12.5786 5.34027 12.7897 5.35752C12.995 5.3743 13.0969 5.40449 13.1661 5.43979L13.6201 4.54879C13.3864 4.42968 13.1383 4.38267 12.8712 4.36084C12.6098 4.33949 12.2884 4.33988 11.9 4.33988V5.33988ZM14.6666 7.10655C14.6666 6.7181 14.667 6.39669 14.6457 6.13537C14.6239 5.86822 14.5768 5.62016 14.4577 5.3864L13.5667 5.84039C13.602 5.90968 13.6322 6.01149 13.649 6.2168C13.6663 6.42795 13.6666 6.7016 13.6666 7.10655H14.6666ZM13.1661 5.43979C13.3386 5.52768 13.4789 5.66791 13.5667 5.84039L14.4577 5.3864C14.274 5.02576 13.9808 4.73254 13.6201 4.54879L13.1661 5.43979ZM5.09998 4.33988C4.71153 4.33988 4.39012 4.33949 4.1288 4.36084C3.86165 4.38267 3.61359 4.42968 3.37983 4.54879L3.83382 5.43979C3.90311 5.40449 4.00492 5.3743 4.21023 5.35752C4.42138 5.34027 4.69503 5.33988 5.09998 5.33988V4.33988ZM3.33331 7.10655C3.33331 6.7016 3.3337 6.42795 3.35095 6.2168C3.36773 6.01149 3.39792 5.90968 3.43322 5.84039L2.54222 5.3864C2.42311 5.62016 2.3761 5.86822 2.35427 6.13537C2.33292 6.39669 2.33331 6.7181 2.33331 7.10655H3.33331ZM3.37983 4.54879C3.01919 4.73254 2.72597 5.02576 2.54222 5.3864L3.43322 5.84039C3.52111 5.66791 3.66134 5.52768 3.83382 5.43979L3.37983 4.54879ZM11.7583 8.88155H14.45V7.88155H11.7583V8.88155ZM15.0833 9.51488V10.0815H16.0833V9.51488H15.0833ZM14.45 10.7149H11.7583V11.7149H14.45V10.7149ZM11.125 10.0815V9.51488H10.125V10.0815H11.125ZM11.7583 10.7149C11.5517 10.7149 11.4268 10.7145 11.3338 10.7069C11.2466 10.6998 11.2323 10.6889 11.2387 10.6922L10.7847 11.5832C10.9427 11.6637 11.1033 11.6914 11.2524 11.7036C11.3956 11.7153 11.5682 11.7149 11.7583 11.7149V10.7149ZM10.125 10.0815C10.125 10.2717 10.1246 10.4443 10.1363 10.5875C10.1485 10.7365 10.1762 10.8971 10.2567 11.0551L11.1477 10.6011C11.151 10.6076 11.1401 10.5933 11.133 10.5061C11.1254 10.413 11.125 10.2882 11.125 10.0815H10.125ZM11.2387 10.6922C11.1995 10.6722 11.1677 10.6403 11.1477 10.6011L10.2567 11.0551C10.3725 11.2825 10.5574 11.4673 10.7847 11.5832L11.2387 10.6922ZM15.0833 10.0815C15.0833 10.2882 15.0829 10.413 15.0753 10.5061C15.0682 10.5933 15.0573 10.6076 15.0606 10.6011L15.9516 11.0551C16.0321 10.8971 16.0598 10.7365 16.072 10.5875C16.0837 10.4443 16.0833 10.2717 16.0833 10.0815H15.0833ZM14.45 11.7149C14.6401 11.7149 14.8127 11.7153 14.9559 11.7036C15.105 11.6914 15.2656 11.6637 15.4236 11.5832L14.9696 10.6922C14.976 10.6889 14.9617 10.6998 14.8745 10.7069C14.7815 10.7145 14.6566 10.7149 14.45 10.7149V11.7149ZM15.0606 10.6011C15.0406 10.6403 15.0088 10.6722 14.9696 10.6922L15.4236 11.5832C15.6509 11.4673 15.8358 11.2825 15.9516 11.0551L15.0606 10.6011ZM14.45 8.88155C14.6566 8.88155 14.7815 8.88194 14.8745 8.88954C14.9617 8.89666 14.976 8.90756 14.9696 8.90426L15.4236 8.01325C15.2656 7.93275 15.105 7.90504 14.9559 7.89286C14.8127 7.88116 14.6401 7.88155 14.45 7.88155V8.88155ZM16.0833 9.51488C16.0833 9.32478 16.0837 9.15213 16.072 9.00893C16.0598 8.8599 16.0321 8.69931 15.9516 8.54131L15.0606 8.9953C15.0573 8.98883 15.0682 9.00317 15.0753 9.09037C15.0829 9.1834 15.0833 9.30828 15.0833 9.51488H16.0833ZM14.9696 8.90426C15.0088 8.92423 15.0406 8.9561 15.0606 8.9953L15.9516 8.54131C15.8358 8.31395 15.6509 8.1291 15.4236 8.01325L14.9696 8.90426ZM11.7583 7.88155C11.5682 7.88155 11.3956 7.88116 11.2524 7.89286C11.1033 7.90504 10.9427 7.93275 10.7847 8.01325L11.2387 8.90426C11.2323 8.90756 11.2466 8.89666 11.3338 8.88954C11.4268 8.88194 11.5517 8.88155 11.7583 8.88155V7.88155ZM11.125 9.51488C11.125 9.30828 11.1254 9.1834 11.133 9.09037C11.1401 9.00317 11.151 8.98883 11.1477 8.9953L10.2567 8.54131C10.1762 8.69931 10.1485 8.8599 10.1363 9.00894C10.1246 9.15213 10.125 9.32478 10.125 9.51488H11.125ZM10.7847 8.01325C10.5574 8.1291 10.3725 8.31395 10.2567 8.54131L11.1477 8.9953C11.1677 8.9561 11.1995 8.92423 11.2387 8.90426L10.7847 8.01325ZM4.43567 5.30412L10.5476 2.85935L10.1762 1.93087L4.06428 4.37565L4.43567 5.30412ZM10.8333 3.05278V4.83988H11.8333V3.05278H10.8333ZM10.5476 2.85935C10.6845 2.80461 10.8333 2.90539 10.8333 3.05278H11.8333C11.8333 2.19793 10.9699 1.61339 10.1762 1.93087L10.5476 2.85935Z" fill="#B1B1B1"/>
</svg>
