<svg width="342" height="124" viewBox="0 0 342 124" fill="none" xmlns="http://www.w3.org/2000/svg">
<g clip-path="url(#clip0_3539_24569)">
<path fill-rule="evenodd" clip-rule="evenodd" d="M0.898251 51.834C6.03613 47.9963 10.3108 43.123 13.7223 37.2142C17.1373 31.3075 19.2203 25.1689 19.9714 18.7984C20.7224 12.428 20.3102 6.16181 18.7349 -1.38688e-07L7.37797 6.33504C7.92799 9.51747 8.06128 12.698 7.77785 15.8768C7.49443 19.0555 6.74952 22.2065 5.54312 25.3298L-9.67567 8.89282L-16 12.4037L-16 19.6311L-0.659522 36.0731C-2.7612 38.6795 -5.11761 40.9002 -7.72874 42.735C-10.3399 44.5698 -12.9689 46.1395 -16 47.2544L-16 59.6461C-9.87244 57.9316 -4.23963 55.6717 0.898251 51.834Z" fill="#190B19"/>
<path fill-rule="evenodd" clip-rule="evenodd" d="M51.7795 51.834C46.6416 47.9963 42.3669 43.123 38.9555 37.2142C35.5404 31.3075 33.4574 25.1689 32.7064 18.7984C31.9553 12.428 32.3675 6.16181 33.9429 -1.38688e-07L45.2998 6.33504C44.7497 9.51747 44.6165 12.698 44.8999 15.8768C45.1833 19.0555 45.9282 22.2065 47.1346 25.3298L62.3534 8.89282L68.6777 12.4037L68.6777 19.6311L53.3373 36.0731C55.4389 38.6795 57.7953 40.9002 60.4065 42.735C63.0176 44.5698 65.6466 46.1395 68.6777 47.2544L68.6777 59.6461C62.5502 57.9316 56.9174 55.6717 51.7795 51.834Z" fill="#190B19"/>
<path d="M60.2235 75.7306L50.3473 81.5794C45.6602 77.2802 36.6698 74.216 30.4689 73.3183L30.4689 118.755L20.1424 118.755L20.1424 73.3183C13.7971 74.5527 5.73855 77.439 0.780313 81.5794L-9.33008 75.7306C-0.171511 66.4282 11.5399 61.545 24.7893 61.4429C37.785 61.3426 51.1053 66.4334 60.2235 75.7306Z" fill="#190B19"/>
</g>
<g clip-path="url(#clip1_3539_24569)">
<path fill-rule="evenodd" clip-rule="evenodd" d="M93.8367 51.834C98.9746 47.9963 103.249 43.123 106.661 37.2142C110.076 31.3075 112.159 25.1689 112.91 18.7984C113.661 12.428 113.249 6.16181 111.673 -1.38688e-07L100.316 6.33504C100.866 9.51747 101 12.698 100.716 15.8768C100.433 19.0555 99.688 22.2065 98.4816 25.3298L83.2628 8.89282L76.9385 12.4037L76.9385 19.6311L92.279 36.0731C90.1773 38.6795 87.8209 40.9002 85.2097 42.735C82.5986 44.5698 79.9696 46.1395 76.9385 47.2544L76.9385 59.6461C83.066 57.9316 88.6988 55.6717 93.8367 51.834Z" fill="#190B19"/>
<path fill-rule="evenodd" clip-rule="evenodd" d="M144.718 51.834C139.58 47.9963 135.305 43.123 131.894 37.2142C128.479 31.3075 126.396 25.1689 125.645 18.7984C124.894 12.428 125.306 6.16181 126.881 -1.38688e-07L138.238 6.33504C137.688 9.51747 137.555 12.698 137.838 15.8768C138.122 19.0555 138.867 22.2065 140.073 25.3298L155.292 8.89282L161.616 12.4037L161.616 19.6311L146.276 36.0731C148.377 38.6795 150.734 40.9002 153.345 42.735C155.956 44.5698 158.585 46.1395 161.616 47.2544L161.616 59.6461C155.489 57.9316 149.856 55.6717 144.718 51.834Z" fill="#190B19"/>
<path d="M153.162 75.7306L143.286 81.5794C138.599 77.2802 129.608 74.216 123.407 73.3183L123.407 118.755L113.081 118.755L113.081 73.3183C106.736 74.5527 98.677 77.439 93.7188 81.5794L83.6084 75.7306C92.767 66.4282 104.478 61.545 117.728 61.4429C130.724 61.3426 144.044 66.4334 153.162 75.7306Z" fill="#190B19"/>
</g>
<g clip-path="url(#clip2_3539_24569)">
<path fill-rule="evenodd" clip-rule="evenodd" d="M186.775 51.834C191.913 47.9963 196.188 43.123 199.599 37.2142C203.014 31.3075 205.097 25.1689 205.848 18.7984C206.599 12.428 206.187 6.16181 204.612 -1.38688e-07L193.255 6.33504C193.805 9.51747 193.938 12.698 193.655 15.8768C193.371 19.0555 192.626 22.2065 191.42 25.3298L176.201 8.89282L169.877 12.4037L169.877 19.6311L185.217 36.0731C183.116 38.6795 180.759 40.9002 178.148 42.735C175.537 44.5698 172.908 46.1395 169.877 47.2544L169.877 59.6461C176.005 57.9316 181.637 55.6717 186.775 51.834Z" fill="#190B19"/>
<path fill-rule="evenodd" clip-rule="evenodd" d="M237.655 51.834C232.518 47.9963 228.243 43.123 224.831 37.2142C221.416 31.3075 219.333 25.1689 218.582 18.7984C217.831 12.428 218.243 6.16181 219.819 -1.38688e-07L231.176 6.33504C230.626 9.51747 230.492 12.698 230.776 15.8768C231.059 19.0555 231.804 22.2065 233.011 25.3298L248.229 8.89282L254.554 12.4037L254.554 19.6311L239.213 36.0731C241.315 38.6795 243.671 40.9002 246.282 42.735C248.894 44.5698 251.523 46.1395 254.554 47.2544L254.554 59.6461C248.426 57.9316 242.793 55.6717 237.655 51.834Z" fill="#190B19"/>
<path d="M246.1 75.7306L236.224 81.5794C231.537 77.2802 222.547 74.216 216.346 73.3183L216.346 118.755L206.019 118.755L206.019 73.3183C199.674 74.5527 191.616 77.439 186.657 81.5794L176.547 75.7306C185.705 66.4282 197.417 61.545 210.666 61.4429C223.662 61.3426 236.982 66.4334 246.1 75.7306Z" fill="#190B19"/>
</g>
<g clip-path="url(#clip3_3539_24569)">
<path fill-rule="evenodd" clip-rule="evenodd" d="M279.714 51.834C284.852 47.9963 289.126 43.123 292.538 37.2142C295.953 31.3075 298.036 25.1689 298.787 18.7984C299.538 12.428 299.126 6.16181 297.55 -1.38688e-07L286.193 6.33504C286.743 9.51747 286.877 12.698 286.593 15.8768C286.31 19.0555 285.565 22.2065 284.359 25.3298L269.14 8.89282L262.815 12.4037L262.815 19.6311L278.156 36.0731C276.054 38.6795 273.698 40.9002 271.087 42.735C268.476 44.5698 265.847 46.1395 262.815 47.2544L262.815 59.6461C268.943 57.9316 274.576 55.6717 279.714 51.834Z" fill="#190B19"/>
<path fill-rule="evenodd" clip-rule="evenodd" d="M330.595 51.834C325.457 47.9963 321.182 43.123 317.771 37.2142C314.356 31.3075 312.273 25.1689 311.522 18.7984C310.771 12.428 311.183 6.16181 312.758 -1.38688e-07L324.115 6.33504C323.565 9.51747 323.432 12.698 323.715 15.8768C323.999 19.0555 324.744 22.2065 325.95 25.3298L341.169 8.89282L347.493 12.4037L347.493 19.6311L332.153 36.0731C334.254 38.6795 336.611 40.9002 339.222 42.735C341.833 44.5698 344.462 46.1395 347.493 47.2544L347.493 59.6461C341.366 57.9316 335.733 55.6717 330.595 51.834Z" fill="#190B19"/>
<path d="M339.039 75.7306L329.163 81.5794C324.476 77.2802 315.485 74.216 309.284 73.3183L309.284 118.755L298.958 118.755L298.958 73.3183C292.613 74.5527 284.554 77.439 279.596 81.5794L269.485 75.7306C278.644 66.4282 290.355 61.545 303.605 61.4429C316.6 61.3426 329.921 66.4334 339.039 75.7306Z" fill="#190B19"/>
</g>
<g clip-path="url(#clip4_3539_24569)">
<path d="M60.2235 152.708L50.3473 146.859C45.6602 151.158 36.6698 154.222 30.4689 155.12L30.4689 109.684L20.1424 109.684L20.1424 155.12C13.7971 153.886 5.73855 150.999 0.780313 146.859L-9.33008 152.708C-0.171511 162.01 11.5399 166.893 24.7893 166.996C37.785 167.096 51.1053 162.005 60.2235 152.708Z" fill="#190B19"/>
</g>
<g clip-path="url(#clip5_3539_24569)">
<path d="M153.162 152.708L143.286 146.859C138.599 151.158 129.608 154.222 123.407 155.12L123.407 109.684L113.081 109.684L113.081 155.12C106.736 153.886 98.677 150.999 93.7188 146.859L83.6084 152.708C92.767 162.01 104.478 166.893 117.728 166.996C130.724 167.096 144.044 162.005 153.162 152.708Z" fill="#190B19"/>
</g>
<g clip-path="url(#clip6_3539_24569)">
<path d="M246.1 152.708L236.224 146.859C231.537 151.158 222.547 154.222 216.346 155.12L216.346 109.684L206.019 109.684L206.019 155.12C199.674 153.886 191.616 150.999 186.657 146.859L176.547 152.708C185.705 162.01 197.417 166.893 210.666 166.996C223.662 167.096 236.982 162.005 246.1 152.708Z" fill="#190B19"/>
</g>
<g clip-path="url(#clip7_3539_24569)">
<path d="M339.039 152.708L329.163 146.859C324.476 151.158 315.485 154.222 309.284 155.12L309.284 109.684L298.958 109.684L298.958 155.12C292.613 153.886 284.554 150.999 279.596 146.859L269.485 152.708C278.644 162.01 290.355 166.893 303.605 166.996C316.6 167.096 329.921 162.005 339.039 152.708Z" fill="#190B19"/>
</g>
<defs>
<clipPath id="clip0_3539_24569">
<rect width="84.6773" height="109.977" fill="white" transform="translate(-16)"/>
</clipPath>
<clipPath id="clip1_3539_24569">
<rect width="84.6773" height="109.977" fill="white" transform="translate(76.9385)"/>
</clipPath>
<clipPath id="clip2_3539_24569">
<rect width="84.6773" height="109.977" fill="white" transform="translate(169.877)"/>
</clipPath>
<clipPath id="clip3_3539_24569">
<rect width="84.6773" height="109.977" fill="white" transform="translate(262.815)"/>
</clipPath>
<clipPath id="clip4_3539_24569">
<rect width="84.6773" height="109.977" fill="white" transform="matrix(1 0 0 -1 -16 228.438)"/>
</clipPath>
<clipPath id="clip5_3539_24569">
<rect width="84.6773" height="109.977" fill="white" transform="matrix(1 0 0 -1 76.9385 228.438)"/>
</clipPath>
<clipPath id="clip6_3539_24569">
<rect width="84.6773" height="109.977" fill="white" transform="matrix(1 0 0 -1 169.877 228.438)"/>
</clipPath>
<clipPath id="clip7_3539_24569">
<rect width="84.6773" height="109.977" fill="white" transform="matrix(1 0 0 -1 262.815 228.438)"/>
</clipPath>
</defs>
</svg>
