<svg width="244" height="150" viewBox="0 0 244 150" fill="none" xmlns="http://www.w3.org/2000/svg">
<g clip-path="url(#clip0_2868_81324)">
<g clip-path="url(#clip1_2868_81324)">
<mask id="mask0_2868_81324" style="mask-type:luminance" maskUnits="userSpaceOnUse" x="0" y="0" width="264" height="162">
<path d="M263.991 0.705078H0.499939V161.822H263.991V0.705078Z" fill="white"/>
</mask>
<g mask="url(#mask0_2868_81324)">
<path fill-rule="evenodd" clip-rule="evenodd" d="M97.6427 66.7867C98.6794 62.7534 99.6562 58.6323 101.194 54.7562C102.158 52.3306 103.177 49.9269 104.2 47.5259C104.341 47.1926 104.401 46.8713 104.677 46.7053C105.045 46.4836 105.807 46.4884 106.223 46.4122C112.125 45.3291 118.088 44.5024 124.071 44.0373C130.899 43.5067 137.556 43.7494 144.313 44.8627C150.09 45.8147 155.812 47.1269 161.47 48.6295C162.302 48.8502 163.133 49.0758 163.961 49.3076C164.348 49.4157 164.989 49.4709 165.325 49.6963C166.046 50.1782 166.289 52.1531 166.56 52.9897C166.921 54.1111 167.131 55.6518 167.828 56.6058C168.865 58.0259 170.444 59.2577 171.73 60.4382C176.217 64.5584 181.136 68.3168 186.932 70.354C195.898 73.5049 205.353 75.4802 214.641 77.4331C214.856 77.478 215.073 77.5236 215.289 77.5685C212.885 80.232 210.48 82.8962 208.076 85.5604C206.72 87.062 205.365 88.5636 204.009 90.0658C203.313 90.8377 203.389 90.9759 202.403 90.7601C197.464 89.6819 192.534 88.5071 187.685 87.0742C185.307 86.3718 182.89 85.6428 180.678 84.5053C177.634 82.9398 174.776 81.0046 171.995 79.0163C169.509 77.2398 167.082 75.3808 164.698 73.4695C164.228 73.0924 162.532 71.2756 161.982 71.3941C161.508 71.4962 160.686 72.5764 160.339 72.8909C159.421 73.7227 158.498 74.5511 157.57 75.372C156.093 76.6789 154.584 78.2798 152.859 79.2634C151.041 80.3001 148.957 81.006 147.038 81.8316C145.968 82.2918 144.896 82.7505 143.824 83.208C143.544 83.3278 143.154 83.5871 142.852 83.5939C141.959 83.613 140.662 82.8867 139.833 82.6035C137.705 81.8766 135.592 81.1033 133.501 80.2742C129.036 78.5045 124.13 76.5816 120.456 73.3967C119.814 72.8412 119.188 72.2197 118.764 71.4771C118.617 71.2198 118.398 70.8611 118.383 70.5575C118.359 70.0729 118.631 69.9783 119.036 69.6754C121.126 68.1124 123.38 66.7502 125.596 65.3768C126.117 65.0542 126.638 64.7329 127.162 64.4148L101.267 66.4954C100.058 66.5926 98.8509 66.6896 97.6427 66.7867Z" fill="#CB29BE"/>
<path fill-rule="evenodd" clip-rule="evenodd" d="M136.2 17.4552C138.936 17.5801 141.741 17.7073 144.453 18.0926C147.156 18.4764 149.679 19.4584 152.122 20.6473C156.527 22.7909 161.03 25.3967 163.864 29.5201C165.189 31.4479 166.269 33.4666 168.098 34.9842C168.526 35.3391 168.992 35.7656 169.56 35.8742C170.011 35.9605 170.409 35.7778 170.852 35.7559C171.695 35.714 172.015 36.159 172.015 36.9977C172.648 36.7448 173.338 36.5159 174.028 36.6088C174.606 36.6866 175.065 37.035 175.619 37.1814C176.62 37.4458 177.599 37.0504 178.551 36.7559C180.954 36.012 183.593 35.4486 186.118 35.714C187.781 35.8889 189.796 36.6104 188.935 38.7536C188.221 40.5315 185.55 41.4314 183.864 41.8736C182.429 42.25 180.5 41.9141 180.621 43.8949C180.706 45.2773 180.915 46.7604 182.384 47.209C183.189 47.4549 186.042 47.8213 184.375 49.0688C183.145 49.99 182.716 51.6114 181.78 52.8291C180.587 54.3813 178.97 55.6361 177.081 56.2026C174.965 56.8366 172.727 56.7149 170.555 56.9609C172.085 59.0736 174.295 60.5267 176.305 62.1332C178.42 63.8225 180.46 65.6687 182.907 66.8729C185.1 67.9523 187.47 68.7017 189.735 69.6168C192.115 70.5779 194.511 71.5282 196.967 72.2776C201.921 73.788 207.131 74.8431 212.225 75.7695C214.738 76.2269 217.203 76.1595 219.742 76.2003C222.346 76.2425 224.948 76.6993 227.505 77.1683C228.744 77.3963 229.995 77.5392 231.235 77.7659C231.829 77.8748 234.183 78.1151 234.267 78.9864C234.405 80.4056 232.871 81.2006 231.747 81.5968C231.268 81.7656 230.495 81.7411 230.079 81.9739C229.63 82.225 229.805 82.5953 229.754 83.082C229.679 83.7899 229.3 84.2991 228.72 84.6912C228.243 85.0145 227.668 85.0015 227.997 85.6135C228.149 85.8953 228.528 86.0729 228.703 86.3704C228.903 86.7094 228.995 87.0817 228.955 87.4724C228.884 88.1558 228.432 88.6772 227.802 88.9189C226.796 89.3055 225.615 89.0319 224.584 88.9066C222.859 88.697 221.109 88.6758 219.407 88.2981C217.633 87.9046 215.907 87.2982 214.13 86.8952C213.219 86.6883 212.307 86.5154 211.416 86.2288C210.837 86.0423 210 85.5583 209.383 85.7094C208.805 85.8517 208.354 86.5494 207.976 86.9551C207.455 87.5139 206.95 88.0877 206.42 88.6391C206.069 89.0039 205.709 89.3613 205.325 89.6928C205.201 89.8003 204.431 90.2714 204.42 90.3973C204.39 90.7546 205.231 90.7485 205.411 90.8901C206.456 91.7171 204.885 92.2406 204.207 92.1991C202.644 92.1038 201.073 91.9118 199.525 91.6824C195.84 91.1351 192.165 90.5443 188.641 89.3096C185.156 88.0877 181.755 86.7883 178.53 84.9675C175.436 83.2195 172.443 81.2442 169.52 79.2246C168.102 78.2444 166.674 77.2289 165.476 75.9805C164.305 74.7593 163.351 73.3571 162.379 71.9774C160.053 74.225 157.815 76.5883 155.317 78.6488C152.94 80.6084 150.082 81.6553 147.318 82.9282C147.408 83.5068 150.109 83.8532 150.603 84.0037C152.857 84.6898 155.02 85.7904 157.212 86.6542C160.859 88.0905 164.319 89.9596 165.534 93.9491C166.727 97.8718 165.342 101.82 163.654 105.363C161.66 109.546 159.292 113.421 156.429 117.067C155.211 118.618 153.899 120.046 152.563 121.491C151.423 122.723 150.446 124.184 150.923 125.936C151.841 125.649 152.009 126.365 151.409 126.972C150.876 127.51 149.954 127.615 149.242 127.704C147.084 127.975 144.854 127.879 142.693 127.678C138.759 127.311 134.816 126.318 131.255 124.608C129.482 123.758 128.841 125.129 127.622 126.192C126.663 127.027 125.343 127.569 124.614 128.649C124.015 129.539 124.406 130.945 125.651 130.611C126.62 130.352 127.398 129.27 128.425 129.229C130.246 129.155 126.81 131.755 126.37 132.072C127.241 132.851 128.228 131.783 129.105 131.604C129.947 131.433 130.182 131.87 129.733 132.572C129.384 133.119 128.285 133.507 129.016 134.173C129.622 134.724 130.964 135.015 131.707 135.256C134.027 136.011 136.334 136.547 138.749 136.892C139.528 137.003 140.779 136.932 141.411 137.485C142.245 138.214 141.842 139.423 141.42 140.259C139.822 143.424 136.498 144.98 133.084 145.208C130.982 145.348 128.859 145.212 126.75 145.326C124.439 145.451 122.122 145.635 119.806 145.559C116.082 145.436 113.713 142.743 111.856 139.782C110.677 137.901 109.59 135.965 108.569 133.993C108.17 133.223 107.335 132.425 107.192 131.559C107.064 130.781 107.561 130.156 108.044 129.604C109.314 128.154 110.842 127.047 112.336 125.848C113.189 125.164 113.516 124.597 113.896 123.602C114.216 122.763 114.83 122.404 115.371 121.736C115.966 120.999 115.779 120.869 115.315 120.268C114.83 119.638 115.02 118.71 115.224 117.998C115.517 116.975 116.144 116.751 117.081 116.421C117.936 116.121 118.661 115.593 119.418 115.105C123.161 112.69 126.688 109.958 130.476 107.611C134.215 105.295 138.122 103.249 141.69 100.665C138.793 100.275 136.238 98.7104 133.506 97.784C132.103 97.3082 130.714 96.8005 129.357 96.2049C128.839 95.9775 128.234 95.776 127.772 95.4411C127.308 95.1056 126.951 94.6638 126.464 94.3459C125.309 93.5917 123.935 93.1622 122.692 92.5748C121.351 91.9397 120.026 91.2454 118.779 90.4375C117.615 89.6833 116.497 88.8208 115.529 87.8243C114.758 87.0306 114.008 85.996 112.916 85.6319C113.031 87.1525 114.915 88.4118 115.947 89.3273C117.622 90.8125 119.363 92.0752 121.235 93.3018C119.135 95.1015 116.576 96.2736 114.116 97.4893C111.351 98.8561 108.664 100.371 105.91 101.759C103.577 102.935 101.123 103.841 98.7514 104.934C96.1934 106.113 93.5605 107.101 90.8909 107.998C88.4758 108.81 86.2017 109.675 83.9221 110.814C81.7064 111.922 79.3356 112.769 76.9655 113.479C74.302 114.278 71.761 115.037 69.1996 116.132C66.8901 117.119 64.5709 117.75 62.1266 118.287C61.3192 118.464 60.2824 118.789 59.7169 118.008C59.2884 117.415 59.2238 116.501 59.1008 115.804C58.6296 113.137 58.5923 110.426 58.1684 107.755C56.5595 108.241 55.0355 108.838 53.3381 108.916C52.271 108.964 51.6225 109.074 51.3566 110.24C51.9739 110.309 54.1796 110.34 54.2391 111.215C54.2931 112.003 52.9585 112.012 52.4852 112.033C51.6383 112.072 50.8709 111.933 50.4188 112.762C51.0847 113.008 52.5612 112.56 52.8561 113.456C53.236 114.612 51.5106 114.609 50.8897 114.702C49.8066 114.864 49.9179 115.715 49.992 116.625C50.0897 117.822 50.1637 119.02 50.3252 120.211C50.6705 122.755 51.2618 125.261 51.5418 127.815C51.7838 130.023 51.9195 132.144 50.3418 133.904C49.7075 134.611 48.8257 135.426 47.8288 135.509C46.8171 135.595 46.8355 134.886 46.2058 134.364C45.8198 134.045 45.3087 133.979 44.8541 133.807C44.3011 133.597 43.7646 133.29 43.2677 132.972C42.352 132.386 41.5515 131.658 40.9041 130.783C38.372 127.36 37.4669 122.247 37.216 118.097C37.0565 115.459 37.2156 112.815 37.4577 110.187C37.5881 108.772 37.7192 107.355 37.8904 105.943C37.9435 105.506 38.0322 105.068 38.0651 104.63C38.084 104.378 37.9629 103.871 38.091 103.63C37.9274 103.937 37.6375 103.71 37.3496 103.468C36.7553 102.969 36.9382 102.01 37.2561 101.354C38.2139 99.3748 41.0843 99.2979 42.9516 99.144C47.9711 98.7309 52.7398 97.3845 57.5452 95.9462C56.867 94.9299 57.9337 94.2595 58.7606 93.9103C60.0356 93.3719 61.3523 92.8988 62.6393 92.3849C65.5456 91.2236 68.3914 90.1407 71.435 89.4001C74.1917 88.729 76.8586 87.6153 79.5786 86.7985C82.3885 85.9545 85.148 84.9906 87.9122 84.0077C93.3862 82.0617 98.8657 80.0727 104.178 77.7121C105.521 77.1152 106.804 76.4229 108.1 75.7327C109.153 75.1718 110.388 74.7607 111.281 73.9507C112.133 73.1774 112.643 72.1013 113.57 71.3988C114.404 70.7665 115.545 70.7576 116.236 69.9721C117.171 68.9096 118.287 68.4429 119.556 67.8199C119.963 67.6198 122.646 66.6087 122.591 66.0349C120.674 66.0349 118.705 66.6055 116.81 66.8713C114.804 67.1523 112.8 67.465 110.78 67.6204C107.506 67.872 104.234 67.804 100.974 67.449C100.486 67.3961 98.5322 66.9948 98.1952 67.5174C97.9386 67.9157 98.5771 68.3899 98.5832 68.8177C98.5928 69.446 98.087 69.7829 97.5139 69.5644C96.3982 69.1403 96.5616 67.3419 96.6657 66.4293C96.8652 64.6836 97.309 62.954 97.6963 61.2436C95.3949 62.4155 93.2099 63.92 91.2278 65.5736C89.6929 66.8542 88.3063 68.5908 86.5052 69.5038C84.7756 70.3805 83.7471 69.6325 83.8179 67.7021C83.8506 66.8177 84.0296 65.9783 84.3359 65.1545C84.4802 64.7653 85.0744 63.6637 84.796 63.2491C83.2155 64.5101 81.6452 65.7744 79.9857 66.932C78.8129 67.7504 77.1118 69.0267 75.5803 68.7019C74.2278 68.4151 74.3599 66.9261 74.7887 65.9229C75.1603 65.0528 75.8288 64.2797 76.4911 63.6151C77.039 63.0659 77.8177 62.5737 78.0913 61.8123C76.2746 62.629 74.4041 63.2471 72.5009 63.8212C71.1477 64.2292 70.2016 65.9243 68.6278 65.6738C67.0522 65.4231 67.6797 63.4754 68.3085 62.6284C68.7483 62.0359 69.3575 61.5141 69.9477 61.0762C70.5235 60.6491 71.3996 60.2769 71.6827 59.5662C69.8422 59.9117 67.992 60.5126 66.098 60.4018C64.9733 60.3359 63.0959 59.8446 63.3179 58.3322C63.5428 56.8007 65.5813 56.6833 66.7276 56.3977C68.2906 56.0081 69.7864 55.2766 71.2948 54.7189C74.3367 53.5935 77.4386 52.6908 80.5513 51.7937L81.5349 51.5104C85.0486 50.4973 88.582 49.6345 92.1392 48.7929C93.8974 48.3769 95.6495 47.9231 97.422 47.5682C99.1359 47.2249 100.878 47.026 102.579 46.6155C101.145 44.4504 102.882 42.6712 104.757 41.6409C103.568 41.4003 102.358 41.2556 101.179 40.964C100.173 40.7151 99.2026 40.3326 98.1884 40.1123C96.4452 39.7338 94.7047 39.5347 93.2167 38.4549C90.4048 36.4145 90.1659 33.1674 92.5354 30.7104C94.9259 28.2305 98.4355 27.0693 101.812 26.954C105.593 26.825 109.894 27.558 113.431 28.897C115.169 29.5548 116.978 30.391 118.467 31.5112C119.481 32.2733 121.083 33.7333 122.443 33.7333C120.814 31.7628 118.815 29.7249 118.521 27.0561C118.243 24.5293 119.388 21.8435 121.31 20.2092C125.152 16.9445 131.491 17.24 136.2 17.4552ZM114.301 125.752C113.298 127.312 111.911 128.579 110.602 129.873C110.151 130.32 109.244 130.888 109.2 131.587C109.165 132.158 109.865 132.801 110.171 133.25C111.788 135.623 113.121 138.244 115.096 140.352C117.329 142.734 119.878 143.198 123.039 143.204C126.55 143.212 130.108 143.652 133.613 143.466C136.582 143.309 139.508 141.987 140.984 139.298C140.022 138.802 138.654 139.039 137.611 139.05C136.19 139.065 134.803 139.039 133.399 138.792C132.126 138.568 130.869 138.231 129.671 137.741C129.053 137.487 128.44 137.196 127.869 136.843C127.452 136.585 127.138 136.189 126.727 135.935C125.214 135.001 123.467 137.973 121.85 137.916C120.859 137.881 121.218 136.906 121.63 136.361C122.374 135.377 123.672 134.769 124.652 134.051C123.74 133.211 122.709 134.092 121.84 134.531C120.754 135.08 119.626 135.754 118.412 135.959C118.503 134.395 120.63 133.556 121.804 132.92C122.326 132.637 122.981 132.374 123.109 131.751C123.206 131.283 123.041 130.617 122.992 130.144C122.929 129.543 122.884 129.351 122.243 129.181C121.467 128.976 120.686 129.035 119.908 128.778C117.78 128.075 116.124 127.031 114.301 125.752ZM45.1405 101.098C44.6208 101.242 44.0958 101.366 43.568 101.478C42.5233 101.699 41.4772 101.927 40.4289 102.127C39.9031 102.228 39.3193 102.164 39.1643 102.667C39.0847 102.924 39.2851 103.386 39.3195 103.654C39.3813 104.135 39.3852 104.624 39.391 105.11C39.4458 109.583 38.5109 114.031 38.9226 118.503C39.2702 122.284 40.0839 127.063 42.8596 129.879C44.0577 131.094 45.5316 132.414 47.0401 133.244C48.2227 133.895 49.8747 132.262 50.1163 131.131C50.2893 130.321 50.0006 129.466 49.8127 128.684C49.5717 127.683 49.3276 126.682 49.0891 125.681C48.5795 123.544 48.1162 121.386 47.9698 119.188C47.9218 118.466 47.9321 117.771 47.9728 117.052C47.9949 116.661 48.1786 115.721 47.9057 115.386C47.5527 114.954 46.7462 115.237 46.2686 115.273C45.7449 115.314 45.2338 115.283 44.7223 115.15C43.5046 114.831 43.2912 113.862 44.6208 113.414C45.5491 113.101 47.246 113.555 48.0258 112.952C48.9422 112.244 47.0902 112.147 46.6577 112.129C46.0819 112.104 44.1719 112.255 44.2694 111.181C44.3415 110.385 45.9857 110.332 46.561 110.298C47.79 110.226 49.3451 110.686 49.8763 109.204C50.0893 108.61 48.8073 108.309 48.4857 108.014C47.7041 107.299 47.4478 106.071 47.3806 105.066C47.3145 104.077 48.2873 100.65 46.8052 100.559C46.3501 100.531 45.5936 100.972 45.1405 101.098ZM118.036 120.877C117.164 121.916 116.41 123.054 115.598 124.14C117.503 125.192 119.452 126.038 121.422 126.942C122.318 127.353 122.946 127.68 123.813 127.056C124.435 126.609 124.902 125.973 125.509 125.507C126.382 124.84 127.294 124.226 128.188 123.59C125.548 122.626 122.869 121.781 120.23 120.816C119.244 120.455 118.748 120.028 118.036 120.877ZM96.3043 117.577C96.8693 118.149 95.7822 119.735 95.5685 120.278C97.3185 120.139 99.0536 119.863 100.772 119.508C101.358 119.387 101.142 120.099 100.923 120.335C100.652 120.626 100.111 120.713 99.7486 120.818C98.4165 121.199 97.0503 121.383 95.6835 121.587C96.3091 122.357 97.8141 123.561 97.3294 124.719C96.4554 123.966 95.8265 122.963 94.8599 122.312C94.5801 122.728 94.0009 124.199 93.3658 124.109C92.3686 123.968 93.3787 122.249 93.587 121.835C92.9159 121.835 90.3926 122.425 90.0407 121.598C89.6799 120.752 92.1154 120.779 92.5653 120.579L92.4816 120.477L92.3972 120.375C92.0603 119.969 91.7369 119.569 91.6913 119.012C92.4449 119.271 92.9472 120.451 93.7749 120.468C94.5597 120.485 94.9096 119.306 95.1893 118.747C95.3479 118.429 95.8877 117.153 96.3043 117.577ZM181.211 106.452C182.898 107.876 181.752 110.747 180.475 112.037C179.045 113.484 175.861 114.812 174.048 113.338C173.055 112.531 173.413 111.3 173.658 110.227C173.929 109.034 174.099 108.029 175.086 107.211C176.622 105.937 179.499 105.008 181.211 106.452ZM177.786 107.28C176.14 107.629 174.472 109.275 174.081 110.97C173.568 113.193 175.875 113.356 177.395 113.022C179.307 112.602 181.339 111.199 181.436 108.999C181.52 107.1 179.065 107.007 177.786 107.28ZM58.0125 97.667C55.5478 98.5845 53.2309 99.8404 50.6448 100.385C49.8556 100.551 49.5315 100.733 49.3364 101.468C49.0631 102.497 48.804 103.541 48.9991 104.616C49.4043 106.849 52.5106 106.576 54.2355 106.488C55.1211 106.443 56.8243 106.605 57.5927 106.052C58.1539 105.649 57.9184 104.891 57.831 104.302C57.5038 102.099 57.8606 99.8683 58.0125 97.667ZM192.397 76.3882C191.49 76.5591 189.921 77.299 191.222 78.2267C192.09 78.8455 193.382 78.9203 194.401 79.0735C196.394 79.3716 198.52 79.6296 200.248 80.7541C203.452 82.8363 203.059 86.7672 202.101 89.9841C202.791 90.3905 204.818 87.7324 205.2 87.3002C206.749 85.5468 208.303 83.7988 209.865 82.0562C210.533 81.3116 205.055 78.7372 204.562 78.5058C201.96 77.2813 199.531 76.4747 196.612 76.2643C195.228 76.165 193.768 76.1296 192.397 76.3882ZM181.099 69.8687C180.85 70.4956 181.285 70.7801 181.685 71.213C183.924 73.6349 185.499 77.0628 186.745 80.0693C187.366 81.5682 187.802 83.08 188.187 84.651C188.564 86.1921 189.763 86.6039 191.2 87.0409C194.509 88.049 197.992 88.3866 201.314 89.3817C202.203 89.6485 202.377 87.6916 202.433 87.1954C202.593 85.783 202.445 84.3093 201.703 83.065C200.301 80.7119 197.49 80.2116 194.983 79.8107C193.549 79.582 191.659 79.3451 190.525 78.3649C189.956 77.8721 189.875 77.3078 190.319 76.6959C191.128 75.5809 192.555 75.4373 193.829 75.3468C194.45 75.3025 198.292 75.6905 198.417 75.2358C196.504 74.6123 194.541 74.2012 192.655 73.4878C191.185 72.9317 189.702 72.4062 188.219 71.8848L186.735 71.3648C185.226 70.8352 183.844 70.1913 182.396 69.5542C181.852 69.3146 181.353 69.2261 181.099 69.8687ZM213.549 80.0727C213.07 80.7173 212.595 81.2585 212.236 81.9827C211.817 82.8274 211.121 83.3666 210.54 84.0915C213.559 84.6245 216.438 85.301 219.346 86.2771C220.84 86.7781 222.382 87.0259 223.909 87.3853C225.19 87.6861 226.556 88.1531 227.883 87.8767C226.371 85.7939 222.341 86.3697 221.281 83.8471C220.558 82.1304 222.333 80.7616 223.783 80.4641C226.318 79.9434 229.019 79.9039 231.593 79.7181C231.62 78.7332 222.277 78.2233 221.353 78.143C219.713 78.0014 218.001 77.6938 216.363 77.6366C214.844 77.5842 214.347 78.9993 213.549 80.0727ZM177.897 72.8677C176.997 73.7376 176.116 74.6266 175.217 75.4986C174.625 76.071 173.825 76.6816 173.359 77.3636C172.764 78.2356 173.806 78.6542 174.5 79.0667C176.253 80.1081 178.064 81.0801 179.848 82.0705C181.449 82.9602 183.116 84.0928 184.884 84.6136C185.83 84.892 186.718 85.3242 187.63 85.689C187.19 81.7384 184.923 78.1498 182.831 74.856C182.351 74.0998 181.855 73.3537 181.375 72.5975C181.133 72.217 180.684 71.3185 180.177 71.2409C179.427 71.1259 178.351 72.428 177.897 72.8677ZM223.75 82.9234C224.846 83.5517 225.945 83.8709 227.181 83.3965C227.486 83.2719 227.787 83.1406 228.084 83.0024C227.26 81.8786 224.824 82.5633 223.75 82.9234ZM132.957 69.1737C131.014 70.0497 128.935 70.923 127.245 72.2449C126.621 72.7336 125.227 73.7588 125.553 74.6886C125.832 75.485 127.376 76.1636 128.108 76.4059C131.963 77.6822 136.35 76.7537 139.9 79.0966C140.86 79.7304 141.173 80.5587 141.887 81.3926C142.533 82.1468 143.349 82.0528 144.216 81.7397C145.355 81.3293 146.404 80.7003 147.548 80.2967C148.132 80.0904 149.126 79.9536 149.186 79.1647C149.472 75.4448 148.679 70.7059 145.401 68.4297C141.722 65.8747 136.646 67.5096 132.957 69.1737ZM130.873 77.8421C130.779 78.3139 134.426 79.1674 134.822 79.277C137.024 79.8835 139.082 81.3265 141.363 81.5593C141.759 80.6745 138.6 79.2654 138.1 79.0837C135.82 78.2546 133.268 78.1049 130.873 77.8421ZM202.491 76.1901C205.256 77.3235 207.936 78.7114 210.254 80.6411C211.053 81.3068 212.995 78.1485 213.43 77.6638C209.747 77.5107 206.118 76.8082 202.491 76.1901ZM150.812 53.971C148.25 55.665 146.017 57.8801 143.203 59.1789C144.083 59.3175 145.045 58.7472 145.886 58.5471C146.705 58.3524 147.533 58.2239 148.33 57.9481C148.82 57.7787 150.842 56.685 151.222 57.4263C151.815 58.5841 147.638 59.3852 147.044 59.5828C145.039 60.2495 143.047 60.948 141.061 61.6736C139.139 62.3764 137.217 63.1327 135.23 63.6375C133.213 64.1501 131.073 64.2822 129.133 65.0784C127.418 65.7824 125.943 66.9476 124.288 67.7699C122.629 68.5945 120.743 69.1049 119.313 70.3315C120.868 71.9924 122.707 73.383 124.72 74.4415C125.042 71.9093 128.009 70.467 130.039 69.4936C134.464 67.3717 141.11 64.1717 145.62 67.7679C148.917 70.3962 149.363 75.3835 149.363 79.2872C150.256 79.0034 151.072 78.5507 151.901 78.1233C152.475 77.8279 152.482 77.0035 152.554 76.4536C152.673 75.5517 152.916 74.679 153.196 73.8146C153.815 71.9018 154.59 70.0361 155.327 68.1674C156.523 65.1449 157.995 62.164 158.729 58.9843C159.209 56.9091 159.779 53.3422 157.278 52.3122C155.114 51.4211 152.569 52.81 150.812 53.971ZM139.619 45.5244C139.201 45.8046 139.357 46.6453 139.385 47.0671C139.489 48.6008 139.424 50.1409 139.475 51.6774C139.538 53.5496 139.551 56.9826 141.481 58.0324C142.801 58.7503 144.443 57.6745 145.496 56.9419C147.278 55.7029 148.913 54.2639 150.72 53.0542C152.861 51.6202 156.92 49.6365 158.97 52.3341C160.079 53.7942 159.923 55.9698 159.647 57.6686C159.282 59.9099 158.429 62.0356 157.58 64.1302C155.83 68.4553 154.002 72.8507 153.028 77.429C155.248 76.1091 156.975 74.2066 158.913 72.5349C160.349 71.296 162.482 69.8734 162.814 67.8546C162.888 67.3986 163.33 67.0737 163.633 66.7687C164.028 66.3717 164.306 65.9695 164.557 65.4632C165.109 64.3445 165.468 63.1362 165.694 61.9121C166.169 59.3439 165.943 56.7876 165.505 54.2345C165.307 53.0799 165.598 51.8411 165.328 50.7156C165.141 49.9342 164.59 49.9804 163.857 49.8027C161.216 49.1626 158.57 48.542 155.928 47.9079C154.854 47.6502 153.687 47.1668 152.573 47.1829C151.658 47.1962 150.89 47.7417 150.101 48.1369C148.804 48.7857 146.744 49.9209 145.255 49.2756C143.522 48.5238 145.543 46.8262 144.673 46.0231C144.076 45.4724 142.294 45.8027 141.486 45.6658C141.043 45.5909 140.025 45.2519 139.619 45.5244ZM166.909 67.7029C165.648 67.9018 164.918 68.4492 164.223 69.5229C163.517 70.6147 163.433 71.1552 164.44 72.0094C165.525 72.9304 166.661 73.8397 167.813 74.6695C169.274 75.7211 170.895 76.5169 172.338 77.5937C172.97 78.0654 175.84 74.3673 176.338 73.8602C177.025 73.1611 177.73 72.4593 178.466 71.8154C178.736 71.5799 179.58 71.034 179.581 70.6337C179.581 69.6223 177.339 68.7174 176.618 68.4388C175.001 67.815 173.306 67.5633 171.584 67.5372C170.057 67.5141 168.422 67.4642 166.909 67.7029ZM172.53 63.2528C171.346 63.8818 170.108 64.4119 168.917 65.0278C168.495 65.2462 165.829 66.3664 165.964 67.036C168.963 66.8458 171.95 66.338 174.939 66.9189C176.282 67.1799 177.562 67.6173 178.684 68.4245C179.534 69.0355 180.182 70.2097 181.026 69.1642C179.303 68.1878 177.752 66.8933 176.224 65.6363C175.555 65.0861 174.867 64.5686 174.188 64.0333C173.785 63.715 173.119 62.94 172.53 63.2528ZM101.579 48.6293C100.64 48.7611 99.7261 49.0098 98.8044 49.2233C95.0709 50.0884 91.3238 50.8651 87.6004 51.7805C80.1735 53.6064 72.5247 55.367 65.4428 58.2922C66.0382 58.9507 67.616 58.4737 68.355 58.3445C69.8013 58.0917 71.2049 57.6499 72.6343 57.3164C74.0318 56.9904 75.4353 56.6015 76.8443 56.3297C77.4937 56.2046 78.6386 56.0398 78.6645 57.0133C78.7019 58.3936 76.0214 59.4257 75.0378 59.9302C73.9855 60.4697 72.9672 61.0659 71.9652 61.6931C71.1736 62.1892 69.7135 62.8502 69.4569 63.8359C72.0265 62.747 74.5967 61.6625 77.15 60.5369C78.1118 60.1129 79.0865 59.7133 80.002 59.196C80.6126 58.851 81.3981 58.2457 82.121 58.1913C83.0998 58.1176 83.2618 59.0068 82.85 59.7242C82.3333 60.6223 81.2688 61.129 80.4853 61.7574C79.4867 62.5588 78.6025 63.5042 77.7034 64.4114C76.9573 65.1643 75.9962 65.9057 75.6062 66.9238C76.9485 67.3727 78.4725 65.9336 79.4588 65.2223C81.0081 64.1043 82.4511 62.8884 83.9295 61.6804C84.6858 61.0624 85.5877 60.0615 86.5828 59.877C87.8441 59.6429 87.7393 61.0857 87.4337 61.8809C86.7503 63.6585 85.1493 65.1407 85.035 67.1446C84.9649 68.3783 86.009 67.9086 86.706 67.4139C87.8795 66.5804 88.6739 65.3104 89.7391 64.3546C92.3033 62.0525 95.2397 60.0887 98.4124 58.7251C98.9801 58.4809 99.1843 57.6048 99.3572 57.0782C99.6145 56.2922 99.9105 55.5301 100.22 54.7619C100.899 53.0791 101.455 51.2604 102.406 49.706C102.671 49.2725 103.355 48.8307 102.789 48.5757C102.481 48.4373 101.897 48.5845 101.579 48.6293ZM128.662 45.7827C127.701 45.895 126.729 45.8847 125.766 45.9863C124.194 46.152 124.88 48.0644 124.627 49.2168C123.881 52.6089 120.287 53.2495 117.564 51.6492C116.032 50.7486 115.112 49.458 114.288 47.9482C113.818 47.0875 113.468 46.949 112.497 47.1644C111.83 47.3124 111.223 47.281 110.545 47.3302C109.691 47.3921 109.616 47.5732 109.599 48.386C109.584 49.1079 109.48 49.6079 109 50.1926C108.084 51.3065 106.549 52.0398 105.241 52.5995C103.931 53.1603 102.447 53.5772 101.727 54.9027C101.364 55.5711 100.976 56.3689 100.871 57.1286C100.756 57.9585 101.038 58.4735 100.554 59.2391C99.5477 60.8307 99.0869 62.5701 98.5785 64.379C98.4131 64.9682 98.347 65.2107 98.9903 65.3727C99.9126 65.6053 101.223 65.2524 102.17 65.2153C102.845 65.1888 103.24 63.9975 103.459 63.5147C103.886 62.5761 104.409 61.6873 104.933 60.7989C106.121 58.7865 107.391 56.7875 108.942 55.0292C110.113 53.7021 111.842 52.05 113.342 53.9149C114.802 55.7322 115.855 57.8609 117.613 59.4451C119.159 60.8384 120.752 60.8607 122.355 59.5402C123.932 58.2401 125.132 56.4663 126.113 54.6966C127.174 52.7828 127.974 50.7395 129.008 48.8143C129.332 48.2108 130.828 46.5783 130.372 45.8792C130.065 45.4069 129.095 45.7324 128.662 45.7827ZM136.711 45.3653C135.865 45.4053 135.014 45.3102 134.168 45.2932C132.636 45.263 131.356 45.3165 130.587 46.7843C129.909 48.0797 129.33 49.4578 128.711 50.7842C127.366 53.6657 126.045 56.614 123.98 59.066C122.15 61.2383 119.785 62.3327 117.405 60.2575C116.349 59.3374 115.547 58.1503 114.79 56.9835C114.182 56.048 113.489 54.4018 112.472 53.8565C111.337 53.2485 110.038 54.6431 109.345 55.3999C108.179 56.6721 107.205 58.1684 106.269 59.6131C105.59 60.661 104.941 61.7309 104.281 62.791C104.014 63.221 102.924 64.6271 103.287 65.1626C103.65 65.6996 105.425 65.3325 105.938 65.2834C107.164 65.1665 108.388 65.1243 109.614 65.0186C113.43 64.6904 117.188 63.8519 121.012 63.628C123.532 63.4804 126.014 62.9932 128.494 62.5505C130.905 62.1202 133.333 61.8266 135.718 61.2578C137.121 60.9234 138.526 60.5885 139.926 60.2416C140.41 60.1216 142.699 59.7943 142.842 59.1645C141.265 58.8892 140.438 58.2774 139.879 56.7385C139.178 54.8114 139.097 52.6636 139.037 50.633C139.014 49.8518 139.011 49.0703 139.01 48.2888V47.3512C139.01 46.7907 139.252 45.7737 138.747 45.385C138.28 45.0253 137.252 45.3394 136.711 45.3653ZM168.008 57.8106C168.074 60.3501 167.621 62.9095 166.578 65.2296C167.668 65.4044 168.966 64.0354 169.88 63.5769C170.233 63.4001 172.566 62.5518 171.785 61.9032C170.347 60.7104 169.405 59.0438 168.008 57.8106ZM199.284 59.8757C199.604 60.5072 199.209 61.3086 198.994 61.9076C200.659 62.3077 202.316 62.7008 203.993 63.0404C205.257 63.2963 204.816 64.0546 203.719 64.0023C202.194 63.9297 200.774 63.283 199.256 63.1991C197.81 63.119 197.64 64.3822 196.407 64.6255C196.449 63.9304 197.011 63.4478 197.415 62.9265C196.749 62.585 196.07 62.2675 195.424 61.8912C195.089 61.6963 194.166 60.8789 194.522 60.4446C194.88 60.0063 195.822 60.8277 196.157 61.0087C196.633 61.2659 197.583 61.8328 198.144 61.6702C198.911 61.4474 198.751 60.3453 199.284 59.8757ZM175.304 43.3297C174.629 43.3765 173.894 43.1493 173.255 43.4466C172.617 43.7431 171.856 44.392 171.323 44.8422C170.807 45.2779 170.55 45.807 169.908 46.0642C169.267 46.3213 168.61 46.2986 168.363 47.0829C168.945 47.2425 170.087 47.0308 170.542 47.4586C171.205 48.081 170.049 48.7659 169.569 48.9619C168.881 49.2428 168.318 49.1516 167.615 49.0989C167.309 49.0762 167.312 48.9821 167.061 49.1336C166.132 49.6959 166.775 51.696 167.077 52.4256C168.552 55.9969 173.593 54.7943 176.501 54.4285C175.576 53.496 174.061 52.4673 173.984 51.0027C173.962 50.5665 174.07 49.7871 174.629 49.7508C175.077 49.7218 175.614 50.3981 175.893 50.6647C176.718 51.4548 177.788 52.765 178.982 52.8783C180.579 53.0299 181.808 50.4421 182.47 49.3134C181.656 49.1604 180.764 49.1694 180.291 48.3703C179.728 47.4206 179.719 45.9656 179.728 44.8964C179.737 43.9861 180.027 42.9901 178.811 42.9454C177.691 42.9043 176.435 43.2513 175.304 43.3297ZM68.0657 45.6647C67.8329 46.1725 66.8219 46.3715 66.3779 46.5073C64.6894 47.0233 63.0406 47.6788 61.3944 48.3215C58.0709 49.6194 54.7838 51.053 51.749 52.9604C51.1819 53.3171 51.4597 52.6291 51.607 52.3811C51.9373 51.8249 52.6312 51.4314 53.1495 51.0907C54.5519 50.1686 56.0373 49.5208 57.588 48.904C60.691 47.6699 63.8412 46.3613 67.0236 45.3616C67.3928 45.2457 68.3783 44.9824 68.0657 45.6647ZM106.61 48.1793C105.993 48.2431 105.271 48.1028 104.677 48.3042C103.904 48.5667 104.032 49.0977 103.803 49.7507C103.415 50.8591 102.999 51.9583 102.594 53.061C104.093 52.991 105.53 51.8038 106.8 51.1203C107.519 50.7335 110.019 49.4495 109.265 48.274C108.788 47.53 107.295 48.1082 106.61 48.1793ZM123.671 46.2469C122.743 46.2301 121.722 46.5113 120.783 46.558C119.523 46.6206 118.283 46.8604 117.025 46.9182C116.197 46.9565 115.384 47.1267 114.566 47.2382C115.38 49.1265 116.97 50.7782 118.968 51.4622C120.545 52.0018 122.751 52.0934 123.828 50.6002C124.447 49.7414 125.459 46.2792 123.671 46.2469ZM172.008 38.447C170.996 39.1197 170.185 40.0837 169.339 40.9438C167.221 43.0979 165.029 45.4042 164.112 48.357C163.986 48.7615 164.941 49.1189 165.2 49.1346C165.746 49.1676 165.857 48.892 166.071 48.4303C166.602 47.2871 166.806 46.0099 167.655 45.0352C168.689 43.8467 169.935 42.688 171.136 41.667C171.952 40.9732 173.952 39.9963 174.186 38.8493C174.463 37.4933 172.621 38.0397 172.008 38.447ZM145.897 46.2935C145.326 46.4601 145.28 46.99 145.149 47.5609C144.622 49.8549 149.944 47.3521 150.685 46.977C150.439 46.2406 148.014 46.3749 147.452 46.346C147.014 46.3237 146.321 46.1704 145.897 46.2935ZM177.331 47.485C176.543 47.5155 176.906 44.2929 177.803 44.617C178.571 44.8953 177.837 47.4652 177.331 47.485ZM66.4749 43.7798C65.2674 44.8225 63.3717 44.9624 61.8705 45.2971C59.6583 45.7903 57.4654 46.4188 55.2712 46.986C53.8856 47.3442 54.6656 46.4902 55.3594 46.1692C56.5522 45.6174 57.9027 45.3233 59.1776 45.0197C60.5579 44.691 61.9683 44.4715 63.3407 44.113C64.291 43.8645 65.5166 43.2291 66.4749 43.7798ZM104.039 21.369C105.38 21.6156 106.72 22.0449 107.897 22.7482C108.87 23.3304 108.832 24.2363 107.597 23.7107C101.839 21.2584 94.6931 22.7439 89.07 24.9154C88.4493 25.1548 88.4955 24.6324 88.6834 24.2296C88.9414 23.6748 89.4934 23.3528 90.023 23.0952C91.6144 22.3208 93.4489 21.883 95.1791 21.5613C98.0632 21.0252 101.141 20.8369 104.039 21.369ZM104.88 17.8467C105.612 18.0452 106.453 18.5378 106.9 19.1626C107.424 19.8937 107.007 20.2674 106.281 19.8374C105.47 19.3575 104.728 18.879 103.797 18.6255C103.306 18.4919 103.326 18.1835 103.679 17.9128C104.009 17.6593 104.522 17.7493 104.88 17.8467Z" fill="white"/>
<g style="mix-blend-mode:overlay">
<path fill-rule="evenodd" clip-rule="evenodd" d="M187.979 49.5632L225.401 38.3115L229.228 47.2049L192.166 63.2244L187.979 49.5632Z" fill="#FF6DFB"/>
</g>
<g style="mix-blend-mode:overlay">
<path fill-rule="evenodd" clip-rule="evenodd" d="M202.34 27.9438L239.568 16.0542L242.977 23.5844L205.914 39.6057L202.34 27.9438Z" fill="#FF6DFB"/>
</g>
<g style="mix-blend-mode:overlay">
<path fill-rule="evenodd" clip-rule="evenodd" d="M17.1653 136.589L54.5875 125.337L58.4145 134.23L21.3523 150.25L17.1653 136.589Z" fill="#FF6DFB"/>
</g>
<g style="mix-blend-mode:overlay">
<path fill-rule="evenodd" clip-rule="evenodd" d="M31.5266 114.97L68.7544 103.08L72.1632 110.61L35.1005 126.632L31.5266 114.97Z" fill="#FF6DFB"/>
</g>
</g>
</g>
</g>
<defs>
<clipPath id="clip0_2868_81324">
<rect width="243.004" height="148.59" fill="white" transform="translate(0.497803 0.705078)"/>
</clipPath>
<clipPath id="clip1_2868_81324">
<rect width="263.491" height="161.117" fill="white" transform="translate(0.497803 0.705078)"/>
</clipPath>
</defs>
</svg>
