<svg width="18" height="17" viewBox="0 0 18 17" fill="none" xmlns="http://www.w3.org/2000/svg">
<g id="Essentials/sandclock">
<path id="Icon" d="M4.04199 1.41669H13.9587M4.04199 15.5834H13.9587M4.75033 1.41669V4.25002C4.75033 6.59723 6.65312 8.50002 9.00033 8.50002M13.2503 15.5834V12.75C13.2503 10.4028 11.3475 8.50002 9.00033 8.50002M9.00033 8.50002C6.65312 8.50002 4.75033 10.4028 4.75033 12.75V15.5834M9.00033 8.50002C11.3475 8.50002 13.2503 6.59723 13.2503 4.25002V1.41669M11.1253 4.25002C11.1253 5.42363 10.1739 6.37502 9.00033 6.37502C7.82672 6.37502 6.87533 5.42363 6.87533 4.25002M6.87533 13.4584H11.1253" stroke="black" stroke-linecap="round"/>
</g>
</svg>
