<svg width="179" height="121" viewBox="0 0 179 121" fill="none" xmlns="http://www.w3.org/2000/svg">
<g id="character/selfie">
<g id="Ink">
<path id="ink-shape" fill-rule="evenodd" clip-rule="evenodd" d="M170.894 40.5492C170.691 42.1243 170.836 43.8412 169.057 44.2561C167.412 44.6403 165.606 44.533 163.929 44.6673C162.044 44.8186 160.164 45.0258 158.282 45.2122C155.911 45.447 156.249 44.5355 155.731 42.5103C155.257 40.661 154.5 38.8147 153.871 37.0112C153.579 36.1725 153.23 35.4016 152.831 34.6114C152.47 33.8962 152.642 32.9233 152.253 32.3221C150.925 30.271 144.449 35.88 143.847 34.7743C144.943 33.9213 146.839 32.9669 147.175 31.5072C147.57 29.7917 146.48 29.2795 145.11 29.9067C141.739 31.4509 137.848 32.6577 134.172 33.2204C135.361 32.4258 146.115 26.1622 142.506 24.3043C141.693 23.8856 140.606 24.6738 139.873 24.972C138.708 25.4454 137.492 25.7628 136.277 26.0729C134.996 26.3997 133.712 26.7142 132.425 27.0114C131.521 27.2199 129.911 27.9605 129.031 27.7777C128.138 27.592 129.72 27.0374 129.979 26.9068C131.109 26.3375 132.221 25.7259 133.325 25.1065C135.281 24.0075 137.089 22.7345 138.578 21.0352C139.701 19.7531 141.556 16.9532 140.774 15.1803C140.321 14.1527 139.328 13.2028 138.744 12.2292C138.063 11.0921 137.513 9.87996 136.922 8.69526C137.912 9.13055 139.023 9.24197 140.034 9.63269C141.045 10.0237 142.071 10.34 143.123 10.6307C145.232 11.2136 147.336 11.3172 149.426 11.79C151.793 12.325 154.258 12.9233 156.662 13.2325C158.756 13.5013 160.638 14.0741 162.432 15.2152C166.094 17.5462 168.635 20.8948 169.92 25.0358C170.673 27.4617 170.856 29.9927 170.945 32.5167C171.038 35.1775 171.235 37.9001 170.894 40.5492ZM150.338 40.7451C147.78 42.6095 144.799 44.0659 142.054 45.6523C140.483 46.5594 138.879 47.4068 137.277 48.2575C136.14 48.8607 134.759 49.9712 133.507 50.2807C132.716 50.4766 132.775 50.4916 132.274 49.7697C131.795 49.0811 131.377 48.3391 130.929 47.6291C130.102 46.3208 129.268 45.017 128.435 43.7131C126.564 40.7909 124.698 37.8693 122.733 35.0093C120.762 32.1391 118.871 29.2163 116.962 26.3056C116.075 24.9524 115.193 23.594 114.251 22.278C113.532 21.2731 111.688 19.7404 112.564 18.5573C113.377 17.4582 115.229 16.5453 116.325 15.7134C117.664 14.6978 119.011 13.6926 120.346 12.6718C123.217 10.4773 126.013 8.18728 128.881 5.98988C131.315 10.2586 134.179 14.2605 137.068 18.2292C134.456 19.8958 131.817 21.48 129.064 22.9068C127.031 23.9606 123.921 25.3845 122.637 27.3835C121.372 29.3518 122.615 31.6229 124.869 31.6591C126.218 31.6806 127.562 31.3235 128.884 31.1195C129.838 30.9723 131.581 30.2844 132.441 30.7692C130.895 31.7559 125.284 34.6313 128.308 37.1524C130.47 38.9547 134.126 36.3244 136.461 36.8662C135.749 38.2316 135.009 40.4105 136.985 41.1538C138.629 41.7721 140.782 40.6195 142.261 40.0081C143.331 39.5668 144.393 39.1104 145.445 38.6283C146.281 38.2447 147.282 37.4682 148.176 37.3025C149.218 37.1091 151.341 40.0144 150.338 40.7451ZM102.79 141.419C104.253 141.152 105.005 140.547 105.466 142.324C105.879 143.915 106.288 145.447 106.82 147.009C104.534 147.207 102.518 148.298 100.851 149.833C99.6638 150.927 97.3028 153.537 97.8879 155.369C99.3098 159.82 106.491 149.835 107.345 148.768C108.39 150.294 108.774 152.293 109.293 154.039C109.663 155.281 111.034 157.663 109.221 157.965C106.676 158.389 101.901 159.337 102.202 162.941C102.558 167.196 107.972 167.171 111.009 167.363C112.721 167.47 112.729 168.842 112.972 170.377C113.081 171.064 113.422 171.991 112.839 172.494C112.321 172.94 110.736 172.952 110.062 173.097C108.098 173.519 106.135 173.948 104.172 174.369C101.942 174.848 100.763 174.178 98.6789 173.567C97.9074 173.341 97.1321 173.436 97.0756 172.573C97.0404 172.043 97.5596 171.223 97.7291 170.699C98.402 168.625 98.9745 166.49 99.1679 164.311C99.4491 161.146 99.0976 156.402 95.1998 155.784C93.3461 155.49 92.9895 155.394 92.1521 153.655C91.2469 151.773 89.8093 150.031 90.1564 147.863C90.4082 146.292 89.9838 143.32 90.9863 142.018C91.4502 141.416 92.3536 141.056 92.97 140.614C93.756 140.05 94.5131 139.447 95.2457 138.816C95.8615 138.286 96.6123 137.249 97.311 136.865C98.1641 136.397 98.1905 136.716 98.8032 137.448C99.7078 138.528 101.146 141.719 102.79 141.419ZM106.926 148.45C106.419 149.474 105.247 150.425 104.501 151.279C103.75 152.139 103.039 153.047 102.201 153.825C101.28 154.683 98.0053 156.753 98.7266 153.966C99.2884 151.798 101.388 150.042 103.237 148.961C103.595 148.751 107.784 146.719 106.926 148.45ZM110.508 158.77C110.833 160.221 111.007 161.716 111.285 163.178C111.427 163.925 112.213 165.729 111.893 166.448C111.349 167.666 106.464 166.224 105.452 165.805C103.042 164.807 101.935 162.247 104.158 160.422C105.001 159.731 110.184 157.319 110.508 158.77ZM113.71 176.195C113.983 177.581 114.779 178.865 113.463 179.912C112.37 180.781 110.58 181.374 109.234 181.684C107.399 182.106 106.809 181.077 105.838 179.755C104.793 178.334 103.681 176.96 102.528 175.625C106.15 174.814 109.773 174.003 113.396 173.193C113.393 174.202 113.516 175.207 113.71 176.195ZM105.03 182.624C103.142 182.526 101.109 183.094 99.193 183.244C96.8 183.431 94.4145 183.703 92.0196 183.863C92.6329 181.906 93.7353 180.16 94.5972 178.312C95.4622 176.457 96.0693 176.256 98.0586 176.113C99.9024 175.98 101.202 175.345 102.563 176.909C103.978 178.536 105.26 180.303 106.553 182.027C106.113 182.321 105.588 182.653 105.03 182.624ZM91.5268 183.024C91.0604 183.363 89.6235 182.398 89.1388 182.211C88.1966 181.846 87.9875 181.73 87.496 180.811C87.0735 180.02 86.4012 179.123 86.2688 178.221C86.0942 177.032 86.6203 175.467 86.8118 174.285C87.3221 175.515 88.9964 175.658 90.1276 175.859C90.9832 176.011 93.5187 175.769 94.164 176.378C94.8765 177.051 93.5645 178.928 93.2224 179.636C92.8144 180.479 92.3103 182.453 91.5268 183.024ZM90.6134 183.998C90.0529 184.089 88.4383 184.648 88.4703 183.623C88.5067 182.453 90.7277 183.715 90.6134 183.998ZM87.7685 183.938C87.6661 184.922 85.5456 184.841 85.4972 183.974C85.4144 182.509 87.9317 182.364 87.7685 183.938ZM85.3441 157.367C84.8017 158.91 81.4997 159.463 80.2316 159.938C79.0734 160.372 75.6132 162.376 74.4192 161.649C78.4613 158.871 82.6039 156.149 86.0289 152.602C86.1689 153.479 85.9555 154.21 85.6975 155.039C85.464 155.788 85.5839 156.682 85.3441 157.367ZM84.3384 162.996C83.7571 166.778 83.1858 170.61 82.3986 174.353C80.8989 173.895 79.6622 172.966 78.086 172.642C76.6478 172.347 75.1625 172.34 73.7124 172.556C70.6226 173.015 67.868 174.543 65.1724 176.033C64.9232 173.439 64.4071 170.664 64.4687 168.062C64.5189 165.9 68.2189 165.259 69.8975 164.367C70.9126 163.826 71.831 163.067 72.9873 162.878C74.1782 162.684 75.3263 162.69 76.5027 162.327C79.2824 161.47 81.8989 160.11 84.6228 159.097C84.845 160.394 84.5361 161.717 84.3384 162.996ZM81.7407 179.001C81.6171 179.86 81.7734 181.394 81.118 182.05C80.5009 182.667 79.1833 182.687 78.3697 182.854C75.8913 183.364 73.4148 183.879 70.9402 184.405C69.8328 184.64 68.7255 184.865 67.6137 185.075C67.0833 185.175 65.7531 185.684 65.3067 185.262C64.883 184.861 65.1981 183.581 65.2207 183.044C65.2665 181.971 65.3274 180.895 65.2596 179.823C65.1309 177.764 65.2452 176.976 67.1611 175.912C69.1969 174.78 71.2993 174.005 73.5906 173.586C75.9101 173.161 78.1199 173.394 80.3277 174.284C80.9422 174.531 81.8638 174.837 82.15 175.499C82.5386 176.401 81.8719 178.087 81.7407 179.001ZM78.9504 212.178C78.042 212.748 76.0652 212.65 75.0219 212.766C73.3363 212.952 71.6408 212.846 69.9665 212.586C68.7066 212.391 66.8259 212.119 65.8598 211.235C64.4875 209.978 66.0713 209.92 67.1216 210.009C70.1743 210.266 73.266 210.087 76.3163 209.866C76.9102 209.823 78.5065 209.301 79.0791 209.546C79.811 209.858 79.5869 211.779 78.9504 212.178ZM77.2196 232.489C71.5309 231.936 68.2333 227.227 66.1699 222.413C65.0631 219.828 65.4624 217.115 65.3532 214.382C65.3331 213.883 65.0198 212.644 65.5327 212.271C66.0154 211.92 67.9665 213.004 68.4945 213.133C71.2001 213.796 74.1926 213.86 76.9039 213.215C78.0784 212.937 78.7363 212.418 79.1098 213.581C79.4099 214.519 78.9171 216.246 78.8631 217.229C78.7702 218.928 79.0364 232.665 77.2196 232.489ZM65.856 232.494C65.834 231.67 65.4178 223.333 65.8215 223.308C67.0218 225.896 68.2547 228.212 70.4392 230.116C71.5554 231.089 72.8103 231.966 74.2058 232.488C74.7306 232.685 77.7018 232.833 77.8474 233.484C78.1023 234.622 76.0734 234.162 75.472 234.07C74.9892 233.995 74.5548 233.79 74.0809 233.704C73.1788 233.54 72.3263 233.76 71.4198 233.778C70.0431 233.806 68.6916 233.662 67.3137 233.781C66.055 233.89 65.8893 233.746 65.856 232.494ZM66.6953 195.102C71.5654 193.528 75.6352 196.509 78.2052 200.41C79.6704 202.635 79.9981 204.19 79.742 206.824C79.6497 207.767 79.8192 208.405 78.9522 208.789C78.0941 209.17 76.1443 208.888 75.2158 208.931C72.5454 209.056 69.8849 209.222 67.2145 209.063C65.48 208.961 65.2345 208.667 65.2647 206.983C65.3004 204.957 65.1322 202.939 65.0173 200.909C64.893 198.713 64.1391 195.928 66.6953 195.102ZM65.1021 192.183C65.1052 190.694 65.0154 189.166 65.1065 187.68C65.1975 186.206 65.8246 186.278 67.2164 186.027C70.2302 185.482 73.2409 184.872 76.214 184.134C77.3898 183.842 78.7187 183.282 79.9441 183.277C81.2298 183.272 81.1613 183.932 81.076 185.071C80.8851 187.592 80.4231 190.076 80.2825 192.584C80.1312 195.29 80.0515 198.031 80.0634 200.74C80.0678 201.655 80.29 202.332 79.5103 201.476C78.7294 200.619 78.3477 199.253 77.6503 198.289C76.2221 196.316 74.1003 194.729 71.745 194.061C70.4424 193.692 69.0732 193.628 67.7455 193.895C67.3425 193.976 65.3249 194.939 65.0682 194.749C64.8943 194.62 65.1021 192.243 65.1021 192.183ZM82.9172 243.793C84.8488 245.176 86.9875 246.293 89.1527 247.263C90.3711 247.809 95.1936 248.957 95.3474 250.186C95.4296 250.841 94.6305 251.576 94.1069 251.653C93.4427 251.752 92.3486 251.318 91.6725 251.236C89.2129 250.937 86.7584 250.935 84.3585 250.251C79.5668 248.883 74.5994 248.498 69.7581 247.306C68.6062 247.023 67.4511 246.757 66.2935 246.5C65.1937 246.256 64.7009 246.298 64.6626 245.123C64.5766 242.544 65.3168 239.902 65.3224 237.291C69.239 237.738 73.1687 237.732 77.096 238.1C78.779 238.257 78.7401 238.576 79.4771 240.046C80.2429 241.572 81.5449 242.811 82.9172 243.793ZM63.8208 160.006C63.7712 159.052 63.7323 158.095 63.6463 157.142C63.5879 156.503 63.0035 154.715 63.3331 154.216C63.7248 153.625 64.119 153.986 64.8196 153.97C65.743 153.948 66.5158 153.577 67.2772 153.091C68.7192 152.171 69.7914 150.961 70.7274 149.548C71.5504 148.305 71.3972 146.606 71.3872 145.118C71.3614 141.268 71.642 137.513 71.4066 133.646C71.2987 131.87 72.8153 132.959 74.0394 133.189C76.0426 133.565 78.2197 133.305 80.2555 133.31C80.1795 133.784 76.0169 134.959 75.3445 135.406C73.6226 136.551 72.6188 138.382 72.7758 140.47C73.0921 144.671 77.7187 145.373 81.0998 145.381C78.295 147.861 75.5398 150.225 73.3351 153.284C71.7098 155.54 68.8466 159.987 71.5039 162.483C69.1549 163.817 66.8271 165.301 64.1699 165.943C64.0512 163.964 63.9238 161.986 63.8208 160.006ZM62.7543 83.3264C63.7103 83.941 64.1127 83.0722 64.8409 82.6227C65.8654 81.9893 66.205 82.0515 66.335 80.6365C66.5754 78.0118 65.4712 75.6358 64.0845 73.4882C63.4548 72.5121 62.8258 71.3495 61.9363 70.5861C61.1252 69.8906 60.306 70.1297 59.5546 69.4109C59.2595 69.1278 59.3229 68.7292 58.8352 68.7405C58.5138 68.748 57.7335 69.7424 57.4686 69.9621C56.6305 70.6552 55.606 71.1831 54.5081 70.6112C52.9098 69.7788 53.4233 66.7587 54.6644 65.78C55.6204 65.0267 56.7504 65.1428 57.8389 65.0217C58.655 64.9307 58.8245 64.9664 58.4887 64.0323C58.2539 63.3782 57.7115 62.8678 57.4434 62.2288C56.9281 61.0003 57.0404 59.5081 56.8182 58.208C56.6186 57.0435 56.1515 55.7836 56.1685 54.6009C56.1904 53.0949 56.6826 52.7038 57.9877 52.2814C59.252 51.8727 60.2991 50.9712 61.3757 50.2135C62.5948 49.356 63.93 48.7898 65.1824 48.0064C66.033 47.4746 66.5817 46.3999 67.5171 46.9021C68.6282 47.4985 69.8033 49.2261 70.7481 50.1087C69.3652 50.9857 69.0438 51.3699 69.2346 53.0874C69.4091 54.6624 69.7299 56.0655 70.9339 57.1628C71.3966 57.5847 72.2597 57.9218 72.6182 58.4083C73.0363 58.9745 72.7645 58.4754 72.7117 59.1145C72.6835 59.4591 72.4104 59.6845 72.47 60.0831C72.7356 61.8534 74.7689 60.8088 75.6069 60.1936C78.6013 57.9971 73.0105 56.2526 71.6828 55.4522C70.7657 54.8991 70.3124 53.1345 71.7651 53.6034C72.7312 53.9154 74.9145 56.5589 75.1361 54.1489C77.5329 55.5407 79.0113 58.4974 81.0207 60.3675C82.4696 61.7159 84.4162 63.2112 83.2662 65.3644C81.8004 68.1096 78.8939 69.3557 76.241 70.5397C73.6672 71.6884 74.202 74.939 75.5774 76.9283C76.3728 78.079 77.4149 78.7526 78.6685 79.3113C79.9491 79.8825 80.2147 80.5536 80.4947 81.8782C80.8054 83.3478 80.4752 83.9404 79.2027 84.6993C77.9598 85.4407 76.6609 86.1589 75.3339 86.7395C72.4656 87.9944 69.4895 88.0735 66.4386 88.5016C65.3689 88.6517 64.3437 88.9637 63.7599 87.9034C63.1039 86.7106 63.0556 84.6566 62.7543 83.3264ZM62.2929 77.6182C61.5747 77.2397 59.8415 78.4965 58.9337 78.5517C57.4654 78.6402 56.5012 78.6069 55.198 79.3854C52.734 80.8575 50.6888 82.7533 48.7132 84.8086C46.4878 87.1237 44.275 89.4508 42.0565 91.7722C41.0515 92.8244 40.0408 93.8708 39.0201 94.9066C38.2153 95.7227 37.4281 96.8709 36.4324 97.4541C36.4839 96.7617 36.9083 96.272 37.0589 95.6304C37.1468 95.2557 36.9937 94.9368 37.0502 94.5777C37.069 94.4616 37.3822 94.056 37.4293 93.9229C37.5568 93.572 37.7124 93.2255 37.8631 92.8614C38.0037 92.5212 37.9836 92.1684 38.1261 91.8131C38.273 91.4471 38.6754 91.2048 38.8148 90.8438C39.2241 89.7879 38.5467 89.2989 37.4638 89.3234C37.8876 87.211 38.0728 86.1777 40.2818 85.4332C42.3924 84.7213 44.4539 83.9228 46.3931 82.8104C48.1144 81.8229 49.55 80.4005 51.2048 79.3C52.6863 78.3144 54.5307 77.2824 54.5156 75.2616C55.3555 75.8316 56.1427 76.3106 57.1032 75.7438C57.9143 75.2648 58.0216 74.8793 58.9595 74.7889C59.7247 74.7155 60.1987 74.696 60.8817 75.0325C61.6852 75.4286 61.795 75.7036 62.2634 74.5385C62.7951 74.9861 64.1404 76.8511 64.0952 77.5887C64.0707 77.9955 64.0091 78.1788 63.5051 78.2862C62.7907 78.4381 62.8183 77.8944 62.2929 77.6182ZM58.9444 187.976C58.5954 188.511 57.122 188.413 56.5533 188.405C54.8194 188.383 54.213 186.928 53.4522 185.522C52.2532 183.305 50.4603 178.701 52.4277 176.374C53.9814 174.538 57.0065 176.851 58.0662 178.238C58.9808 179.437 58.709 181.233 58.7937 182.671C58.8659 183.882 59.6349 186.919 58.9444 187.976ZM54.2074 188.779C53.5143 189.472 51.2638 189.326 50.3454 189.474C48.7063 189.739 47.0754 190.058 45.4853 190.543C44.3007 190.903 43.1306 191.872 42.818 190.223C42.5562 188.835 42.6868 187.17 42.7119 185.77C42.7389 184.259 42.8965 182.767 43.0283 181.263C43.1168 180.246 42.8946 178.375 43.7251 177.594C44.4407 176.922 46.1809 176.856 47.11 176.634C48.636 176.268 50.2299 175.787 51.8162 175.951C50.8909 178.462 50.8125 181.096 51.8043 183.598C52.0874 184.312 54.6355 188.351 54.2074 188.779ZM42.5468 178.775C42.1607 182.552 41.7715 186.353 42.1438 190.15C42.1664 190.376 42.4369 191.413 42.3189 191.575C42.1978 191.744 41.2348 191.831 41.0163 191.882C40.1475 192.088 39.2806 192.306 38.4067 192.489C36.7061 192.845 36.4839 191.77 36.1506 190.194C35.4356 186.818 36.8217 183.157 37.661 179.914C38.0703 178.334 38.3735 178.152 39.9265 178.022C41.0075 177.931 42.7113 177.17 42.5468 178.775ZM35.9792 192.867C35.3295 193.459 34.6798 190.67 34.622 190.386C34.3954 189.257 34.5216 188.112 34.5247 186.966C34.5303 185.175 34.3935 183.393 34.391 181.611C34.3891 180.647 33.6672 178.677 34.8078 178.167C35.1424 178.017 36.4726 178.079 36.7739 178.276C37.4011 178.686 37.1537 178.951 36.9679 179.663C36.5524 181.261 36.1926 182.867 35.8304 184.477C35.4751 186.057 35.1248 187.577 35.2943 189.209C35.3496 189.748 36.3935 192.491 35.9792 192.867ZM56.7071 175.267C58.2915 174.821 58.3763 176.035 58.3738 177.196C58.1321 177.011 55.881 175.5 56.7071 175.267ZM35.5134 90.0014C35.1255 90.641 32.6665 90.8156 31.9641 90.9838C30.5818 91.3152 29.1988 91.6436 27.8196 91.9888C25.2367 92.6342 22.7171 93.363 20.0691 93.7007C21.5232 91.373 21.9756 89.3629 21.705 86.4583C21.3638 82.7903 20.9299 79.16 20.0854 75.5699C19.253 72.0299 18.2892 68.5133 17.3608 64.9972C16.9048 63.2696 16.4117 61.5747 15.8051 59.8942C15.3188 58.5464 14.5594 56.8508 15.3847 55.4691C17.4792 56.9971 19.1591 58.643 20.3537 60.9645C21.6337 63.4523 22.751 66.0066 24.2363 68.3871C24.9156 69.475 25.7085 70.4675 26.4354 71.5208C26.8673 72.148 27.1825 73.0519 27.733 73.5811C28.3677 74.1901 29.0438 74.4776 29.4066 73.4493C29.7958 72.3457 28.5547 70.1617 28.1881 69.1253C27.303 66.6231 26.426 64.1265 25.743 61.5596C25.191 59.4855 24.2784 56.977 24.6014 54.788C24.9212 52.621 26.3921 54.1722 27.136 55.1797C28.6702 57.2563 29.5887 59.6776 30.5962 62.0329C31.5228 64.1962 32.6031 66.259 33.6283 68.372C33.9848 69.1077 34.455 71.0073 35.3891 71.2258C36.747 71.5441 36.6321 69.6319 36.5021 68.856C35.6421 63.7134 33.3954 58.7893 32.9296 53.5576C32.907 53.3077 32.5824 51.3636 32.8436 51.201C33.3495 50.8865 34.0325 52.8583 34.251 53.3416C35.3866 55.8546 36.1776 58.5043 36.9033 61.1591C37.521 63.4171 38.0791 65.6915 38.7721 67.9282C39.1531 69.1573 39.5894 70.3664 40.0194 71.5786C40.4087 72.6772 40.8035 74.5542 41.8186 75.278C43.2587 76.3043 48.4119 73.8636 48.9342 76.0457C49.3058 77.5969 44.5274 78.8461 43.5098 79.3176C42.1701 79.9378 40.8562 80.6164 39.516 81.2373C38.5009 81.7068 37.0426 81.8995 36.3088 82.7828C35.531 83.7194 35.4067 85.0339 35.3835 86.1946C35.3653 87.0735 35.9748 89.243 35.5134 90.0014ZM32.2572 106.941C32.1888 107.428 31.8015 108.073 31.627 108.537C31.2723 109.483 30.9703 110.612 30.4763 111.495C30.0519 112.255 29.4248 112.935 29.0149 113.707C28.6257 114.44 28.5736 115.284 28.1191 116.018C27.5987 116.856 26.7386 117.459 26.222 118.292C25.9678 118.702 25.7047 119.171 25.345 119.609C24.0707 121.159 22.8057 122.621 21.7809 124.282C21.5189 124.707 20.2389 126.562 19.7294 126.663C18.6646 126.873 19.9041 125.359 20.1124 125.046C21.6212 122.782 22.9612 120.399 24.4175 118.099C25.8284 115.873 27.2716 113.665 28.6294 111.405C29.7368 109.562 30.502 106.917 32.3018 105.62C32.3087 106.061 32.2943 106.501 32.2572 106.941ZM81.4557 86.1337C82.3321 89.7358 83.3804 93.2268 84.3685 96.7974C85.2851 100.11 86.5054 103.655 86.8852 107.07C87.2619 110.453 88.1269 113.876 89.2901 117.087C89.8281 118.573 90.3812 120.065 90.965 121.533C91.2858 122.34 91.6442 123.128 92.0083 123.916C92.2908 124.529 93.0378 125.52 93.0661 126.168C93.0893 126.687 93.2695 126.48 92.7572 126.87C92.2262 127.275 91.3059 127.128 90.6875 127.199C89.0748 127.385 87.5023 127.993 85.9298 128.385C82.8977 129.143 79.2831 129.744 76.1763 129.217C74.8693 128.995 73.5115 128.803 72.2189 128.514C70.6288 128.158 70.3018 127.5 69.9753 125.937C69.2616 122.521 68.647 119.114 68.0575 115.675C67.357 111.584 66.5986 107.498 66.0575 103.381C65.5114 99.2168 65.119 95.0485 64.2634 90.9298C67.716 91.5067 70.9672 92.159 74.4305 91.2129C77.4971 90.3755 79.7106 88.7383 81.4557 86.1337ZM94.972 130.733C95.7435 132.324 93.8828 133.754 92.9814 134.979C91.7924 136.594 90.6819 138.281 89.2989 139.742C88.884 138.082 88.5199 136.215 87.4131 134.851C85.9988 133.111 84.3491 133.822 82.6165 132.998C84.4332 132.115 86.7528 132.452 88.68 131.664C90.5808 130.887 92.4999 130.277 94.2682 129.267C94.503 129.756 94.7353 130.246 94.972 130.733ZM88.2349 167.846C87.0742 167.91 87.8507 165.462 87.926 164.854C88.1332 163.181 88.3428 161.51 88.5243 159.834C89.4822 162.36 90.4402 164.886 91.3975 167.411C90.3448 167.561 89.2996 167.787 88.2349 167.846ZM86.3466 179.952C86.5048 180.304 87.2437 181.477 86.6605 181.693C85.8613 181.99 85.7653 180.047 86.3466 179.952ZM84.9611 152.745C81.263 155.697 77.59 158.657 73.5881 161.199C72.7117 161.756 71.8285 161.989 71.2472 160.884C70.7908 160.016 71.2729 159.038 71.5661 158.188C72.3131 156.021 73.6144 154.137 75.057 152.373C77.9378 148.851 81.3666 145.842 85.7414 144.454C86.4571 144.226 87.5619 143.541 87.8124 144.487C87.9605 145.044 87.3353 146.435 87.2085 146.958C86.6862 149.116 86.8005 151.278 84.9611 152.745ZM95.6079 174.276C95.6889 176.784 88.835 174.761 87.9806 174.313C88.8771 174.013 95.5708 173.15 95.6079 174.276ZM98.1528 174.292C98.5602 174.401 100.122 174.538 99.5383 175.072C99.016 175.549 96.6518 175.358 96.0247 175.417C96.4459 174.033 96.7655 173.923 98.1528 174.292ZM96.8829 170.934C96.7297 171.492 96.6675 172.342 96.1678 172.725C95.5445 173.201 94.2212 172.912 93.5162 172.915C92.3184 172.922 91.1226 172.983 89.9305 173.102C89.4747 173.147 87.6278 173.704 87.2003 173.324C86.8865 173.045 87.0039 171.737 87.2324 171.443C87.7013 170.839 88.7823 171.048 89.4596 171.024C91.938 170.935 94.4032 170.928 96.8829 170.934ZM95.2921 161.667C94.9418 161.148 94.8797 161.153 94.7303 160.368C94.5708 159.528 94.1653 158.809 93.9267 157.997C93.4019 156.21 95.0787 156.369 96.3091 157.024C99.5 158.724 98.7297 164.664 97.9406 167.444C96.7931 166.601 96.37 166.218 95.9751 164.857C95.8251 164.34 95.6568 163.832 95.5005 163.318C95.3863 162.94 95.466 161.927 95.2921 161.667ZM95.5683 132.76C96.4591 132.652 97.2739 135.416 97.0197 136.015C96.4987 137.238 94.508 138.331 93.4942 139.112C92.8194 139.632 92.1489 140.228 91.4277 140.681C90.7578 141.102 90.3724 140.866 89.7497 141.068C88.8482 141.359 88.6297 142.313 87.7076 142.723C86.41 143.3 84.8368 143.461 83.4809 143.981C81.8362 144.614 80.3289 144.631 78.6045 144.331C76.1242 143.9 73.2171 142.671 73.4406 139.658C73.8348 134.341 84.3943 131.617 87.2738 136.124C88.024 137.298 88.012 138.666 88.4985 139.926C89.0259 141.29 89.5368 140.754 90.3297 139.749C91.3668 138.435 92.3304 137.05 93.3266 135.705C93.6487 135.269 94.9249 132.838 95.5683 132.76ZM30.8548 184.521C30.804 185.425 30.858 186.342 30.5435 187.205C30.2271 188.075 29.5843 188.779 29.2145 189.624C28.4643 191.338 28.47 193.411 28.5001 195.247C28.5698 199.519 29.5817 203.668 30.1166 207.889C28.3356 207.885 26.4944 207.905 24.7676 207.396C23.2256 206.941 22.9795 205.814 22.5434 204.394C21.3188 200.406 19.9961 196.435 19.6007 192.258C19.4127 190.268 19.3335 188.262 19.2435 186.265C19.1649 184.513 19.5584 183.749 21.1399 182.882C24.5773 180.997 28.1404 179.428 31.5429 177.453C31.1951 179.796 30.9873 182.157 30.8548 184.521ZM177.6 44.5518C176.763 44.398 175.918 44.302 175.074 44.2015C174.633 44.1488 173.26 44.2222 172.93 43.9347C172.538 43.5932 173.217 41.0088 173.252 40.4544C173.465 37.1192 173.217 33.6815 172.912 30.3593C172.358 24.3451 170.466 18.7733 166.102 14.4427C163.929 12.2869 161.486 10.5766 158.52 9.75127C156.791 9.27034 155.01 9.01391 153.277 8.54767C151.88 8.17102 150.576 7.73994 149.124 7.59066C146.229 7.29285 143.582 6.19905 140.756 5.56627C138.678 5.10067 135.334 3.99644 133.986 6.34337C132.925 5.09935 131.858 4.16518 130.52 3.23723C129.238 2.34833 129.029 1.46043 127.46 2.48681C124.41 4.48126 121.554 6.91425 118.706 9.18334C116.046 11.3026 113.473 13.5218 110.685 15.4706C107.842 17.4585 108.38 20.8319 109.717 23.6286C112.233 28.8924 116.113 33.3925 119.51 37.9045C121.637 40.7313 123.772 43.5612 125.89 46.3936C127.916 49.1005 129.668 52.2337 132.035 54.6656C133.527 56.1986 135.308 54.1935 136.656 53.2676C138.327 52.1169 139.97 50.9235 141.644 49.7766C145.129 47.3868 148.859 45.1488 152.538 43.0684C152.805 43.8267 153.073 44.5857 153.341 45.344C152.533 45.4049 151.441 45.2241 151.03 46.093C150.442 47.3334 151.884 47.4966 152.136 48.2079C152.362 48.8431 151.437 50.5211 151.162 51.0937C150.547 52.3837 149.687 53.4961 148.74 54.5576C144.993 58.7598 140.251 61.7655 135.44 64.6306C130.291 67.6965 124.773 69.5679 119.136 71.5434C116.27 72.5478 113.295 73.0143 110.337 73.6577C107.487 74.2773 104.639 75.0909 101.727 75.325C95.7692 75.8028 89.4464 76.1612 83.56 74.8768C82.9159 74.7362 82.2335 74.4317 81.5782 74.3734C81.0527 74.3269 80.6635 74.5472 80.1676 74.5755C79.1023 74.6364 78.4921 73.6841 77.6459 74.5692C77.2222 75.0118 77.2146 75.7551 76.6252 74.9289C75.8744 73.8781 77.7928 73.6747 78.5034 73.3752C80.8977 72.3671 82.8211 70.3381 84.3422 68.2866C85.862 66.2364 86.0804 64.0474 85.1551 61.6475C84.2304 59.2482 82.1262 57.6217 80.5468 55.6738C79.7828 54.7302 79.0797 53.7321 78.2404 52.8514C77.7928 52.3812 77.0709 51.9311 77.0433 51.4565C77.0106 50.9053 77.3408 50.631 77.1431 49.9606C77.0922 49.7867 76.8731 49.6875 76.826 49.496C76.7526 49.1903 76.8668 48.9285 76.8286 48.631C76.7394 47.9486 76.472 47.5205 76.0935 46.9611C75.8574 46.6121 75.5121 45.9128 75.1876 45.651C74.6182 45.1921 73.8423 45.3792 73.2635 44.914C72.3483 44.1789 72.0262 42.629 71.2164 41.7363C70.0758 40.4802 69.8328 41.7495 68.625 41.349C67.5917 41.0062 67.6043 39.4525 66.7694 38.9265C65.5936 38.1864 64.6036 39.5486 63.559 39.8518C62.1855 40.251 62.7135 38.7018 61.4893 38.5605C60.3839 38.4331 58.8521 40.6754 58.301 41.4714C57.7391 40.8167 57.1245 39.7018 56.1139 40.101C55.053 40.521 54.8646 42.4733 54.0887 43.1701C53.8188 43.4118 53.8759 43.5907 53.5432 43.7024C53.1138 43.8462 52.5419 43.2228 51.987 43.4131C50.8671 43.796 51.0039 45.2901 51.0014 46.2581C49.6806 46.0647 48.7591 45.9661 48.3171 47.3899C47.884 48.7835 47.7195 48.1683 46.3271 48.6209C45.1262 49.0108 44.958 50.1514 44.7603 51.2663C44.6379 51.9593 44.7508 52.2424 44.9373 52.8746C45.1727 53.6712 45.1727 53.6612 44.7891 54.4214C44.1206 55.7472 44.0804 57.2086 43.9737 58.6675C43.8601 60.225 43.5876 61.6431 44.0302 63.1641C44.3039 64.1052 44.3252 65.3864 45.2468 65.9131C45.6128 66.1221 46.2342 66.0079 46.5456 66.215C47.1395 66.6105 46.9587 67.2126 47.3541 67.7907C47.6511 68.2226 48.1288 68.2647 48.4615 68.615C48.8225 68.9966 48.8438 69.4618 49.0497 69.9276C49.6586 71.3061 50.2312 71.9735 48.2462 72.0519C47.0221 72.1009 45.7163 72.4681 44.4966 72.3551C43.0578 72.2227 42.7 71.4185 42.2417 70.1938C39.9334 64.0229 38.693 57.3348 35.6528 51.4665C34.9855 50.1784 32.2453 44.9153 31.0871 48.7502C30.1109 51.9844 31.3922 55.9318 31.8831 59.1515C30.342 57.7623 29.772 55.2607 28.6012 53.5651C27.7368 52.3121 25.03 49.2355 23.4433 50.9982C22.1926 52.3881 22.5052 55.3348 22.736 56.9958C23.1007 59.6242 23.9407 62.1572 24.5407 64.7348C23.7852 63.7467 23.4127 62.5402 22.8885 61.4278C22.2311 60.0329 21.4107 58.709 20.4759 57.4836C19.6591 56.412 18.7457 55.4164 17.7555 54.503C16.9987 53.8043 15.6431 52.2757 14.5681 52.1929C11.8018 51.9807 12.6718 57.0542 13.0932 58.5049C13.9664 61.5113 14.9133 64.4347 15.5913 67.5019C16.9166 73.4939 18.5218 79.3477 19.498 85.4156C19.7142 86.7615 19.9746 87.8356 19.4423 89.1288C18.9733 90.2681 18.4867 91.631 17.6212 92.5067C15.6623 94.4911 14.0359 96.6097 12.5717 99.0002C11.0032 101.561 9.38884 104.15 8.10853 106.869C7.51988 108.119 7.03846 109.472 6.3618 110.675C5.75099 111.761 5.01664 112.618 4.58242 113.82C2.50781 119.564 0.971631 125.207 0.268231 131.289C-0.309368 136.282 0.22881 142.924 6.25847 144.092C9.02832 144.629 11.5153 143.401 14.013 142.387C16.5965 141.339 18.4645 139.635 20.5717 137.824C23.1901 135.573 25.9081 133.462 28.5547 131.249C31.202 129.035 33.6471 126.58 36.2799 124.342C38.8807 122.131 41.2335 119.783 43.4822 117.216C45.7132 114.67 47.5255 111.848 49.6856 109.266C49.6775 112.609 49.1815 115.922 49.0422 119.261C48.9147 122.322 48.9116 125.38 49.0353 128.44C49.1589 131.498 48.351 134.409 48.3441 137.46C48.3372 140.437 48.2192 143.396 48.1539 146.369C48.125 147.703 47.8633 149.199 48.3617 150.486C48.734 151.447 49.9041 151.747 50.9016 152.006C52.444 152.407 57.085 151.636 57.7736 153.283C58.1497 154.182 57.7711 155.819 57.8 156.812C57.849 158.449 57.9092 160.086 57.9651 161.722C58.0229 163.413 58.0794 165.104 58.1409 166.794C58.1961 168.283 58.4855 169.942 58.306 171.416C58.1528 172.68 57.4158 172.514 56.2476 172.58C54.4848 172.677 52.7215 172.755 50.9581 172.832C48.3711 172.946 45.6711 172.893 43.1909 173.199C42.1494 173.327 41.0113 173.273 39.9121 173.481C38.5342 173.743 37.2617 173.81 35.8637 173.879C34.7369 173.935 33.2886 173.853 32.4035 174.686C32.0959 174.975 32.0275 175.319 31.8097 175.641C31.4016 176.243 31.6289 176.085 30.9597 176.221C28.3463 176.75 25.8642 177.347 23.3083 178.238C22.029 178.683 20.8419 179.282 19.5567 179.701C18.4302 180.069 17.6046 180.521 17.0479 181.627C16.0531 183.601 16.3051 186.458 16.3771 188.586C16.4905 191.906 17.2281 195.066 18.0238 198.277C18.8514 201.618 19.5003 205.047 21.1102 208.116C21.6392 209.124 22.2103 210.411 23.2908 210.936C24.6858 211.615 26.8309 211.203 28.3538 211.206C29.3752 211.208 32.1122 211.559 32.8762 210.702C33.6157 209.873 32.8718 207.533 32.767 206.503C32.401 202.896 31.7425 199.255 31.7513 195.623C32.5849 196.854 34.03 198.98 35.4764 197.093C35.8323 196.629 35.6936 196.413 36.3251 196.144C36.6748 195.995 37.4118 195.904 37.7928 195.93C38.3107 195.965 38.5022 196.172 38.978 196.071C39.3992 195.98 39.8732 195.604 40.3559 195.489C46.3428 194.066 52.2946 192.533 58.3072 191.265C59.8967 190.93 59.6707 192.15 59.7756 193.524C59.8917 195.044 59.6707 196.579 59.8817 198.081C60.065 199.389 60.2075 200.663 59.9494 201.979C59.6444 203.53 59.8408 204.825 60.1441 206.361C61.3136 212.286 61.1045 218.711 61.3682 224.733C61.5057 227.869 61.2106 231.071 61.5057 234.191C61.6174 235.368 62.2753 236.019 62.5415 237.092C62.8478 238.322 62.0129 239.889 61.7593 241.081C61.2489 243.474 60.3525 246.899 61.9922 248.981C62.8773 250.106 64.038 250.269 65.3488 250.649C66.9175 251.104 68.4631 251.635 70.0394 252.066C75.7971 253.642 82.0188 253.95 87.9204 254.818C89.3648 255.031 90.7051 255.011 92.1596 254.91C93.056 254.848 95.2639 255.143 96.0096 254.607C96.4089 254.32 96.2061 253.96 96.4095 253.609C96.6977 253.111 97.0467 252.908 97.5376 252.598C98.3505 252.084 99.2909 251.784 99.4278 250.724C99.7636 248.127 96.5175 246.751 94.7818 245.628C92.5639 244.192 89.8846 243.638 87.5305 242.466C86.2317 241.82 84.9787 241.087 83.727 240.354C83.1846 240.036 82.0848 239.676 81.7062 239.175C81.3201 238.664 81.6981 237.935 81.8581 237.205C82.5179 234.188 82.2944 231.103 82.6359 228.054C82.9774 225 82.8845 221.927 82.9969 218.858C83.113 215.698 83.3742 212.544 83.5744 209.388C83.759 206.473 83.9448 203.51 83.9762 200.593C84.0051 197.886 84.3742 195.231 84.4614 192.508C84.4909 191.584 84.3252 189.907 84.9385 189.123C85.4771 188.437 87.26 188.523 88.0911 188.403C90.3322 188.078 92.4653 187.792 94.6813 187.596C99.9538 187.13 105.821 186.786 110.806 184.949C112.863 184.191 115.599 183.156 116.281 180.795C117.066 178.082 116.041 174.747 116.007 171.972C115.972 169.01 115.112 166.12 114.468 163.249C113.775 160.159 113.338 157.017 112.589 153.938C111.901 151.114 110.786 148.612 109.731 145.931C109.303 144.843 106.867 141.095 107.623 140.171C108.03 139.673 109.496 139.547 110.091 139.319C111.373 138.829 112.658 138.271 113.84 137.573C115.419 136.639 118.876 135.096 119.035 133.024C119.186 131.043 117.24 129.041 116.25 127.485C114.655 124.978 112.645 122.787 111.126 120.23C108.057 115.064 105.616 109.405 103.378 103.838C102.208 100.924 101.826 98.1816 101.633 95.0724C105.032 95.0805 108.491 95.4986 111.869 95.0234C115.545 94.5061 119.225 93.6354 122.869 92.9173C129.504 91.6097 135.874 90.1338 142.02 87.1896C147.776 84.4325 153.617 81.4149 158.382 77.0388C160.847 74.7758 163.36 72.4694 165.488 69.8818C167.674 67.2232 169.318 64.2031 171.005 61.2194C172.866 57.9249 174.348 54.4634 175.519 50.8608C175.755 50.1363 175.757 49.2135 176.058 48.5293C176.398 47.7571 177.017 47.7364 177.664 47.3296C178.573 46.7571 179.178 44.8412 177.6 44.5518Z" fill="white"/>
<path id="ink-shape_2" fill-rule="evenodd" clip-rule="evenodd" d="M98.4663 7.67925C99.2428 8.34662 102.592 10.6975 103.674 10.1259C105.008 9.42021 102.895 7.2945 102.326 6.77045C101.603 6.10371 99.0156 4.08673 98.025 4.27393C96.045 4.64845 97.767 7.07855 98.4663 7.67925Z" fill="white"/>
<path id="ink-shape_3" fill-rule="evenodd" clip-rule="evenodd" d="M100.12 31.8066C100.559 30.9427 101.727 30.6252 102.267 29.7892C102.917 28.7842 103.215 27.9047 102.976 26.6724C101.313 27.2319 99.4214 28.9256 98.309 30.2501C97.3786 31.357 96.0578 33.6699 98.4847 33.6757C98.4634 33.3465 98.4421 33.0169 98.4207 32.688C99.1483 32.7937 99.7899 32.4576 100.12 31.8066Z" fill="white"/>
<path id="ink-shape_4" fill-rule="evenodd" clip-rule="evenodd" d="M92.1997 17.4339C93.2719 17.742 94.1564 17.6984 95.2512 17.7225C96.0459 17.7402 97.1319 18.1769 97.776 17.6847C97.2048 17.3537 97.9267 17.3355 97.7854 17.0128C97.6668 16.7438 97.4408 16.8319 97.2575 16.6142C96.6034 15.8383 96.034 15.8477 94.9969 15.6863C94.1928 15.5607 93.0107 15.2709 92.2386 15.6705C91.4256 16.0911 91.1111 17.121 92.1997 17.4339Z" fill="white"/>
<path id="ink-shape_5" fill-rule="evenodd" clip-rule="evenodd" d="M107.457 41.2325C108.15 40.6512 108.906 38.9681 109.046 38.0993C109.101 37.7591 108.856 37.4986 108.885 37.2481C108.941 36.771 109.922 35.8488 108.894 35.4571C107.996 35.1143 107.151 37.7767 106.923 38.358C106.688 38.9518 106.05 40.1094 106.246 40.6844C106.408 41.1615 106.989 41.6242 107.457 41.2325Z" fill="white"/>
<path id="ink-shape_6" fill-rule="evenodd" clip-rule="evenodd" d="M115.75 5.19386C116.377 4.6118 116.774 3.95172 116.71 3.15133C116.658 2.52087 116.186 0.347142 115.654 0.411048C113.89 0.624046 114.683 6.18502 115.75 5.19386Z" fill="white"/>
<path id="ink-shape_7" fill-rule="evenodd" clip-rule="evenodd" d="M78.4946 102.378C78.3496 101.847 77.8217 98.5968 76.9089 98.8184C76.2153 98.9867 76.9359 101.846 76.9679 102.223C77.0357 103.01 75.5222 102.984 74.8191 102.878C73.7036 102.709 73.7927 102.056 73.6264 101.042C73.5636 100.658 73.3219 98.927 72.5228 99.5617C71.9829 99.9898 72.369 102.125 72.4136 102.612C72.5693 104.299 72.7526 107.181 73.7557 108.713C74.1556 109.324 74.5159 109.626 74.9359 108.842C75.3609 108.049 74.3985 105.631 74.2303 104.82C75.0244 104.898 77.3101 104.64 77.7878 105.465C78.2247 106.218 77.526 108.368 78.9272 108.542C79.7589 108.647 79.6083 107.684 79.5279 106.943C79.3603 105.39 78.9046 103.878 78.4946 102.378Z" fill="white"/>
<path id="ink-shape_8" fill-rule="evenodd" clip-rule="evenodd" d="M80.6234 101.626C79.7031 102.042 80.8588 108.103 82.2047 107.907C83.7766 107.679 81.5004 101.23 80.6234 101.626Z" fill="white"/>
<path id="ink-shape_9" fill-rule="evenodd" clip-rule="evenodd" d="M79.597 99.6195C79.4834 100.984 81.2568 101.493 81.3409 100.01C81.4056 98.8655 79.7163 98.185 79.597 99.6195Z" fill="white"/>
<path id="ink-shape_10" fill-rule="evenodd" clip-rule="evenodd" d="M69.8611 63.4387C70.6709 66.4557 78.0414 67.7394 77.0483 63.6703C76.5511 61.6332 74.4745 63.4431 73.0244 63.2058C72.0859 63.0526 69.2911 61.3112 69.8611 63.4387Z" fill="white"/>
<path id="ink-shape_11" fill-rule="evenodd" clip-rule="evenodd" d="M68.0103 58.057C68.3568 56.443 64.8244 54.6608 63.5432 55.1053C61.6681 55.7556 61.6762 59.9139 63.1063 61.0194C63.2946 61.165 63.8715 61.5121 64.154 61.2353C64.5997 60.7978 64.1126 60.917 64.0084 60.4807C63.8433 59.7864 63.3034 58.8944 63.8414 58.1047C64.8583 56.6119 67.5138 60.3703 68.0103 58.057Z" fill="white"/>
<path id="ink-shape_12" fill-rule="evenodd" clip-rule="evenodd" d="M57.2395 65.893C55.9664 65.8214 54.9218 67.7976 56.7957 67.6325C57.1541 67.6005 57.925 67.5101 58.1334 67.1335C58.4781 66.5088 57.7995 65.9244 57.2395 65.893Z" fill="white"/>
<path id="ink-shape_13" fill-rule="evenodd" clip-rule="evenodd" d="M119.022 18.7803C118.586 18.1499 117.672 17.1354 116.886 17.7677C116.19 18.3284 116.311 19.7124 116.578 20.4001C117.298 22.2515 118.997 23.9008 120.92 22.8341C120.252 21.496 119.876 20.0144 119.022 18.7803Z" fill="white"/>
</g>
</g>
</svg>
