<svg width="16" height="17" viewBox="0 0 16 17" fill="none" xmlns="http://www.w3.org/2000/svg">
<g id="Essentials/external link">
<path id="Icon" d="M13.5 5.92318C13.5 6.19932 13.7239 6.42318 14 6.42318C14.2761 6.42318 14.5 6.19932 14.5 5.92318H13.5ZM10.6667 2.08984C10.3905 2.08984 10.1667 2.3137 10.1667 2.58984C10.1667 2.86599 10.3905 3.08984 10.6667 3.08984V2.08984ZM7.64645 8.23629C7.45118 8.43155 7.45118 8.74814 7.64645 8.9434C7.84171 9.13866 8.15829 9.13866 8.35355 8.9434L7.64645 8.23629ZM13.9637 2.77185L13.5182 2.99884L13.5182 2.99884L13.9637 2.77185ZM13.818 2.62617L13.591 3.07168V3.07168L13.818 2.62617ZM8 4.42318C8.27614 4.42318 8.5 4.19932 8.5 3.92318C8.5 3.64703 8.27614 3.42318 8 3.42318V4.42318ZM13.1667 8.58984C13.1667 8.3137 12.9428 8.08984 12.6667 8.08984C12.3905 8.08984 12.1667 8.3137 12.1667 8.58984H13.1667ZM3.45603 14.2992L3.68302 13.8537L3.45603 14.2992ZM2.29065 13.1338L1.84515 13.3608L2.29065 13.1338ZM11.2106 14.2992L10.9836 13.8537L11.2106 14.2992ZM12.376 13.1338L11.9305 12.9068L12.376 13.1338ZM2.29065 5.3792L1.84515 5.15221H1.84515L2.29065 5.3792ZM3.45603 4.21383L3.22903 3.76832L3.22903 3.76832L3.45603 4.21383ZM14.5 5.92318V3.12318H13.5V5.92318H14.5ZM13.4667 2.08984H10.6667V3.08984H13.4667V2.08984ZM13.5488 2.33392L7.64645 8.23629L8.35355 8.9434L14.2559 3.04103L13.5488 2.33392ZM14.5 3.12318C14.5 3.03809 14.5004 2.9442 14.4938 2.86353C14.4867 2.77702 14.4692 2.66274 14.4092 2.54485L13.5182 2.99884C13.4944 2.95226 13.4951 2.9203 13.4971 2.94496C13.4981 2.95699 13.499 2.97601 13.4995 3.00741C13.5 3.03879 13.5 3.07536 13.5 3.12318H14.5ZM13.4667 3.08984C13.5145 3.08984 13.5511 3.08986 13.5824 3.09035C13.6138 3.09084 13.6329 3.09174 13.6449 3.09272C13.6695 3.09474 13.6376 3.09541 13.591 3.07168L14.045 2.18067C13.9271 2.12061 13.8128 2.10311 13.7263 2.09605C13.6456 2.08945 13.5518 2.08984 13.4667 2.08984V3.08984ZM14.4092 2.54486C14.3692 2.46645 14.3174 2.39537 14.2559 2.33392L13.5488 3.04103C13.5365 3.02874 13.5262 3.01452 13.5182 2.99884L14.4092 2.54486ZM14.2559 2.33392C14.1945 2.27247 14.1234 2.22062 14.045 2.18067L13.591 3.07168C13.5753 3.06369 13.5611 3.05331 13.5488 3.04103L14.2559 2.33392ZM8.4 14.0898H6.26667V15.0898H8.4V14.0898ZM2.5 10.3232V8.18984H1.5V10.3232H2.5ZM6.26667 4.42318H8V3.42318H6.26667V4.42318ZM12.1667 8.58984V10.3232H13.1667V8.58984H12.1667ZM6.26667 14.0898C5.51168 14.0898 4.97551 14.0895 4.55592 14.0552C4.14217 14.0214 3.886 13.9571 3.68302 13.8537L3.22903 14.7447C3.59648 14.9319 3.9989 15.013 4.47449 15.0519C4.94425 15.0902 5.52818 15.0898 6.26667 15.0898V14.0898ZM1.5 10.3232C1.5 11.0617 1.49961 11.6456 1.53799 12.1154C1.57685 12.5909 1.65792 12.9934 1.84515 13.3608L2.73615 12.9068C2.63273 12.7038 2.56848 12.4477 2.53467 12.0339C2.50039 11.6143 2.5 11.0782 2.5 10.3232H1.5ZM3.68302 13.8537C3.27534 13.646 2.94388 13.3145 2.73615 12.9068L1.84515 13.3608C2.14875 13.9567 2.63318 14.4411 3.22903 14.7447L3.68302 13.8537ZM8.4 15.0898C9.13849 15.0898 9.72242 15.0902 10.1922 15.0519C10.6678 15.013 11.0702 14.9319 11.4376 14.7447L10.9836 13.8537C10.7807 13.9571 10.5245 14.0214 10.1107 14.0552C9.69116 14.0895 9.15499 14.0898 8.4 14.0898V15.0898ZM12.1667 10.3232C12.1667 11.0782 12.1663 11.6143 12.132 12.0339C12.0982 12.4477 12.0339 12.7038 11.9305 12.9068L12.8215 13.3608C13.0087 12.9934 13.0898 12.5909 13.1287 12.1154C13.1671 11.6456 13.1667 11.0617 13.1667 10.3232H12.1667ZM11.4376 14.7447C12.0335 14.4411 12.5179 13.9567 12.8215 13.3608L11.9305 12.9068C11.7228 13.3145 11.3913 13.646 10.9836 13.8537L11.4376 14.7447ZM2.5 8.18984C2.5 7.43486 2.50039 6.89869 2.53467 6.4791C2.56848 6.06535 2.63273 5.80918 2.73615 5.6062L1.84515 5.15221C1.65792 5.51966 1.57685 5.92207 1.53799 6.39767C1.49961 6.86742 1.5 7.45136 1.5 8.18984H2.5ZM6.26667 3.42318C5.52818 3.42318 4.94425 3.42279 4.47449 3.46117C3.9989 3.50003 3.59648 3.5811 3.22903 3.76832L3.68302 4.65933C3.886 4.55591 4.14217 4.49165 4.55592 4.45785C4.97551 4.42357 5.51168 4.42318 6.26667 4.42318V3.42318ZM2.73615 5.6062C2.94388 5.19851 3.27534 4.86706 3.68302 4.65933L3.22903 3.76832C2.63318 4.07192 2.14875 4.55636 1.84515 5.15221L2.73615 5.6062Z" fill="#FF6DFB"/>
</g>
</svg>
