<svg width="239" height="136" viewBox="0 0 239 136" fill="none" xmlns="http://www.w3.org/2000/svg">
<path fill-rule="evenodd" clip-rule="evenodd" d="M170.228 339.3C125.309 314.225 87.9365 282.385 58.1111 243.779C28.2543 205.187 10.0428 165.079 3.47668 123.457C-3.08948 81.8347 0.513977 40.894 14.2871 0.634887L113.578 42.0257C108.769 62.8186 107.604 83.5993 110.081 104.368C112.559 125.137 119.072 145.724 129.619 166.131L262.673 58.7374L317.965 81.676L316.901 128.93L183.847 236.324C202.222 253.353 222.823 267.862 245.652 279.85C268.48 291.838 293.144 301.474 319.644 308.758L317.964 393.714C264.393 382.512 215.147 364.374 170.228 339.3Z" fill="#190B19" fill-opacity="0.1"/>
</svg>
