<svg width="47" height="48" viewBox="0 0 47 48" fill="none" xmlns="http://www.w3.org/2000/svg">
<g id="like">
<path id="Vector" d="M40.6614 25.0858C41.4325 24.0669 41.8594 22.8184 41.8594 21.5195C41.8594 19.4587 40.7073 17.508 38.853 16.4202C38.3757 16.1402 37.8321 15.9928 37.2787 15.9933H26.2723L26.5477 10.3524C26.6119 8.98924 26.13 7.69491 25.1937 6.70809C24.7341 6.2217 24.1798 5.8347 23.5648 5.57103C22.9498 5.30735 22.2873 5.17259 21.6182 5.17508C19.2314 5.17508 17.1201 6.78153 16.4867 9.08104L12.544 23.3555H12.5303V43H34.2081C34.6304 43 35.0435 42.9174 35.4244 42.7521C37.6092 41.8204 39.0183 39.6861 39.0183 37.3178C39.0183 36.7394 38.9356 36.1703 38.7704 35.6195C39.5415 34.6006 39.9684 33.3521 39.9684 32.0532C39.9684 31.4749 39.8857 30.9057 39.7205 30.355C40.4916 29.336 40.9185 28.0876 40.9185 26.7887C40.9093 26.2103 40.8267 25.6366 40.6614 25.0858ZM5.14062 24.8242V41.5312C5.14062 42.3436 5.79697 43 6.60938 43H9.59277V23.3555H6.60938C5.79697 23.3555 5.14062 24.0118 5.14062 24.8242Z" fill="#1877F2"/>
</g>
</svg>
