<svg width="47" height="48" viewBox="0 0 47 48" fill="none" xmlns="http://www.w3.org/2000/svg">
<g id="logos:youtube-icon">
<path id="Vector" d="M45.9569 7.92054C45.6874 6.50363 45.1616 5.21189 44.432 4.17393C43.7024 3.13597 42.7943 2.38801 41.7982 2.00454C38.1517 0.589844 23.4755 0.589844 23.4755 0.589844C23.4755 0.589844 8.79857 0.632666 5.15201 2.04737C4.15593 2.43086 3.24786 3.17885 2.51821 4.21686C1.78857 5.25487 1.26282 6.54667 0.993319 7.96362C-0.109681 17.1803 -0.537554 31.2244 1.02361 40.0725C1.29314 41.4894 1.8189 42.7811 2.54854 43.8191C3.27818 44.857 4.18624 45.605 5.18229 45.9885C8.82885 47.4032 23.5054 47.4032 23.5054 47.4032C23.5054 47.4032 38.1818 47.4032 41.8282 45.9885C42.8242 45.605 43.7323 44.8571 44.462 43.8191C45.1917 42.7812 45.7175 41.4894 45.987 40.0725C47.1504 30.8427 47.5089 16.8072 45.9569 7.92054Z" fill="#FF0000"/>
<path id="Vector_2" d="M18.8047 34.0277L30.9797 23.9963L18.8047 13.965V34.0277Z" fill="white"/>
</g>
</svg>
