<svg width="47" height="48" viewBox="0 0 47 48" fill="none" xmlns="http://www.w3.org/2000/svg">
<g id="logos:spotify-icon" clip-path="url(#clip0_5579_17671)">
<path id="Vector" d="M23.5 0.589844C10.5214 0.589844 0 11.1114 0 24.0898C0 37.0692 10.5216 47.5898 23.5 47.5898C36.4795 47.5898 47 37.0692 47 24.0898C47 11.1123 36.4795 0.591129 23.4996 0.591129L23.5 0.589844ZM34.2768 34.4838C33.8558 35.1741 32.9521 35.393 32.2618 34.9692C26.7443 31.599 19.7986 30.8356 11.6185 32.7046C11.2398 32.7908 10.8422 32.7231 10.5134 32.5163C10.1845 32.3094 9.95126 31.9805 9.86486 31.6018C9.82181 31.4143 9.81616 31.2201 9.84824 31.0304C9.88033 30.8407 9.94951 30.6592 10.0518 30.4963C10.1542 30.3334 10.2876 30.1923 10.4445 30.081C10.6015 29.9698 10.7788 29.8905 10.9664 29.8479C19.9185 27.8027 27.5969 28.6832 33.7913 32.4689C34.4817 32.8926 34.7005 33.7935 34.2768 34.4838ZM37.1531 28.085C36.6225 28.947 35.4945 29.2193 34.6331 28.6889C28.3164 24.8062 18.6875 23.6817 11.2161 25.9496C10.2471 26.2423 9.22375 25.6963 8.92963 24.7289C8.63772 23.7599 9.18409 22.7384 10.1514 22.4439C18.6858 19.8542 29.2957 21.1087 36.5498 25.5663C37.4113 26.0969 37.6835 27.2247 37.1531 28.085ZM37.4001 21.4219C29.8261 16.9231 17.3301 16.5093 10.0989 18.7043C8.93771 19.0564 7.70965 18.4008 7.35789 17.2396C7.00594 16.0778 7.66082 14.8507 8.82296 14.4976C17.1238 11.9776 30.9234 12.4647 39.6432 17.6413C40.6901 18.2611 41.0323 19.6102 40.4121 20.6532C39.7949 21.6978 38.4421 22.042 37.4012 21.4219H37.4001Z" fill="#1ED760"/>
</g>
<defs>
<clipPath id="clip0_5579_17671">
<rect width="47" height="47" fill="white" transform="translate(0 0.589844)"/>
</clipPath>
</defs>
</svg>
