<svg width="47" height="48" viewBox="0 0 47 48" fill="none" xmlns="http://www.w3.org/2000/svg">
<g id="logos:apple-app-store">
<path id="Vector" d="M10.293 0.589844H36.707C42.3918 0.589844 47 5.19805 47 10.8828V37.2968C47 42.9816 42.3918 47.5898 36.707 47.5898H10.293C4.6082 47.5898 0 42.9816 0 37.2968V10.8828C0 5.19805 4.6082 0.589844 10.293 0.589844Z" fill="url(#paint0_linear_5579_30535)"/>
<path id="Vector_2" d="M15.0642 34.7034L15.0686 34.7048L13.4616 37.4881C12.875 38.5041 11.5759 38.8522 10.5599 38.2656C9.54411 37.679 9.19583 36.3799 9.78241 35.3639L10.9662 33.3136L11.0799 33.1167C11.2827 32.8252 11.7834 32.3218 12.7849 32.4165C12.7849 32.4165 15.1417 32.6723 15.3123 33.8972C15.3123 33.8972 15.3354 34.3002 15.0642 34.7034ZM37.8561 27.5946H32.8451C32.5038 27.5717 32.3549 27.4498 32.2961 27.3789L32.2925 27.3725L26.9284 18.0815L26.9214 18.0861L26.5998 17.6249C26.0725 16.8186 25.2353 18.8807 25.2353 18.8807C24.2356 21.1786 25.3772 23.7909 25.7751 24.5806L33.2257 37.4854C33.8121 38.5012 35.1112 38.8495 36.1274 38.2627C37.1432 37.6761 37.4915 36.377 36.9047 35.361L35.0418 32.1341C35.0056 32.0559 34.9428 31.8437 35.3249 31.8428H37.8561C39.0293 31.8428 39.9803 30.8918 39.9803 29.7186C39.9803 28.5454 39.0293 27.5946 37.8561 27.5946ZM28.1231 30.482C28.1231 30.482 28.3906 31.8426 27.3556 31.8426H8.83121C7.65805 31.8426 6.70703 30.8916 6.70703 29.7184C6.70703 28.5453 7.65805 27.5942 8.83121 27.5942H13.5936C14.3625 27.5498 14.5446 27.1059 14.5446 27.1059L14.5491 27.1081L20.7655 16.3407L20.7637 16.3403C20.877 16.1323 20.7826 15.9357 20.7663 15.9046L18.7131 12.3486C18.1266 11.3328 18.4747 10.0335 19.4907 9.4471C20.5067 8.86052 21.8058 9.20843 22.3924 10.2244L23.3445 11.8737L24.2949 10.2274C24.8815 9.21155 26.1806 8.86327 27.1966 9.45004C28.2127 10.0366 28.5607 11.3355 27.9742 12.3516L19.3236 27.3346C19.2858 27.4259 19.2742 27.5691 19.5557 27.5942H24.7264L24.7275 27.6447C24.7275 27.6447 27.716 27.6912 28.1231 30.482Z" fill="white"/>
</g>
<defs>
<linearGradient id="paint0_linear_5579_30535" x1="2350" y1="0.589844" x2="2350" y2="4700.59" gradientUnits="userSpaceOnUse">
<stop stop-color="#17C9FB"/>
<stop offset="1" stop-color="#1A74E8"/>
</linearGradient>
</defs>
</svg>
