<svg width="44" height="45" viewBox="0 0 44 45" fill="none" xmlns="http://www.w3.org/2000/svg">
<path id="Vector" d="M28.4231 26.9898C31.3225 26.9898 34.1031 28.1488 36.1532 30.2117C38.2033 32.2746 39.3551 35.0725 39.3551 37.9898V40.1898C39.3551 41.3568 38.8944 42.476 38.0743 43.3011C37.2543 44.1263 36.142 44.5898 34.9823 44.5898H4.37279C3.21305 44.5898 2.10082 44.1263 1.28076 43.3011C0.460703 42.476 0 41.3568 0 40.1898V37.9898C0 35.0725 1.15176 32.2746 3.2019 30.2117C5.25204 28.1488 8.03263 26.9898 10.932 26.9898H28.4231ZM40.2603 16.168C40.6528 15.7693 41.182 15.5366 41.7395 15.5175C42.2969 15.4985 42.8406 15.6946 43.2591 16.0657C43.6776 16.4367 43.9393 16.9547 43.9907 17.5136C44.0421 18.0725 43.8792 18.63 43.5355 19.072L43.3518 19.281L37.1687 25.5026C36.7922 25.8814 36.2913 26.109 35.76 26.1426C35.2286 26.1762 34.7033 26.0136 34.2827 25.6852L34.0771 25.5026L30.9856 22.3918C30.5893 21.9969 30.358 21.4644 30.3391 20.9034C30.3202 20.3425 30.5151 19.7955 30.8838 19.3744C31.2526 18.9533 31.7674 18.6899 32.3228 18.6382C32.8783 18.5865 33.4323 18.7504 33.8716 19.0962L34.0771 19.281L35.6229 20.8364L40.2603 16.168ZM19.6775 0.589844C22.5769 0.589844 25.3575 1.74877 27.4076 3.81167C29.4578 5.87457 30.6095 8.67246 30.6095 11.5898C30.6095 14.5072 29.4578 17.3051 27.4076 19.368C25.3575 21.4309 22.5769 22.5898 19.6775 22.5898C16.7782 22.5898 13.9976 21.4309 11.9475 19.368C9.89734 17.3051 8.74558 14.5072 8.74558 11.5898C8.74558 8.67246 9.89734 5.87457 11.9475 3.81167C13.9976 1.74877 16.7782 0.589844 19.6775 0.589844Z" fill="#FC11F5"/>
</svg>
