<svg width="25" height="24" viewBox="0 0 25 24" fill="none" xmlns="http://www.w3.org/2000/svg">
<path d="M12.0247 11.6249H12.7747M12.0247 12.3749H12.7747M12.0247 4.62494H12.7747M12.0247 5.37494H12.7747M12.0247 18.6249H12.7747M12.0247 19.3749H12.7747M5.02472 11.6249H5.77472M5.02472 12.3749H5.77472M5.02472 4.62494H5.77472M5.02472 5.37494H5.77472M5.02472 18.6249H5.77472M5.02472 19.3749H5.77472M19.0247 11.6249H19.7747M19.0247 12.3749H19.7747M19.0247 4.62494H19.7747M19.0247 5.37494H19.7747M19.0247 18.6249H19.7747M19.0247 19.3749H19.7747M13.4 12C13.4 12.5523 12.9522 13 12.4 13C11.8477 13 11.4 12.5523 11.4 12C11.4 11.4477 11.8477 11 12.4 11C12.9522 11 13.4 11.4477 13.4 12ZM13.4 5C13.4 5.55228 12.9522 6 12.4 6C11.8477 6 11.4 5.55228 11.4 5C11.4 4.44772 11.8477 4 12.4 4C12.9522 4 13.4 4.44772 13.4 5ZM13.4 19C13.4 19.5523 12.9522 20 12.4 20C11.8477 20 11.4 19.5523 11.4 19C11.4 18.4477 11.8477 18 12.4 18C12.9522 18 13.4 18.4477 13.4 19ZM6.39996 12C6.39996 12.5523 5.95225 13 5.39996 13C4.84768 13 4.39996 12.5523 4.39996 12C4.39996 11.4477 4.84768 11 5.39996 11C5.95225 11 6.39996 11.4477 6.39996 12ZM6.39996 5C6.39996 5.55228 5.95225 6 5.39996 6C4.84768 6 4.39996 5.55228 4.39996 5C4.39996 4.44772 4.84768 4 5.39996 4C5.95225 4 6.39996 4.44772 6.39996 5ZM6.39996 19C6.39996 19.5523 5.95225 20 5.39996 20C4.84768 20 4.39996 19.5523 4.39996 19C4.39996 18.4477 4.84768 18 5.39996 18C5.95225 18 6.39996 18.4477 6.39996 19ZM20.4 12C20.4 12.5523 19.9522 13 19.4 13C18.8477 13 18.4 12.5523 18.4 12C18.4 11.4477 18.8477 11 19.4 11C19.9522 11 20.4 11.4477 20.4 12ZM20.4 5C20.4 5.55228 19.9522 6 19.4 6C18.8477 6 18.4 5.55228 18.4 5C18.4 4.44772 18.8477 4 19.4 4C19.9522 4 20.4 4.44772 20.4 5ZM20.4 19C20.4 19.5523 19.9522 20 19.4 20C18.8477 20 18.4 19.5523 18.4 19C18.4 18.4477 18.8477 18 19.4 18C19.9522 18 20.4 18.4477 20.4 19Z" stroke="#B1B1B1" stroke-width="2" stroke-linecap="round"/>
</svg>
