<svg width="25" height="24" viewBox="0 0 25 24" fill="none" xmlns="http://www.w3.org/2000/svg">
<path d="M6.98403 20.564L7.43802 19.673L6.98403 20.564ZM5.23596 18.816L6.12697 18.362L5.23596 18.816ZM20.364 18.816L19.473 18.362L20.364 18.816ZM18.6159 20.564L18.162 19.673L18.6159 20.564ZM20.527 10.0545L20.073 10.9455L20.527 10.0545ZM20.7455 10.273L19.8545 10.727L20.7455 10.273ZM5.07299 10.0545L5.52698 10.9455L5.07299 10.0545ZM4.85448 10.273L5.74549 10.727L4.85448 10.273ZM4.79999 6C4.2477 6 3.79999 6.44772 3.79999 7C3.79999 7.55228 4.2477 8 4.79999 8V6ZM20.8 8C21.3523 8 21.8 7.55228 21.8 7C21.8 6.44772 21.3523 6 20.8 6V8ZM20.8 12C20.2477 12 19.8 12.4477 19.8 13C19.8 13.5523 20.2477 14 20.8 14V12ZM22.8 14C23.3523 14 23.8 13.5523 23.8 13C23.8 12.4477 23.3523 12 22.8 12V14ZM2.79999 12C2.2477 12 1.79999 12.4477 1.79999 13C1.79999 13.5523 2.2477 14 2.79999 14V12ZM4.79999 14C5.35227 14 5.79999 13.5523 5.79999 13C5.79999 12.4477 5.35227 12 4.79999 12V14ZM5.59999 11H20V9H5.59999V11ZM19.8 10.8V14.6H21.8V10.8H19.8ZM14.4 20H11.2V22H14.4V20ZM5.79999 14.6V10.8H3.79999V14.6H5.79999ZM11.2 20C10.0634 20 9.27107 19.9992 8.65423 19.9488C8.04906 19.8994 7.70137 19.8072 7.43802 19.673L6.53004 21.455C7.12233 21.7568 7.76251 21.8826 8.49136 21.9422C9.20854 22.0008 10.0964 22 11.2 22V20ZM3.79999 14.6C3.79999 15.7036 3.79921 16.5914 3.85781 17.3086C3.91735 18.0375 4.04317 18.6777 4.34496 19.27L6.12697 18.362C5.99278 18.0986 5.90061 17.7509 5.85116 17.1458C5.80077 16.5289 5.79999 15.7366 5.79999 14.6H3.79999ZM7.43802 19.673C6.87353 19.3854 6.41459 18.9265 6.12697 18.362L4.34496 19.27C4.82432 20.2108 5.58923 20.9757 6.53004 21.455L7.43802 19.673ZM19.8 14.6C19.8 15.7366 19.7992 16.5289 19.7488 17.1458C19.6994 17.7509 19.6072 18.0986 19.473 18.362L21.255 19.27C21.5568 18.6777 21.6826 18.0375 21.7422 17.3086C21.8008 16.5914 21.8 15.7036 21.8 14.6H19.8ZM14.4 22C15.5036 22 16.3914 22.0008 17.1086 21.9422C17.8375 21.8826 18.4776 21.7568 19.0699 21.455L18.162 19.673C17.8986 19.8072 17.5509 19.8994 16.9457 19.9488C16.3289 19.9992 15.5366 20 14.4 20V22ZM19.473 18.362C19.1854 18.9265 18.7264 19.3854 18.162 19.673L19.0699 21.455C20.0107 20.9757 20.7757 20.2108 21.255 19.27L19.473 18.362ZM20 11C20.0723 11 20.125 11 20.1697 11.0007C20.2145 11.0014 20.2368 11.0027 20.247 11.0035C20.2567 11.0043 20.2405 11.0036 20.2097 10.9964C20.1756 10.9883 20.1273 10.9732 20.073 10.9455L20.981 9.16349C20.763 9.05244 20.555 9.022 20.4098 9.01013C20.2763 8.99922 20.1235 9 20 9V11ZM21.8 10.8C21.8 10.6765 21.8008 10.5237 21.7899 10.3902C21.778 10.245 21.7475 10.037 21.6365 9.81901L19.8545 10.727C19.8268 10.6727 19.8116 10.6243 19.8036 10.5903C19.7964 10.5595 19.7957 10.5433 19.7965 10.553C19.7973 10.5632 19.7986 10.5855 19.7993 10.6303C19.8 10.675 19.8 10.7277 19.8 10.8H21.8ZM20.073 10.9455C19.9789 10.8976 19.9024 10.8211 19.8545 10.727L21.6365 9.81901C21.4927 9.53677 21.2632 9.3073 20.981 9.16349L20.073 10.9455ZM5.59999 9C5.47648 9 5.3237 8.99922 5.19016 9.01013C5.04494 9.022 4.83695 9.05244 4.619 9.16349L5.52698 10.9455C5.47266 10.9732 5.42433 10.9884 5.39031 10.9964C5.35945 11.0036 5.34325 11.0043 5.35302 11.0035C5.36318 11.0027 5.38553 11.0014 5.43026 11.0007C5.47498 11 5.5277 11 5.59999 11V9ZM5.79999 10.8C5.79999 10.7277 5.80001 10.675 5.80072 10.6303C5.80142 10.5855 5.80265 10.5632 5.80348 10.553C5.80428 10.5433 5.80362 10.5595 5.79635 10.5903C5.78834 10.6243 5.77317 10.6727 5.74549 10.727L3.96348 9.81901C3.85243 10.037 3.82199 10.245 3.81012 10.3902C3.79921 10.5237 3.79999 10.6765 3.79999 10.8H5.79999ZM4.619 9.16349C4.33676 9.3073 4.10729 9.53677 3.96348 9.81901L5.74549 10.727C5.69755 10.8211 5.62106 10.8976 5.52698 10.9455L4.619 9.16349ZM4.79999 8H20.8V6H4.79999V8ZM9.79999 7C9.79999 5.34315 11.1431 4 12.8 4V2C10.0386 2 7.79999 4.23858 7.79999 7H9.79999ZM12.8 4C14.4568 4 15.8 5.34315 15.8 7H17.8C17.8 4.23858 15.5614 2 12.8 2V4ZM20.8 14H22.8V12H20.8V14ZM2.79999 14H4.79999V12H2.79999V14Z" fill="#B1B1B1"/>
</svg>
