<svg width="25" height="24" viewBox="0 0 25 24" fill="none" xmlns="http://www.w3.org/2000/svg">
<path d="M3.6403 13.0203C3.39617 12.811 3.27411 12.7064 3.22939 12.5819C3.19014 12.4727 3.19014 12.3531 3.22939 12.2439C3.27411 12.1194 3.39617 12.0147 3.6403 11.8055L12.111 4.54486C12.5313 4.18466 12.7414 4.00457 12.9193 4.00015C13.0739 3.99632 13.2215 4.06424 13.3192 4.18412C13.4317 4.32205 13.4317 4.59879 13.4317 5.15226V9.44752C15.5663 9.82098 17.5201 10.9026 18.9719 12.5268C20.5548 14.2974 21.4304 16.5888 21.4317 18.9639V19.5759C20.3823 18.3118 19.0722 17.2894 17.5909 16.5788C16.285 15.9523 14.8732 15.5812 13.4317 15.4834V19.6735C13.4317 20.227 13.4317 20.5037 13.3192 20.6417C13.2215 20.7615 13.0739 20.8295 12.9193 20.8256C12.7414 20.8212 12.5313 20.6411 12.111 20.2809L3.6403 13.0203Z" stroke="#B1B1B1" stroke-width="2" stroke-linecap="round" stroke-linejoin="round"/>
</svg>
