<svg width="133" height="52" viewBox="0 0 133 52" fill="none" xmlns="http://www.w3.org/2000/svg">
<g clip-path="url(#clip0_2866_45822)">
<path d="M29.5875 29.4879L25.754 31.7581C23.9346 30.0893 20.445 28.9 18.038 28.5515L18.038 51.8037L14.0298 51.8037L14.0298 28.5515C11.5668 29.0307 8.43882 30.151 6.51425 31.7581L2.58984 29.4879C6.1448 25.8771 10.6906 23.9817 15.8335 23.942C20.8779 23.9031 26.0482 25.8791 29.5875 29.4879Z" fill="white"/>
<path fill-rule="evenodd" clip-rule="evenodd" d="M6.55916 20.2125C8.55346 18.7228 10.2127 16.8312 11.5369 14.5377C12.8624 12.245 13.671 9.86223 13.9625 7.38949C14.254 4.91676 14.094 2.48452 13.4825 0.0927734L9.0743 2.55176C9.28779 3.78703 9.33953 5.02159 9.22952 6.25543C9.1195 7.48927 8.83036 8.71236 8.36209 9.92469L2.45483 3.54458L8.4494e-06 4.90733L8.43671e-06 7.71271L5.9545 14.0948C5.13872 15.1065 4.22407 15.9684 3.21054 16.6806C2.19701 17.3928 1.17654 18.0021 8.38993e-06 18.4348L9.24402e-08 23.2448C2.37845 22.5793 4.56486 21.7021 6.55916 20.2125Z" fill="#FF6DFB"/>
<path fill-rule="evenodd" clip-rule="evenodd" d="M26.308 20.2125C24.3137 18.7228 22.6545 16.8312 21.3303 14.5377C20.0048 12.245 19.1962 9.86223 18.9047 7.38949C18.6132 4.91676 18.7732 2.48452 19.3846 0.0927734L23.7929 2.55176C23.5794 3.78703 23.5277 5.02159 23.6377 6.25543C23.7477 7.48927 24.0368 8.71236 24.5051 9.92469L30.4124 3.54458L32.8672 4.90733L32.8672 7.71271L26.9127 14.0948C27.7285 15.1065 28.6431 15.9684 29.6567 16.6806C30.6702 17.3928 31.6906 18.0021 32.8672 18.4348L32.8672 23.2448C30.4887 22.5793 28.3023 21.7021 26.308 20.2125Z" fill="#FF6DFB"/>
<path d="M32.4589 35.6756C34.1135 33.867 36.3838 32.8281 39.1543 32.8281V36.5991C36.2684 36.7145 34.075 38.4597 32.4589 40.5761V51.8995H28.457L28.457 32.1587H32.4589V35.6756Z" fill="white"/>
<path d="M48.2034 32.8906C54.2062 32.8906 57.9387 37.4697 57.1691 43.5879H42.2856C42.6704 46.32 45.0481 48.4925 48.4343 48.4925C50.2043 48.4925 52.2766 47.4423 53.0077 46.2879H56.9158C55.7614 49.5587 52.3592 51.8995 48.4343 51.8995C42.7393 51.8995 38.8914 47.7822 38.8914 42.3951C38.8914 37.0464 42.7008 32.8906 48.2034 32.8906ZM48.2419 36.2768C45.2405 36.2768 43.0872 38.0709 42.2856 40.8174H54.2102C53.7091 37.9707 51.0509 36.2768 48.2419 36.2768Z" fill="white"/>
<path d="M69.1691 32.7535C73.8635 32.7535 77.0573 35.9858 77.0573 41.219V51.9019H73.0555V41.4499C73.0555 38.1407 71.2854 36.3706 68.361 36.3706C66.6294 36.3706 64.7439 37.3326 63.3202 39.1027V51.9019H59.3183V32.1612H63.3202V34.8314C64.8978 33.4847 66.8603 32.7535 69.1691 32.7535Z" fill="white"/>
<path d="M93.9721 24.042H97.9355V51.8995H93.9721V49.9755C92.433 51.2069 90.4705 51.8995 88.1617 51.8995C83.0825 51.8995 79.0037 47.6667 79.0037 42.3566C79.0037 37.1234 83.0825 32.8907 88.1617 32.8907C90.4705 32.8907 92.433 33.5833 93.9721 34.7761V24.042ZM88.4809 48.5927C92.0943 48.4537 94.7939 45.9401 94.7939 42.3566C94.7939 38.8395 92.0568 36.167 88.4809 36.167C85.1717 36.167 82.3683 39.1628 82.3683 42.3566C82.3683 45.5889 85.1717 48.5927 88.4809 48.5927Z" fill="white"/>
<path d="M102.537 28.9674C101.114 28.9674 99.9978 27.9284 99.9978 26.5047C99.9978 25.0809 101.114 24.042 102.537 24.042C103.923 24.042 105.077 25.0809 105.077 26.5047C105.077 27.9284 103.923 28.9674 102.537 28.9674ZM100.609 32.1587H104.573V51.8995H100.609V32.1587Z" fill="white"/>
<path d="M120.671 47.5225L121.249 51.178C119.671 51.7552 118.363 51.9091 117.131 51.9091C112.514 51.9091 110.051 49.1386 110.051 44.4826V35.5065H104.573V32.1587H110.051V24.042H114.053V32.1587H119.336V35.5065H114.053V44.4826C114.053 47.0992 115.361 48.2151 117.593 48.2151C118.67 48.2151 119.748 47.9073 120.671 47.5225Z" fill="white"/>
<path d="M122.99 14.7231C124.463 14.9 125.728 14.9885 126.784 14.9885C128.985 14.9885 130.815 14.9221 132.273 14.7895C132.198 14.9664 132.087 15.2096 131.938 15.5191C131.789 15.8286 131.417 16.4182 130.822 17.2879C130.227 18.1428 129.558 18.9461 128.814 19.6978C129.35 19.6978 129.848 19.8526 130.309 20.1621C130.517 20.2948 130.703 20.5085 130.867 20.8033C131.031 21.0834 131.112 21.4592 131.112 21.9309C131.112 22.3878 131.001 22.8669 130.778 23.368C130.57 23.8544 130.22 24.3482 129.729 24.8494C128.718 25.9106 126.903 26.6771 124.285 27.1488C123.734 26.7213 123.206 26.1391 122.7 25.4021C122.195 24.6799 121.83 24.0608 121.607 23.5449L121.25 22.749C122.663 23.1027 123.89 23.2796 124.932 23.2796C126.166 23.2796 126.992 23.088 127.408 22.7047C127.602 22.5279 127.699 22.3362 127.699 22.1299C127.699 21.7614 127.408 21.5108 126.828 21.3782C126.456 21.3045 126.099 21.2676 125.757 21.2676L124.731 21.3339C124.493 21.3339 124.329 21.2971 124.24 21.2234L127.297 18.3712C126.345 18.3712 125.423 18.4523 124.53 18.6144C123.638 18.7766 122.983 18.9387 122.566 19.1009L121.942 19.3441C122.641 17.649 122.99 16.1087 122.99 14.7231Z" fill="white"/>
</g>
<defs>
<clipPath id="clip0_2866_45822">
<rect width="132.273" height="51.9071" fill="white" transform="translate(0 0.0927734)"/>
</clipPath>
</defs>
</svg>
